<svg width="13" height="12" viewBox="0 0 13 12" fill="none" xmlns="http://www.w3.org/2000/svg">
<path d="M5.26454 0.719552C5.57617 -0.239535 6.93302 -0.239535 7.24465 0.719552L8.00749 3.06735C8.14686 3.49627 8.54656 3.78666 8.99755 3.78666L11.4662 3.78667C12.4746 3.78667 12.8939 5.07711 12.0781 5.66986L10.0809 7.12088C9.71604 7.38596 9.56337 7.85584 9.70273 8.28475L10.4656 10.6325C10.7772 11.5916 9.67949 12.3892 8.86364 11.7964L6.86648 10.3454C6.50162 10.0803 6.00757 10.0803 5.64271 10.3454L3.64555 11.7964C2.82971 12.3892 1.73199 11.5916 2.04362 10.6325L2.80646 8.28475C2.94582 7.85584 2.79315 7.38596 2.42829 7.12088L0.431138 5.66986C-0.38471 5.07711 0.0345807 3.78667 1.04302 3.78667L3.51165 3.78666C3.96264 3.78666 4.36233 3.49627 4.5017 3.06735L5.26454 0.719552Z" fill="#FBBC04"/>
</svg>
