<svg width="20" height="19" viewBox="0 0 20 19" fill="none" xmlns="http://www.w3.org/2000/svg">
<path d="M0 18.025V16.425C0.6 16.375 1.07917 16.2 1.4375 15.9C1.79583 15.6 2.35833 15.45 3.125 15.45C3.89167 15.45 4.51667 15.6292 5 15.9875C5.48333 16.3458 6.04167 16.525 6.675 16.525C7.30833 16.525 7.82917 16.3458 8.2375 15.9875C8.64583 15.6292 9.23333 15.45 10 15.45C10.7667 15.45 11.3917 15.6292 11.875 15.9875C12.3583 16.3458 12.9167 16.525 13.55 16.525C14.1833 16.525 14.7083 16.3458 15.125 15.9875C15.5417 15.6292 16.1333 15.45 16.9 15.45C17.6667 15.45 18.225 15.6 18.575 15.9C18.925 16.2 19.4 16.375 20 16.425V18.025C19.4167 17.975 18.9125 17.7875 18.4875 17.4625C18.0625 17.1375 17.5333 16.975 16.9 16.975C16.2667 16.975 15.725 17.15 15.275 17.5C14.825 17.85 14.25 18.025 13.55 18.025C12.85 18.025 12.2417 17.85 11.725 17.5C11.2083 17.15 10.6333 16.975 10 16.975C9.36667 16.975 8.8125 17.15 8.3375 17.5C7.8625 17.85 7.275 18.025 6.575 18.025C5.875 18.025 5.28333 17.85 4.8 17.5C4.31667 17.15 3.75833 16.975 3.125 16.975C2.49167 16.975 1.95833 17.1375 1.525 17.4625C1.09167 17.7875 0.583333 17.975 0 18.025ZM0 13.325V11.825C0.6 11.775 1.07917 11.6042 1.4375 11.3125C1.79583 11.0208 2.35833 10.875 3.125 10.875C3.89167 10.875 4.5 11.0333 4.95 11.35C5.4 11.6667 5.94167 11.825 6.575 11.825C7.20833 11.825 7.74583 11.6667 8.1875 11.35C8.62917 11.0333 9.23333 10.875 10 10.875C10.7667 10.875 11.375 11.0333 11.825 11.35C12.275 11.6667 12.8167 11.825 13.45 11.825C14.0833 11.825 14.625 11.6667 15.075 11.35C15.525 11.0333 16.1333 10.875 16.9 10.875C17.6667 10.875 18.225 11.0208 18.575 11.3125C18.925 11.6042 19.4 11.775 20 11.825V13.325C19.4167 13.275 18.9125 13.0875 18.4875 12.7625C18.0625 12.4375 17.5333 12.275 16.9 12.275C16.2667 12.275 15.725 12.45 15.275 12.8C14.825 13.15 14.25 13.325 13.55 13.325C12.85 13.325 12.2417 13.15 11.725 12.8C11.2083 12.45 10.6333 12.275 10 12.275C9.36667 12.275 8.82917 12.45 8.3875 12.8C7.94583 13.15 7.375 13.325 6.675 13.325C5.975 13.325 5.36667 13.15 4.85 12.8C4.33333 12.45 3.75833 12.275 3.125 12.275C2.49167 12.275 1.95833 12.4375 1.525 12.7625C1.09167 13.0875 0.583333 13.275 0 13.325ZM5.2 8.125L8.575 4.75L7.225 3.4C6.65833 2.83333 6.08333 2.45417 5.5 2.2625C4.91667 2.07083 4.175 1.975 3.275 1.975V0C4.475 0 5.4625 0.15 6.2375 0.45C7.0125 0.75 7.76667 1.26667 8.5 2L14.825 8.325C14.6417 8.475 14.4292 8.58333 14.1875 8.65C13.9458 8.71667 13.7 8.75 13.45 8.75C12.8167 8.75 12.2708 8.575 11.8125 8.225C11.3542 7.875 10.75 7.7 10 7.7C9.25 7.7 8.65 7.875 8.2 8.225C7.75 8.575 7.20833 8.75 6.575 8.75C6.275 8.75 6.00417 8.69167 5.7625 8.575C5.52083 8.45833 5.33333 8.30833 5.2 8.125ZM14.7 0.1C15.3667 0.1 15.9292 0.329167 16.3875 0.7875C16.8458 1.24583 17.075 1.80833 17.075 2.475C17.075 3.14167 16.8458 3.70417 16.3875 4.1625C15.9292 4.62083 15.3667 4.85 14.7 4.85C14.0333 4.85 13.4708 4.62083 13.0125 4.1625C12.5542 3.70417 12.325 3.14167 12.325 2.475C12.325 1.80833 12.5542 1.24583 13.0125 0.7875C13.4708 0.329167 14.0333 0.1 14.7 0.1Z" fill="#00BF63"/>
</svg>
