<svg width="20" height="20" viewBox="0 0 20 20" fill="none" xmlns="http://www.w3.org/2000/svg">
<path fill-rule="evenodd" clip-rule="evenodd" d="M11.6875 5.85417C11.6875 5.85418 11.6875 5.85418 11.6874 5.85419L10.5892 6.95256C10.4329 7.10885 10.2209 7.19666 9.9999 7.19666C9.77888 7.19667 9.56691 7.10887 9.41063 6.95258L8.31223 5.85419C7.1732 4.71516 5.32647 4.71516 4.18744 5.85419C3.04841 6.99322 3.04841 8.83995 4.18744 9.97898L9.99988 15.7914L15.8122 9.97898L16.4015 10.5682L15.8122 9.97898C16.9513 8.83995 16.9513 6.99322 15.8122 5.85419C14.6732 4.71517 12.8265 4.71516 11.6875 5.85417ZM10.5089 4.67568C12.2988 2.88578 15.2008 2.88578 16.9907 4.67568C18.7806 6.46558 18.7806 9.36759 16.9907 11.1575L10.5891 17.5592C10.4329 17.7155 10.2209 17.8033 9.99988 17.8033C9.77887 17.8033 9.56691 17.7155 9.41063 17.5592L3.00893 11.1575C1.21903 9.36759 1.21903 6.46558 3.00893 4.67568C4.79883 2.88578 7.70084 2.88578 9.49074 4.67568L9.99986 5.18479L10.5089 4.6757L10.5089 4.67568Z" fill="#9F9F9F"/>
</svg>
