<svg width="20" height="20" viewBox="0 0 20 20" fill="none" xmlns="http://www.w3.org/2000/svg">
<g clip-path="url(#clip0_147_2196)">
<path d="M10.0001 0.312364C4.64854 0.312364 0.312613 4.64829 0.312613 9.99984C0.312613 15.3514 4.64854 19.6873 10.0001 19.6873C15.3516 19.6873 19.6876 15.3514 19.6876 9.99984C19.6876 4.64829 15.3516 0.312364 10.0001 0.312364ZM10.0001 4.06236C11.8985 4.06236 13.4376 5.60141 13.4376 7.49985C13.4376 9.39828 11.8985 10.9373 10.0001 10.9373C8.10166 10.9373 6.5626 9.39828 6.5626 7.49985C6.5626 5.60141 8.10166 4.06236 10.0001 4.06236ZM10.0001 17.4998C7.70713 17.4998 5.65244 16.4608 4.27745 14.8358C5.01182 13.453 6.44932 12.4998 8.12509 12.4998C8.21884 12.4998 8.31259 12.5155 8.40244 12.5428C8.91025 12.7069 9.4415 12.8123 10.0001 12.8123C10.5587 12.8123 11.0938 12.7069 11.5977 12.5428C11.6876 12.5155 11.7813 12.4998 11.8751 12.4998C13.5509 12.4998 14.9884 13.453 15.7227 14.8358C14.3477 16.4608 12.2931 17.4998 10.0001 17.4998Z" fill="#0075C3"/>
</g>
<defs>
<clipPath id="clip0_147_2196">
<rect width="19.6491" height="19.6491" fill="white" transform="scale(1.01785)"/>
</clipPath>
</defs>
</svg>
