<svg width="21" height="16" viewBox="0 0 21 16" fill="none" xmlns="http://www.w3.org/2000/svg">
<mask id="mask0_171_1142" style="mask-type:alpha" maskUnits="userSpaceOnUse" x="-2" y="-4" width="25" height="25">
<rect x="-1.82076" y="-3.7385" width="24.3206" height="24.3206" fill="#D9D9D9"/>
</mask>
<g mask="url(#mask0_171_1142)">
<path d="M0 16.0001V13.6947H20.6791V16.0001H0ZM1.01333 12.6813V11.462C1.01333 9.28804 1.67422 7.35936 2.996 5.67593C4.31777 3.9925 6.02139 2.91305 8.10685 2.43756V2.23271C8.10685 1.61871 8.32547 1.09309 8.7627 0.655846C9.19991 0.218616 9.7255 0 10.3395 0C10.9534 0 11.479 0.218616 11.9163 0.655846C12.3536 1.09309 12.5723 1.61871 12.5723 2.23271V2.43756C14.6746 2.91305 16.3825 3.9925 17.6958 5.67593C19.0091 7.35936 19.6658 9.28804 19.6658 11.462V12.6813H1.01333ZM3.38759 10.3759H17.2915C17.043 8.65174 16.2607 7.23157 14.9446 6.11542C13.6285 4.99926 12.0935 4.44118 10.3396 4.44118C8.58564 4.44118 7.05385 4.99926 5.7442 6.11542C4.43454 7.23157 3.649 8.65174 3.38759 10.3759Z" fill="#00BF63"/>
</g>
</svg>
