<svg width="19" height="21" viewBox="0 0 19 21" fill="none" xmlns="http://www.w3.org/2000/svg">
<mask id="mask0_171_1145" style="mask-type:alpha" maskUnits="userSpaceOnUse" x="-3" y="-2" width="25" height="25">
<rect x="-2.79108" y="-1.84022" width="24.5822" height="24.5822" fill="#D9D9D9"/>
</mask>
<g mask="url(#mask0_171_1145)">
<path d="M4.32972 20.8342V14.7377H2.64804C1.91247 14.7377 1.28724 14.4802 0.772343 13.9653C0.257448 13.4504 0 12.8252 0 12.0896C0 11.5497 0.150643 11.0542 0.451929 10.6031C0.753215 10.1521 1.14866 9.81613 1.63825 9.59521L8.31653 6.67384V6.08157C7.70197 5.8678 7.20998 5.49855 6.84054 4.9738C6.47111 4.44906 6.28639 3.86234 6.28639 3.21364C6.28639 2.32096 6.59883 1.56219 7.22369 0.937325C7.84856 0.312441 8.60733 0 9.50001 0C10.3927 0 11.1515 0.312441 11.7763 0.937325C12.4012 1.56219 12.7136 2.32096 12.7136 3.21364H10.4753C10.4753 2.93567 10.3818 2.70363 10.1949 2.51753C10.008 2.33142 9.77633 2.23837 9.50001 2.23837C9.22368 2.23837 8.99205 2.33183 8.80512 2.51876C8.6182 2.70568 8.52473 2.93731 8.52473 3.21364C8.52473 3.49169 8.6182 3.72477 8.80512 3.91288C8.99205 4.10098 9.22368 4.19503 9.50001 4.19503C9.81623 4.19503 10.0813 4.30199 10.2952 4.51591C10.5092 4.72982 10.6161 4.9949 10.6161 5.31114V6.64322L17.3618 9.59521C17.8514 9.81613 18.2468 10.1521 18.5481 10.6031C18.8494 11.0542 19 11.5497 19 12.0896C19 12.8252 18.7426 13.4504 18.2277 13.9653C17.7128 14.4802 17.0875 14.7377 16.352 14.7377H14.6703V20.8342H4.32972ZM2.64804 12.4993H4.32972V11.524H14.6703V12.4993H16.352C16.4715 12.4993 16.5696 12.4575 16.6464 12.3739C16.7233 12.2904 16.7617 12.1817 16.7617 12.048C16.7617 11.9644 16.7403 11.8911 16.6977 11.8282C16.655 11.7653 16.591 11.7159 16.5056 11.6799L9.50085 8.60713L2.49609 11.6799C2.40961 11.7141 2.34503 11.763 2.30236 11.8269C2.25968 11.8907 2.23834 11.9644 2.23834 12.048C2.23834 12.1817 2.27675 12.2904 2.35357 12.3739C2.43039 12.4575 2.52855 12.4993 2.64804 12.4993ZM6.56806 18.5959H12.4319V13.7563H6.56806V18.5959Z" fill="#00BF63"/>
</g>
</svg>
