<svg width="20" height="20" viewBox="0 0 20 20" fill="none" xmlns="http://www.w3.org/2000/svg">
<path d="M9.9996 10.096C10.471 10.096 10.8747 9.92818 11.2107 9.59246C11.5467 9.25675 11.7147 8.85318 11.7147 8.38173C11.7147 7.9103 11.5469 7.50659 11.2112 7.17059C10.8755 6.83459 10.4719 6.66659 10.0004 6.66659C9.529 6.66659 9.12528 6.83444 8.78928 7.17015C8.45328 7.50587 8.28528 7.90945 8.28528 8.38088C8.28528 8.85232 8.45314 9.25604 8.78887 9.59204C9.12458 9.92804 9.52815 10.096 9.9996 10.096ZM10 18.612C7.63892 16.6281 5.88919 14.8118 4.75083 13.1634C3.61248 11.5149 3.0433 9.95289 3.0433 8.47746C3.0433 6.56829 3.71051 4.91072 5.04491 3.50473C6.3793 2.09875 8.031 1.39575 10 1.39575C11.969 1.39575 13.6207 2.09875 14.9551 3.50473C16.2895 4.91072 16.9567 6.56829 16.9567 8.47746C16.9567 9.95289 16.3875 11.5149 15.2492 13.1634C14.1108 14.8118 12.3611 16.6281 10 18.612Z" fill="#0075C3"/>
</svg>
