<svg width="13" height="12" viewBox="0 0 13 12" fill="none" xmlns="http://www.w3.org/2000/svg">
<path d="M5.26451 0.719552C5.57614 -0.239535 6.93299 -0.239535 7.24462 0.719552L8.00746 3.06735C8.14683 3.49627 8.54652 3.78666 8.99752 3.78666L11.4661 3.78667C12.4746 3.78667 12.8939 5.07711 12.078 5.66986L10.0809 7.12088C9.71601 7.38596 9.56334 7.85584 9.7027 8.28475L10.4655 10.6325C10.7772 11.5916 9.67945 12.3892 8.86361 11.7964L6.86645 10.3454C6.50159 10.0803 6.00754 10.0803 5.64268 10.3454L3.64552 11.7964C2.82967 12.3892 1.73196 11.5916 2.04358 10.6325L2.80643 8.28475C2.94579 7.85584 2.79312 7.38596 2.42826 7.12088L0.431107 5.66986C-0.384742 5.07711 0.0345489 3.78667 1.04299 3.78667L3.51161 3.78666C3.9626 3.78666 4.3623 3.49627 4.50167 3.06735L5.26451 0.719552Z" fill="#FBBC04"/>
</svg>
