<svg width="24" height="24" viewBox="0 0 24 24" fill="none" xmlns="http://www.w3.org/2000/svg">
<path d="M10.6 16.3539L17.873 9.08085L16.3692 7.57702L10.6 13.3462L7.69995 10.4462L6.19613 11.9501L10.6 16.3539ZM5.30768 21.15C4.62379 21.15 4.04321 20.9114 3.56593 20.4341C3.08863 19.9568 2.84998 19.3762 2.84998 18.6923V5.3078C2.84998 4.62392 3.08863 4.04333 3.56593 3.56605C4.04321 3.08875 4.62379 2.8501 5.30768 2.8501H18.6922C19.3761 2.8501 19.9567 3.08875 20.434 3.56605C20.9113 4.04333 21.1499 4.62392 21.1499 5.3078V18.6923C21.1499 19.3762 20.9113 19.9568 20.434 20.4341C19.9567 20.9114 19.3761 21.15 18.6922 21.15H5.30768Z" fill="#0075C3"/>
</svg>
