<svg width="20" height="20" viewBox="0 0 20 20" fill="none" xmlns="http://www.w3.org/2000/svg">
<path fill-rule="evenodd" clip-rule="evenodd" d="M7.51542 3.88774C7.65416 2.63835 8.71363 1.66675 10 1.66675C11.2864 1.66675 12.3459 2.63835 12.4846 3.88774C14.4628 4.82041 15.8334 6.83262 15.8334 9.16675V11.7988C15.8334 12.0268 15.9239 12.2455 16.0852 12.4067L17.2559 13.5775C17.4943 13.8158 17.5656 14.1743 17.4366 14.4857C17.3076 14.7971 17.0037 15.0001 16.6667 15.0001L13.3334 15.0001C13.3334 16.841 11.841 18.3334 10 18.3334C8.15908 18.3334 6.66669 16.841 6.66669 15.0001L3.33336 15.0001C2.99631 15.0001 2.69244 14.7971 2.56346 14.4857C2.43447 14.1743 2.50577 13.8158 2.7441 13.5775L3.91488 12.4067C4.07611 12.2455 4.16669 12.0268 4.16669 11.7988V9.16675C4.16669 6.83262 5.5372 4.8204 7.51542 3.88774ZM8.33336 15.0001C8.33336 15.9206 9.07955 16.6667 10 16.6667C10.9205 16.6667 11.6667 15.9206 11.6667 15.0001H8.33336ZM10 3.33341C9.53979 3.33341 9.16669 3.70651 9.16669 4.16675V4.45126C9.16669 4.80444 8.94406 5.11926 8.61106 5.23696C6.99162 5.80935 5.83336 7.35386 5.83336 9.16675V11.7988C5.83336 12.3565 5.64894 12.8952 5.31386 13.3334H14.6862C14.3511 12.8952 14.1667 12.3565 14.1667 11.7988V9.16675C14.1667 7.35386 13.0084 5.80935 11.389 5.23696C11.056 5.11926 10.8334 4.80444 10.8334 4.45126V4.16675C10.8334 3.70651 10.4603 3.33341 10 3.33341Z" fill="#9F9F9F"/>
</svg>
