<svg width="13" height="12" viewBox="0 0 13 12" fill="none" xmlns="http://www.w3.org/2000/svg">
<path d="M5.26462 0.719313C5.57626 -0.239795 6.93314 -0.239794 7.24477 0.719314L8.00763 3.06716C8.147 3.49609 8.54671 3.78649 8.99771 3.78649L11.4664 3.78649C12.4748 3.78649 12.8941 5.07696 12.0783 5.66972L10.0811 7.12077C9.71621 7.38586 9.56354 7.85575 9.7029 8.28467L10.4658 10.6325C10.7774 11.5916 9.67966 12.3892 8.86379 11.7964L6.8666 10.3454C6.50173 10.0803 6.00766 10.0803 5.6428 10.3454L3.6456 11.7964C2.82973 12.3892 1.73199 11.5916 2.04363 10.6325L2.80649 8.28467C2.94586 7.85575 2.79318 7.38586 2.42831 7.12077L0.431116 5.66972C-0.38475 5.07696 0.0345496 3.78649 1.04301 3.78649L3.51169 3.78649C3.96269 3.78649 4.36239 3.49609 4.50176 3.06716L5.26462 0.719313Z" fill="#FBBC04"/>
</svg>
