<svg width="13" height="12" viewBox="0 0 13 12" fill="none" xmlns="http://www.w3.org/2000/svg">
<path d="M5.26472 0.719313C5.57635 -0.239795 6.93323 -0.239794 7.24487 0.719314L8.00773 3.06716C8.14709 3.49609 8.5468 3.78649 8.9978 3.78649L11.4665 3.78649C12.4749 3.78649 12.8942 5.07696 12.0784 5.66972L10.0812 7.12077C9.71631 7.38586 9.56363 7.85575 9.703 8.28467L10.4659 10.6325C10.7775 11.5916 9.67975 12.3892 8.86389 11.7964L6.86669 10.3454C6.50183 10.0803 6.00776 10.0803 5.64289 10.3454L3.64569 11.7964C2.82983 12.3892 1.73209 11.5916 2.04372 10.6325L2.80658 8.28467C2.94595 7.85575 2.79328 7.38586 2.42841 7.12077L0.431211 5.66972C-0.384654 5.07696 0.034645 3.78649 1.04311 3.78649L3.51178 3.78649C3.96278 3.78649 4.36249 3.49609 4.50186 3.06716L5.26472 0.719313Z" fill="#FBBC04"/>
</svg>
