<svg width="17" height="17" viewBox="0 0 17 17" fill="none" xmlns="http://www.w3.org/2000/svg">
<g clip-path="url(#clip0_114_928)">
<path d="M16.7676 14.699L13.4572 11.3887C13.3078 11.2392 13.1053 11.1562 12.8928 11.1562H12.3516C13.268 9.98417 13.8125 8.50995 13.8125 6.90624C13.8125 3.09121 10.7213 0 6.90624 0C3.09121 0 0 3.09121 0 6.90624C0 10.7213 3.09121 13.8125 6.90624 13.8125C8.50995 13.8125 9.98417 13.268 11.1562 12.3516V12.8928C11.1562 13.1053 11.2392 13.3078 11.3887 13.4572L14.699 16.7676C15.0111 17.0797 15.5158 17.0797 15.8246 16.7676L16.7642 15.8279C17.0764 15.5158 17.0764 15.0111 16.7676 14.699ZM6.90624 11.1562C4.55878 11.1562 2.65625 9.25702 2.65625 6.90624C2.65625 4.55878 4.55546 2.65625 6.90624 2.65625C9.2537 2.65625 11.1562 4.55546 11.1562 6.90624C11.1562 9.2537 9.25702 11.1562 6.90624 11.1562Z" fill="#0075C3"/>
</g>
<defs>
<clipPath id="clip0_114_928">
<rect width="16.64" height="16.64" fill="white" transform="scale(1.02163)"/>
</clipPath>
</defs>
</svg>
