<svg width="18" height="21" viewBox="0 0 18 21" fill="none" xmlns="http://www.w3.org/2000/svg">
<path d="M5.6361 21C4.94136 20.9624 4.2876 20.6594 3.80977 20.1537C3.23811 19.6037 2.72798 18.9932 2.28838 18.3329C1.60169 17.3496 1.05889 16.2733 0.676398 15.1365C0.243519 13.9136 0.0157944 12.6275 0.00243528 11.3303C-0.0311939 10.0575 0.284018 8.79966 0.913942 7.69311C1.3753 6.89551 2.03337 6.22946 2.82534 5.75851C3.60856 5.28957 4.50231 5.03715 5.41512 5.0271C6.10325 5.06781 6.77946 5.22509 7.41491 5.49224C7.92204 5.71542 8.45458 5.87231 9.00149 5.95849C9.60476 5.83211 10.1942 5.64709 10.7615 5.40606C11.4329 5.14391 12.1438 4.99711 12.8641 4.97185C12.9602 4.97185 13.0552 4.97185 13.1469 4.9829C14.7269 5.0282 16.1963 5.80381 17.1244 7.08213C16.4001 7.46953 15.7974 8.05019 15.3833 8.75958C14.9692 9.46897 14.7599 10.2793 14.7788 11.1005C14.7716 11.7284 14.8975 12.3507 15.1483 12.9265C15.3991 13.5022 15.7691 14.0182 16.2339 14.4405C16.657 14.8437 17.1498 15.1664 17.6879 15.394C17.5774 15.7254 17.4503 16.0458 17.3155 16.3684C17.0095 17.0814 16.6319 17.7614 16.1886 18.3981C15.7694 19.0359 15.2814 19.6257 14.7335 20.157C14.2337 20.6529 13.5674 20.9455 12.8641 20.9779C12.2678 20.9515 11.6821 20.8116 11.1383 20.5658C10.5518 20.3103 9.92159 20.1704 9.28212 20.1537C8.62462 20.1666 7.97572 20.3058 7.37072 20.5636C6.84817 20.7993 6.28989 20.9461 5.71896 20.9978L5.6361 21ZM9.11639 4.97185C9.03353 4.97185 8.95066 4.97185 8.8678 4.96191C8.85037 4.8304 8.84115 4.69793 8.84018 4.56527C8.87632 3.46166 9.30761 2.40774 10.0555 1.59541C10.4738 1.12856 10.9809 0.749604 11.5471 0.480612C12.0747 0.208988 12.6513 0.0455826 13.243 0C13.2596 0.144736 13.2596 0.286158 13.2596 0.42095C13.2441 1.50721 12.8359 2.55114 12.1106 3.35987C11.7593 3.83078 11.3093 4.21911 10.7921 4.49759C10.2748 4.77606 9.70287 4.93794 9.11639 4.97185Z" fill="#484848"/>
</svg>
