<svg width="24" height="24" viewBox="0 0 24 24" fill="none" xmlns="http://www.w3.org/2000/svg">
<g clip-path="url(#clip0_95_630)">
<path d="M6.25001 15.6307L3.98851 13.3884C5.01415 12.3628 6.21222 11.5417 7.58274 10.925C8.95324 10.3083 10.4257 10 12 10C13.5744 10 15.0468 10.3067 16.4173 10.9202C17.7878 11.5337 18.9859 12.35 20.0115 13.3692L17.75 15.6307C17 14.8807 16.1375 14.2932 15.1625 13.8682C14.1875 13.4432 13.1333 13.2307 12 13.2307C10.8667 13.2307 9.81251 13.4432 8.83751 13.8682C7.86251 14.2932 7.00001 14.8807 6.25001 15.6307ZM0.550013 9.95573L-1.71149 7.69422C0.0346632 5.96089 2.06799 4.57853 4.38849 3.54713C6.709 2.51571 9.24618 2 12 2C14.7538 2 17.291 2.51988 19.6115 3.55963C21.932 4.59936 23.9654 5.98589 25.7115 7.71922L23.45 9.98073C22 8.53073 20.2958 7.37656 18.3375 6.51823C16.3792 5.65989 14.2667 5.23073 12 5.23073C9.73335 5.23073 7.62085 5.65573 5.66251 6.50573C3.70418 7.35573 2.00001 8.50573 0.550013 9.95573ZM12 21.4057L14.4115 18.9788C14.0923 18.6763 13.7291 18.4375 13.3221 18.2625C12.9151 18.0875 12.4744 18 12 18C11.5257 18 11.085 18.0875 10.6779 18.2625C10.2709 18.4375 9.90775 18.6763 9.58851 18.9788L12 21.4057Z" fill="#00BF63"/>
</g>
<defs>
<clipPath id="clip0_95_630">
<rect width="24" height="24" fill="white"/>
</clipPath>
</defs>
</svg>
