<svg width="16" height="16" viewBox="0 0 16 16" fill="none" xmlns="http://www.w3.org/2000/svg">
<path d="M9.87816 7.99771L15.606 2.28324C15.8568 2.03242 15.9977 1.69222 15.9977 1.33749C15.9977 0.982768 15.8568 0.642572 15.606 0.391743C15.3551 0.140914 15.0149 0 14.6602 0C14.3055 0 13.9653 0.140914 13.7145 0.391743L7.99998 6.11953L2.28552 0.391743C2.03469 0.140914 1.69449 -2.64291e-09 1.33977 0C0.985042 2.64291e-09 0.644845 0.140914 0.394016 0.391743C0.143187 0.642572 0.00227327 0.982768 0.00227327 1.33749C0.00227326 1.69222 0.143187 2.03242 0.394016 2.28324L6.1218 7.99771L0.394016 13.7122C0.269166 13.836 0.17007 13.9833 0.102444 14.1457C0.0348176 14.308 0 14.4821 0 14.6579C0 14.8338 0.0348176 15.0079 0.102444 15.1702C0.17007 15.3325 0.269166 15.4798 0.394016 15.6037C0.517847 15.7285 0.665172 15.8276 0.827494 15.8953C0.989816 15.9629 1.16392 15.9977 1.33977 15.9977C1.51561 15.9977 1.68972 15.9629 1.85204 15.8953C2.01436 15.8276 2.16169 15.7285 2.28552 15.6037L7.99998 9.87589L13.7145 15.6037C13.8383 15.7285 13.9856 15.8276 14.1479 15.8953C14.3102 15.9629 14.4844 15.9977 14.6602 15.9977C14.836 15.9977 15.0102 15.9629 15.1725 15.8953C15.3348 15.8276 15.4821 15.7285 15.606 15.6037C15.7308 15.4798 15.8299 15.3325 15.8975 15.1702C15.9652 15.0079 16 14.8338 16 14.6579C16 14.4821 15.9652 14.308 15.8975 14.1457C15.8299 13.9833 15.7308 13.836 15.606 13.7122L9.87816 7.99771Z" fill="#484848"/>
</svg>
