<svg width="22" height="20" viewBox="0 0 22 20" fill="none" xmlns="http://www.w3.org/2000/svg">
<path fill-rule="evenodd" clip-rule="evenodd" d="M0.834641 0.292893C1.22517 -0.0976311 1.85833 -0.0976311 2.24885 0.292893L5.28915 3.33319C6.85072 2.483 8.64119 2 10.5422 2C15.4691 2 19.6371 5.23846 21.0384 9.70039C21.0997 9.89546 21.0997 10.1046 21.0384 10.2997C20.3857 12.3778 19.1342 14.1885 17.4869 15.531L20.2489 18.2929C20.6394 18.6834 20.6394 19.3166 20.2489 19.7071C19.8583 20.0976 19.2252 20.0976 18.8346 19.7071L0.834641 1.70711C0.444117 1.31658 0.444117 0.683418 0.834641 0.292893ZM6.77819 4.82223L8.50993 6.55397C9.10537 6.20229 9.80036 6 10.5417 6C12.7509 6 14.5417 7.79086 14.5417 10C14.5417 10.7414 14.3395 11.4364 13.9878 12.0318L16.0638 14.1078C17.4107 13.0598 18.4514 11.6379 19.0304 10C17.7946 6.50345 14.4595 4 10.5422 4C9.19724 4 7.92276 4.29444 6.77819 4.82223ZM12.4742 10.5182C12.5183 10.353 12.5417 10.1793 12.5417 10C12.5417 8.89543 11.6463 8 10.5417 8C10.3624 8 10.1887 8.02347 10.0235 8.06758L12.4742 10.5182ZM3.16663 6.17378C3.60702 6.50706 3.69386 7.13424 3.36058 7.57463C2.80799 8.30483 2.36457 9.12134 2.05402 9.99997C3.28974 13.4965 6.62486 16 10.5422 16C11.12 16 11.6843 15.9457 12.2303 15.8421C12.7729 15.7392 13.2962 16.0957 13.3991 16.6383C13.502 17.1809 13.1455 17.7042 12.6029 17.8071C11.9347 17.9338 11.2457 18 10.5422 18C5.61528 18 1.44734 14.7615 0.0459496 10.2996C-0.0153173 10.1045 -0.0153165 9.89538 0.0459517 9.70031C0.427863 8.48437 1.01485 7.36002 1.76578 6.36773C2.09906 5.92734 2.72624 5.8405 3.16663 6.17378Z" fill="#5A6D77" fill-opacity="0.7"/>
</svg>
