<svg width="24" height="24" viewBox="0 0 24 24" fill="none" xmlns="http://www.w3.org/2000/svg">
<path d="M4.5 16.95H6.1V15.375H17.9V16.95H19.5V12.55C19.5 12.25 19.3875 11.9292 19.1625 11.5875C18.9375 11.2458 18.65 10.9833 18.3 10.8V9.1C18.3 8.56667 18.1458 8.14583 17.8375 7.8375C17.5292 7.52917 17.1083 7.375 16.575 7.375H13.175C12.9083 7.375 12.675 7.41667 12.475 7.5C12.275 7.58333 12.1083 7.70833 11.975 7.875C11.8417 7.70833 11.675 7.58333 11.475 7.5C11.275 7.41667 11.0417 7.375 10.775 7.375H7.425C6.89167 7.375 6.47083 7.52917 6.1625 7.8375C5.85417 8.14583 5.7 8.56667 5.7 9.1V10.8C5.35 10.9833 5.0625 11.2458 4.8375 11.5875C4.6125 11.9292 4.5 12.25 4.5 12.55V16.95ZM6.1 14.125V13.075C6.1 12.7583 6.1875 12.5125 6.3625 12.3375C6.5375 12.1625 6.77961 12.075 7.08883 12.075H16.9112C17.2204 12.075 17.4625 12.1625 17.6375 12.3375C17.8125 12.5125 17.9 12.7583 17.9 13.075V14.125H6.1ZM6.95 10.825V8.625H11.375V10.825H6.95ZM12.625 10.825V8.625H17.05V10.825H12.625ZM3.5 22C3.1 22 2.75 21.85 2.45 21.55C2.15 21.25 2 20.9 2 20.5V3.5C2 3.1 2.15 2.75 2.45 2.45C2.75 2.15 3.1 2 3.5 2H20.5C20.9 2 21.25 2.15 21.55 2.45C21.85 2.75 22 3.1 22 3.5V20.5C22 20.9 21.85 21.25 21.55 21.55C21.25 21.85 20.9 22 20.5 22H3.5ZM3.5 20.5H20.5V3.5H3.5V20.5Z" fill="#00BF63"/>
</svg>
