<svg width="13" height="12" viewBox="0 0 13 12" fill="none" xmlns="http://www.w3.org/2000/svg">
<path d="M5.26452 0.719552C5.57615 -0.239535 6.933 -0.239535 7.24462 0.719552L8.00747 3.06735C8.14683 3.49627 8.54653 3.78666 8.99752 3.78666L11.4661 3.78667C12.4746 3.78667 12.8939 5.07711 12.078 5.66986L10.0809 7.12088C9.71601 7.38596 9.56334 7.85584 9.70271 8.28475L10.4656 10.6325C10.7772 11.5916 9.67946 12.3892 8.86361 11.7964L6.86646 10.3454C6.5016 10.0803 6.00754 10.0803 5.64269 10.3454L3.64553 11.7964C2.82968 12.3892 1.73197 11.5916 2.04359 10.6325L2.80644 8.28475C2.9458 7.85584 2.79313 7.38596 2.42827 7.12088L0.431115 5.66986C-0.384734 5.07711 0.0345569 3.78667 1.043 3.78667L3.51162 3.78666C3.96261 3.78666 4.36231 3.49627 4.50167 3.06735L5.26452 0.719552Z" fill="#FBBC04"/>
</svg>
