<svg width="262" height="247" viewBox="0 0 262 247" fill="none" xmlns="http://www.w3.org/2000/svg">
<path d="M219.017 97.7011C211.704 87.0617 194.648 84.9891 185.015 93.5946C184.915 89.2439 183.542 85.018 181.064 81.4402C178.587 77.8623 175.115 75.0896 171.078 73.4654C167.04 71.8411 162.615 71.4367 158.35 72.3022C154.085 73.1677 150.168 75.2651 147.083 78.3347C148.46 73.4986 143.386 68.7841 138.367 68.5243C133.349 68.2646 128.701 70.9617 124.395 73.5539C120.09 76.146 115.414 78.8155 110.396 78.4784C104.963 78.1136 100.447 74.3221 95.3733 72.36C82.9487 67.5571 67.2246 76.0797 64.4721 89.1122C50.7211 83.5853 33.0791 92.6494 29.6192 107.069L230.955 109.418C230.237 106.555 228.742 103.946 226.635 101.879C224.529 99.8112 221.892 98.3655 219.017 97.7011Z" fill="#F5F5F5"/>
<path d="M210.914 32.9086C211.262 30.3772 207.691 28.2936 205.005 28.078C203.729 27.9785 202.397 28.172 201.186 27.7519C198.561 26.8344 197.511 23.4409 194.952 22.3632C193.034 21.5507 190.829 22.2747 188.972 23.2088C187.115 24.1428 185.28 25.3201 183.202 25.4527C181.4 25.5688 179.438 24.9 177.863 25.7788C176.685 26.4365 176.066 27.7906 174.983 28.592C173.9 29.3934 172.54 29.5371 171.219 29.609C169.898 29.6808 168.544 29.6974 167.35 30.2446C166.156 30.7917 165.139 32.0629 165.41 33.3562L210.914 32.9086Z" fill="#FAFAFA"/>
<path d="M35.649 12.094C35.8425 10.6791 33.8528 9.5184 32.3329 9.40233C31.6333 9.42528 30.9335 9.36217 30.2492 9.21441C28.7846 8.70594 28.1987 6.81019 26.7673 6.20776C25.7006 5.76007 24.468 6.15801 23.4511 6.68307C22.4341 7.20813 21.3453 7.8382 20.1902 7.93216C19.1788 7.99848 18.0899 7.62265 17.2056 8.11455C16.5479 8.48486 16.2053 9.21994 15.6028 9.6842C14.971 10.0678 14.2414 10.2598 13.5026 10.2369C12.7647 10.2193 12.03 10.3393 11.336 10.5906C10.9887 10.7212 10.6931 10.961 10.4938 11.2739C10.2945 11.5869 10.2021 11.9561 10.2306 12.3261L35.649 12.094Z" fill="#FAFAFA"/>
<path d="M243.18 58.7137C243.578 55.8065 239.477 53.4134 236.393 53.1867C234.917 53.0652 233.392 53.2918 231.972 52.8054C228.954 51.7553 227.749 47.8311 224.787 46.6097C222.576 45.6812 220.05 46.5102 217.911 47.5824C215.772 48.6547 213.666 50.0088 211.279 50.1635C209.201 50.2962 206.951 49.5279 205.133 50.5393C203.784 51.2965 203.077 52.8551 201.817 53.7726C200.556 54.6901 199.003 54.878 197.495 54.9443C195.986 55.0106 194.411 55.0438 193.034 55.6739C191.658 56.3039 190.514 57.7631 190.824 59.2498L243.18 58.7137Z" fill="#EBEBEB"/>
<path d="M237.548 8.81634C237.83 6.76584 234.939 5.08565 232.767 4.90879C231.734 4.82588 230.656 4.98616 229.678 4.64349C227.55 3.90288 226.704 1.15599 224.632 0.282735C223.079 -0.369444 221.316 0.210884 219.796 0.968075C218.276 1.72527 216.806 2.6759 215.125 2.78091C213.666 2.87487 212.08 2.33323 210.803 3.04621C209.853 3.5989 209.355 4.70429 208.476 5.32331C207.569 5.88371 206.519 6.16971 205.453 6.14682C204.384 6.1235 203.32 6.29775 202.314 6.66083C201.347 7.10298 200.545 8.131 200.744 9.18111L237.548 8.81634Z" fill="#EBEBEB"/>
<path d="M43.9671 57.691C44.1771 56.1656 42.0271 54.9276 40.4133 54.7839C39.6397 54.8157 38.8652 54.7488 38.1085 54.5849C36.5278 54.0322 35.8977 51.9928 34.3557 51.3406C33.2006 50.8542 31.8741 51.2908 30.7577 51.8491C29.6412 52.4073 28.5469 53.1203 27.2868 53.2032C26.1814 53.2695 25.0207 52.8715 24.0701 53.4021C23.3571 53.7945 22.9647 54.6125 22.3346 55.0934C21.6542 55.512 20.8673 55.725 20.0686 55.7069C19.2742 55.6876 18.4831 55.8169 17.7362 56.0882C17.3649 56.2323 17.0502 56.4927 16.839 56.8303C16.6278 57.168 16.5315 57.565 16.5645 57.9619L43.9671 57.691Z" fill="#EBEBEB"/>
<path d="M100.784 34.3291C101.226 31.1124 96.683 28.465 93.2728 28.1886C91.6424 28.056 89.9567 28.3047 88.4091 27.7686C85.0929 26.6024 83.7333 22.2859 80.478 20.9152C78.0406 19.8872 75.2329 20.7991 72.8729 21.9874C70.5129 23.1757 68.175 24.6735 65.5331 24.8448C63.2394 24.9885 60.7468 24.1374 58.735 25.2593C57.2372 26.0939 56.4579 27.8183 55.0761 28.8408C53.6944 29.8633 51.9645 30.0457 50.2898 30.1341C48.6151 30.2225 46.8852 30.2447 45.3598 30.941C43.8343 31.6374 42.5742 33.2624 42.8892 34.9204L100.784 34.3291Z" fill="#F5F5F5"/>
<path d="M8.05844 149.831C8.05844 149.831 3.34948 150.5 6.03005 160.808C8.71062 171.115 10.9656 176.41 10.9656 176.41C10.9656 176.41 11.3249 178.748 9.44018 178.682C7.55549 178.616 3.71979 177.118 2.41543 179.174C1.11107 181.23 2.25515 183.822 5.22312 186.475C8.19109 189.128 14.4642 195.169 15.0279 195.721C15.5917 196.274 16.0062 197.379 14.7184 197.562C13.4306 197.744 4.27248 196.655 4.01272 201.038C3.75295 205.421 13.2482 211.451 14.2707 212.131C15.2932 212.811 15.4535 213.341 15.2269 213.938C15.0003 214.535 11.9494 213.888 9.32411 213.695C6.69881 213.502 3.63136 213.739 3.70874 216.282C3.78611 218.824 8.76589 225.23 23.2575 229.961L30.1165 231.713L35.1626 226.705C45.3211 215.337 46.4154 207.3 45.205 205.062C43.9946 202.824 41.2146 204.167 39.0425 205.648C36.8704 207.129 34.5546 209.218 34.0682 208.82C33.5819 208.422 33.4492 207.875 33.9909 206.775C34.5325 205.675 39.6947 195.721 37.307 192.035C34.9194 188.348 27.4856 193.881 26.2752 194.389C25.0648 194.898 24.8659 193.699 25.0759 192.952C25.2859 192.206 27.6846 183.811 28.9448 180.03C30.2049 176.25 29.9286 173.459 27.7067 172.293C25.4849 171.126 22.9978 174.426 21.4005 175.432C19.8032 176.438 18.9465 174.233 18.9465 174.233C18.9465 174.233 18.2059 168.518 15.3264 158.26C12.4468 148.002 7.9479 149.848 7.9479 149.848" fill="#EBEBEB"/>
<path d="M30.1109 233.415C28.0383 225.871 24.584 212.413 21.5497 200.85C18.5154 189.288 15.7685 178.853 13.7291 171.298C12.7121 167.528 11.8886 164.472 11.3138 162.355L10.6561 159.918L10.4903 159.288L10.4406 159.067C10.4406 159.067 10.4682 159.138 10.5124 159.282L10.7003 159.907C10.8606 160.459 11.0927 161.283 11.3967 162.328C11.9991 164.433 12.8448 167.484 13.8838 171.254C15.9564 178.798 18.731 189.244 21.7597 200.795C24.7885 212.346 28.2263 225.821 30.2491 233.376" fill="#E0E0E0"/>
<path d="M7.71039 181.495C7.86662 181.562 8.01645 181.643 8.15808 181.738C8.44548 181.904 8.84894 182.158 9.34637 182.473C10.3357 183.108 11.6787 184.015 13.1489 185.048L16.8962 187.701L18.0347 188.503C18.1823 188.59 18.3195 188.694 18.4437 188.812C18.284 188.751 18.1319 188.671 17.9905 188.575C17.7031 188.409 17.2996 188.155 16.8077 187.834C15.8239 187.187 14.4864 186.259 13.0218 185.231L9.24688 182.6L8.1415 181.81C7.98263 181.727 7.83727 181.621 7.71039 181.495Z" fill="#E0E0E0"/>
<path d="M19.013 188.475C18.9577 188.442 20.7153 185.585 22.9316 182.092C25.1479 178.599 26.9884 175.797 27.0381 175.857C27.0879 175.918 25.3358 178.743 23.1195 182.236C20.9032 185.729 19.0628 188.509 19.013 188.475Z" fill="#E0E0E0"/>
<path d="M22.865 206.416C22.9761 206.281 23.1022 206.158 23.2408 206.051L24.3075 205.117C25.2029 204.321 26.4409 203.222 27.7619 201.956C29.0828 200.69 30.2435 199.507 31.078 198.64L32.0673 197.617C32.1791 197.482 32.3072 197.362 32.4487 197.258C32.356 197.407 32.2486 197.545 32.1281 197.673C31.9126 197.932 31.5754 198.297 31.1941 198.745C30.3927 199.64 29.2486 200.845 27.9166 202.111C26.5846 203.376 25.3411 204.465 24.4125 205.228C23.9483 205.609 23.5669 205.913 23.3071 206.112C23.1735 206.232 23.0249 206.334 22.865 206.416Z" fill="#E0E0E0"/>
<path d="M11.2532 202.386C11.4136 202.404 11.5714 202.441 11.723 202.497L12.9776 202.884C14.0332 203.215 15.4924 203.691 17.0952 204.227C18.698 204.763 20.146 205.266 21.1962 205.636L22.4287 206.089C22.5836 206.135 22.7321 206.2 22.8708 206.283C22.7106 206.261 22.5531 206.222 22.401 206.167L21.1464 205.785C20.0852 205.448 18.6317 204.973 17.0233 204.437C15.415 203.901 13.9725 203.403 12.9279 203.028L11.6953 202.58C11.5416 202.531 11.3933 202.466 11.2532 202.386Z" fill="#E0E0E0"/>
<path d="M12.6402 218.63C12.8449 218.662 13.0464 218.712 13.2426 218.779L14.8509 219.266C16.2106 219.686 18.0787 220.283 20.1457 220.924C22.2128 221.565 24.0699 222.211 25.4129 222.67L27.0047 223.223C27.1956 223.283 27.3806 223.361 27.5574 223.455C27.352 223.426 27.1501 223.376 26.9549 223.306L25.3687 222.836C24.0091 222.416 22.141 221.819 20.0739 221.178C18.0068 220.537 16.1498 219.89 14.8067 219.431L13.215 218.879C13.0147 218.817 12.8219 218.734 12.6402 218.63Z" fill="#E0E0E0"/>
<path d="M27.2537 223.268C27.393 223.095 27.5485 222.936 27.7179 222.792L29.0278 221.554C30.1332 220.504 31.6476 219.056 33.2836 217.403C34.9195 215.751 36.3565 214.225 37.3901 213.109L38.6171 211.783C38.7597 211.614 38.9169 211.459 39.0869 211.318C38.966 211.502 38.8311 211.675 38.6834 211.838C38.4126 212.169 38.0091 212.639 37.5062 213.208C36.5002 214.353 35.0743 215.9 33.4383 217.553C31.8023 219.205 30.2493 220.626 29.1439 221.67C28.5912 222.173 28.1103 222.582 27.7843 222.859C27.6185 223.009 27.4411 223.145 27.2537 223.268Z" fill="#E0E0E0"/>
<path d="M225.986 233.973C214.529 227.634 210.223 213.523 208.891 200.496C208.67 198.319 208.139 196.075 208.847 194.036C209.554 191.996 211.61 190.393 213.561 191.056C215.17 191.609 216.076 193.383 217.126 194.815C218.494 196.697 220.368 198.152 222.532 199.01C223.919 199.562 225.571 199.767 226.743 198.844C228.351 197.567 228.208 194.975 227.909 192.809L226.218 180.776C225.914 178.621 225.61 176.421 225.964 174.293C226.318 172.165 227.445 170.071 229.28 169.236C231.115 168.402 233.652 169.236 234.337 171.303C234.534 172.185 234.674 173.079 234.757 173.978C234.934 174.863 235.454 175.797 236.283 175.94C237.112 176.084 237.847 175.388 238.361 174.647C240.151 172.182 241.185 169.186 242.125 166.218C243.064 163.25 243.965 160.222 245.535 157.591C247.104 154.96 249.459 152.716 252.316 152.147C255.174 151.578 258.512 153.053 259.645 155.96C260.778 158.868 259.546 162.206 258.07 164.914C255.912 168.894 253.192 172.542 249.995 175.747C249.352 176.264 248.888 176.969 248.668 177.764C248.425 179.256 249.89 180.528 251.283 180.798C252.852 181.125 254.461 180.732 256.058 180.716C257.655 180.699 259.457 181.202 260.264 182.711C261.369 184.794 259.977 187.342 258.484 189.089C255.531 192.561 251.985 195.482 248.011 197.716C246.607 198.501 245.115 199.225 244.07 200.48C243.025 201.735 242.561 203.796 243.49 205.211C244.418 206.626 246.336 206.869 247.845 206.316C249.354 205.764 250.608 204.702 252.023 203.901C254.638 202.403 258.241 202.116 260.358 204.426C261.751 205.946 262.171 208.295 261.85 210.362C261.45 212.409 260.656 214.36 259.512 216.105C255.826 222.284 250.747 227.551 244.645 230.817C238.543 234.084 232.679 235.548 225.964 233.929" fill="#F5F5F5"/>
<path d="M228.025 225.412C229.083 218.081 230.541 210.814 232.392 203.642C232.872 201.74 233.348 199.856 233.812 198.004C234.276 196.153 234.746 194.318 235.31 192.555C236.387 189.183 237.644 185.871 239.074 182.634C240.417 179.544 241.798 176.665 243.108 173.984C244.418 171.303 245.689 168.827 246.938 166.628C248.885 163.16 251.102 159.852 253.571 156.734C254.433 155.629 255.129 154.811 255.61 154.258L256.163 153.634C256.223 153.56 256.29 153.491 256.362 153.429C256.313 153.511 256.257 153.588 256.196 153.661L255.671 154.314C255.212 154.866 254.533 155.729 253.687 156.839C251.277 159.99 249.105 163.316 247.187 166.788C245.955 168.999 244.706 171.469 243.401 174.15C242.097 176.83 240.715 179.727 239.389 182.799C237.972 186.027 236.726 189.328 235.658 192.687C235.105 194.445 234.641 196.263 234.171 198.115C233.701 199.966 233.232 201.851 232.751 203.752C230.906 210.908 229.441 218.157 228.362 225.468" fill="#E0E0E0"/>
<path d="M235.415 192.527C235.276 192.243 235.168 191.944 235.094 191.637C234.906 191.057 234.663 190.206 234.376 189.15C233.823 187.044 233.104 184.109 232.347 180.86C231.59 177.61 230.849 174.703 230.247 172.613C229.949 171.569 229.694 170.723 229.523 170.143C229.414 169.845 229.332 169.538 229.28 169.225C229.439 169.498 229.566 169.79 229.656 170.093C229.877 170.646 230.17 171.491 230.496 172.53C231.164 174.609 231.949 177.505 232.706 180.771C233.464 184.038 234.121 186.851 234.63 189.062C234.868 190.062 235.072 190.902 235.232 191.576C235.323 191.887 235.384 192.205 235.415 192.527Z" fill="#E0E0E0"/>
<path d="M260.618 183.777C260.289 183.904 259.948 183.996 259.601 184.054C258.943 184.208 257.992 184.43 256.837 184.739C254.505 185.342 251.31 186.292 247.823 187.503C244.335 188.713 241.24 189.973 239.018 190.951C237.913 191.427 237.018 191.841 236.399 192.123C236.087 192.286 235.761 192.421 235.426 192.527C235.709 192.31 236.015 192.124 236.338 191.974C236.935 191.648 237.813 191.195 238.913 190.681C241.781 189.342 244.716 188.152 247.707 187.116C250.679 186.061 253.706 185.172 256.776 184.452C257.954 184.181 258.915 184.004 259.584 183.899C259.924 183.824 260.27 183.783 260.618 183.777Z" fill="#E0E0E0"/>
<path d="M228.274 224.854C228.274 224.854 228.186 224.754 228.047 224.544L227.495 223.599C226.997 222.781 226.301 221.576 225.466 220.079C223.808 217.077 221.597 212.855 219.232 208.168C216.866 203.481 214.711 199.236 213.097 196.202L211.174 192.621L210.654 191.637C210.584 191.527 210.53 191.408 210.494 191.283C210.583 191.378 210.659 191.484 210.72 191.598L211.273 192.538C211.77 193.356 212.467 194.561 213.301 196.064C214.96 199.065 217.17 203.282 219.536 207.975C221.901 212.667 224.057 216.901 225.671 219.935L227.594 223.522L228.114 224.495C228.182 224.607 228.236 224.728 228.274 224.854Z" fill="#E0E0E0"/>
<path d="M261.093 208.251C260.996 208.332 260.888 208.399 260.772 208.45L259.822 208.942L256.301 210.727C253.333 212.236 249.26 214.369 244.761 216.735C240.262 219.1 236.166 221.195 233.154 222.637C231.656 223.361 230.44 223.931 229.589 224.296L228.611 224.721C228.384 224.815 228.263 224.859 228.257 224.843C228.355 224.765 228.463 224.7 228.578 224.649L229.528 224.152L233.044 222.367C236.006 220.858 240.085 218.724 244.584 216.359C249.083 213.993 253.178 211.899 256.19 210.456C257.688 209.738 258.91 209.163 259.761 208.798L260.739 208.372C260.851 208.315 260.97 208.274 261.093 208.251Z" fill="#E0E0E0"/>
<path d="M260.573 246.795C260.573 246.878 202.236 246.945 130.292 246.945C58.3479 246.945 0 246.878 0 246.795C0 246.712 58.3258 246.652 130.292 246.652C202.259 246.652 260.573 246.718 260.573 246.795Z" fill="#263238"/>
<path d="M226.649 104.223H31.7851C27.3377 104.223 23.7324 107.828 23.7324 112.276V235.681C23.7324 240.129 27.3377 243.734 31.7851 243.734H226.649C231.096 243.734 234.701 240.129 234.701 235.681V112.276C234.701 107.828 231.096 104.223 226.649 104.223Z" fill="#455A64"/>
<path d="M15.4863 234.725H244.059V237.3C244.059 239.854 243.044 242.303 241.239 244.108C239.433 245.914 236.984 246.928 234.431 246.928H25.1142C22.5607 246.928 20.1118 245.914 18.3063 244.108C16.5007 242.303 15.4863 239.854 15.4863 237.3V234.725Z" fill="#455A64"/>
<path d="M228.445 109.766H29.392V227.584H228.445V109.766Z" fill="#263238"/>
<path d="M108.416 233.42L111.257 237.93H151.167L153.798 233.42H108.416Z" fill="#263238"/>
<path d="M222.951 113.757H35.3005C34.3023 113.757 33.4931 114.566 33.4931 115.564V225.401C33.4931 226.399 34.3023 227.208 35.3005 227.208H222.951C223.949 227.208 224.759 226.399 224.759 225.401V115.564C224.759 114.566 223.949 113.757 222.951 113.757Z" fill="#EBEBEB"/>
<path d="M224.554 227.374H33.2887L33.4932 122.235H224.554V227.374Z" fill="#FAFAFA"/>
<path d="M49.1785 118.14C49.1774 118.441 49.0871 118.736 48.9188 118.986C48.7505 119.236 48.5119 119.431 48.233 119.545C47.9542 119.66 47.6477 119.689 47.3521 119.63C47.0566 119.57 46.7853 119.425 46.5725 119.211C46.3597 118.998 46.215 118.726 46.1566 118.43C46.0982 118.134 46.1287 117.828 46.2443 117.549C46.3599 117.271 46.5555 117.033 46.8062 116.866C47.0569 116.698 47.3516 116.609 47.6531 116.609C47.8539 116.609 48.0527 116.649 48.2381 116.726C48.4236 116.803 48.592 116.915 48.7337 117.058C48.8754 117.2 48.9877 117.369 49.064 117.554C49.1403 117.74 49.1793 117.939 49.1785 118.14Z" fill="#263238"/>
<path d="M39.9211 118.14C39.9211 118.443 39.8312 118.739 39.6627 118.991C39.4943 119.243 39.2548 119.439 38.9748 119.555C38.6947 119.671 38.3866 119.701 38.0895 119.641C37.7923 119.582 37.5196 119.435 37.3057 119.221C37.0918 119.006 36.9464 118.733 36.888 118.435C36.8295 118.138 36.8606 117.83 36.9773 117.55C37.0941 117.271 37.2912 117.032 37.5436 116.864C37.7961 116.697 38.0927 116.608 38.3957 116.609C38.5965 116.609 38.7953 116.649 38.9807 116.726C39.1662 116.803 39.3346 116.915 39.4763 117.058C39.618 117.2 39.7303 117.369 39.8066 117.554C39.883 117.74 39.9219 117.939 39.9211 118.14Z" fill="#263238"/>
<path d="M44.3645 118.14C44.3634 118.441 44.273 118.736 44.1048 118.986C43.9365 119.236 43.6979 119.431 43.419 119.545C43.1402 119.66 42.8337 119.689 42.5381 119.63C42.2426 119.57 41.9713 119.425 41.7585 119.211C41.5457 118.998 41.401 118.726 41.3426 118.43C41.2842 118.134 41.3147 117.828 41.4303 117.549C41.5459 117.271 41.7414 117.033 41.9922 116.866C42.2429 116.698 42.5376 116.609 42.8391 116.609C43.0399 116.609 43.2387 116.649 43.4241 116.726C43.6096 116.803 43.778 116.915 43.9197 117.058C44.0614 117.2 44.1737 117.369 44.25 117.554C44.3263 117.74 44.3652 117.939 44.3645 118.14Z" fill="#263238"/>
<path d="M232.889 233.421C232.889 233.493 186.064 233.553 128.313 233.553C70.5622 233.553 23.7324 233.493 23.7324 233.421C23.7324 233.349 70.5456 233.282 128.313 233.282C186.081 233.282 232.889 233.338 232.889 233.421Z" fill="#263238"/>
<path d="M204.408 167.501C201.743 169.799 199.765 172.788 198.692 176.139C197.619 179.491 197.493 183.073 198.329 186.492C195.836 186 193.261 186.128 190.83 186.864C188.399 187.6 186.185 188.922 184.384 190.714C182.583 192.506 181.25 194.712 180.501 197.14C179.752 199.567 179.611 202.142 180.09 204.636C174.613 200.867 166.239 202.276 162.299 207.638C162.216 204.1 162.078 200.37 160.221 197.358C158.363 194.345 154.141 192.488 151.162 194.401C152.291 193.114 152.977 191.499 153.118 189.793C153.26 188.087 152.85 186.381 151.948 184.926C151.047 183.471 149.702 182.344 148.111 181.712C146.521 181.079 144.769 180.974 143.115 181.412C143.032 177.168 140.351 147.112 138.14 121.754H119.26C117.05 146.67 114.524 175.288 114.441 179.428C112.782 178.98 111.023 179.08 109.425 179.712C107.827 180.345 106.476 181.476 105.573 182.937C104.669 184.399 104.262 186.113 104.411 187.825C104.56 189.537 105.257 191.155 106.399 192.439C103.42 190.526 99.2141 192.389 97.3405 195.395C95.4668 198.402 95.3397 202.138 95.2568 205.676C91.3161 200.32 82.9483 198.905 77.4656 202.674C77.9444 200.18 77.8033 197.605 77.0545 195.178C76.3057 192.75 74.9723 190.543 73.1713 188.752C71.3703 186.96 69.1569 185.638 66.7255 184.902C64.2941 184.166 61.719 184.038 59.2267 184.529C60.1122 181.111 60.0094 177.512 58.93 174.15C57.8507 170.787 55.8392 167.801 53.1293 165.537C50.4195 163.273 47.1228 161.824 43.6223 161.36C40.1218 160.896 36.5614 161.434 33.355 162.914V227.319H224.2V164.865C220.98 163.434 217.426 162.923 213.932 163.388C210.439 163.853 207.142 165.277 204.408 167.501Z" fill="#0075C3"/>
<g opacity="0.8">
<path d="M204.408 167.501C201.743 169.799 199.765 172.788 198.692 176.139C197.619 179.491 197.493 183.073 198.329 186.492C195.836 186 193.261 186.128 190.83 186.864C188.399 187.6 186.185 188.922 184.384 190.714C182.583 192.506 181.25 194.712 180.501 197.14C179.752 199.567 179.611 202.142 180.09 204.636C174.613 200.867 166.239 202.276 162.299 207.638C162.216 204.1 162.078 200.37 160.221 197.358C158.363 194.345 154.141 192.488 151.162 194.401C152.291 193.114 152.977 191.499 153.118 189.793C153.26 188.087 152.85 186.381 151.948 184.926C151.047 183.471 149.702 182.344 148.111 181.712C146.521 181.079 144.769 180.974 143.115 181.412C143.032 177.168 140.351 147.112 138.14 121.754H119.26C117.05 146.67 114.524 175.288 114.441 179.428C112.782 178.98 111.023 179.08 109.425 179.712C107.827 180.345 106.476 181.476 105.573 182.937C104.669 184.399 104.262 186.113 104.411 187.825C104.56 189.537 105.257 191.155 106.399 192.439C103.42 190.526 99.2141 192.389 97.3405 195.395C95.4668 198.402 95.3397 202.138 95.2568 205.676C91.3161 200.32 82.9483 198.905 77.4656 202.674C77.9444 200.18 77.8033 197.605 77.0545 195.178C76.3057 192.75 74.9723 190.543 73.1713 188.752C71.3703 186.96 69.1569 185.638 66.7255 184.902C64.2941 184.166 61.719 184.038 59.2267 184.529C60.1122 181.111 60.0094 177.512 58.93 174.15C57.8507 170.787 55.8392 167.801 53.1293 165.537C50.4195 163.273 47.1228 161.824 43.6223 161.36C40.1218 160.896 36.5614 161.434 33.355 162.914V227.319H224.2V164.865C220.98 163.434 217.426 162.923 213.932 163.388C210.439 163.853 207.142 165.277 204.408 167.501Z" fill="white"/>
</g>
<path d="M203.242 214.458C199.817 212.157 195.957 210.584 191.899 209.835C187.842 209.086 183.674 209.177 179.653 210.104C175.633 211.03 171.845 212.771 168.524 215.22C165.203 217.669 162.421 220.773 160.347 224.34C158.669 222.072 156.475 220.234 153.947 218.979C154.126 218.502 154.276 218.015 154.395 217.52C154.884 215.402 154.824 213.195 154.222 211.107C153.62 209.019 152.494 207.119 150.952 205.588C149.41 204.056 147.503 202.944 145.411 202.356C143.319 201.768 141.111 201.723 138.997 202.227L133.348 121.754H125.942V195.755C121.355 196.457 118.155 201.89 119.774 206.256C118.176 206.505 116.662 207.137 115.363 208.1C114.063 209.063 113.016 210.327 112.313 211.783C111.871 212.733 111.804 214.745 112.186 217.022C109.39 217.073 106.642 217.761 104.152 219.034C101.662 220.307 99.4946 222.131 97.8156 224.368C95.7425 220.8 92.9595 217.696 89.6389 215.248C86.3182 212.799 82.5304 211.058 78.5098 210.131C74.4892 209.205 70.3213 209.114 66.2639 209.862C62.2065 210.611 58.3459 212.185 54.921 214.486C52.981 205.09 42.4743 198.413 33.1448 200.668V227.49L119.249 227.38C119.84 227.549 120.452 227.634 121.067 227.634L142.114 227.385L225.057 227.49V200.618C215.705 198.386 205.199 205.062 203.242 214.458Z" fill="#0075C3"/>
<g opacity="0.6">
<path d="M203.242 214.458C199.817 212.157 195.957 210.584 191.899 209.835C187.842 209.086 183.674 209.177 179.653 210.104C175.633 211.03 171.845 212.771 168.524 215.22C165.203 217.669 162.421 220.773 160.347 224.34C158.669 222.072 156.475 220.234 153.947 218.979C154.126 218.502 154.276 218.015 154.395 217.52C154.884 215.402 154.824 213.195 154.222 211.107C153.62 209.019 152.494 207.119 150.952 205.588C149.41 204.056 147.503 202.944 145.411 202.356C143.319 201.768 141.111 201.723 138.997 202.227L133.348 121.754H125.942V195.755C121.355 196.457 118.155 201.89 119.774 206.256C118.176 206.505 116.662 207.137 115.363 208.1C114.063 209.063 113.016 210.327 112.313 211.783C111.871 212.733 111.804 214.745 112.186 217.022C109.39 217.073 106.642 217.761 104.152 219.034C101.662 220.307 99.4946 222.131 97.8156 224.368C95.7425 220.8 92.9595 217.696 89.6389 215.248C86.3182 212.799 82.5304 211.058 78.5098 210.131C74.4892 209.205 70.3213 209.114 66.2639 209.862C62.2065 210.611 58.3459 212.185 54.921 214.486C52.981 205.09 42.4743 198.413 33.1448 200.668V227.49L119.249 227.38C119.84 227.549 120.452 227.634 121.067 227.634L142.114 227.385L225.057 227.49V200.618C215.705 198.386 205.199 205.062 203.242 214.458Z" fill="white"/>
</g>
<path d="M121.582 96.5619C117.337 98.5792 115.414 104.394 117.624 108.544C118.498 110.202 119.923 111.623 120.111 113.469C120.399 116.299 117.724 118.509 116.895 121.207C116.474 122.823 116.695 124.54 117.511 125.997C118.327 127.455 119.674 128.54 121.272 129.027C122.726 129.409 124.467 129.342 125.439 130.486C126.683 131.945 125.782 134.355 126.849 135.963C127.805 137.406 130.043 137.478 131.486 136.516C132.928 135.554 133.724 133.891 134.294 132.255C134.863 130.619 135.288 128.9 136.272 127.474C137.378 125.91 139.008 124.838 140.323 123.462C143.485 120.145 144.452 115.171 143.739 110.634C143.026 106.096 140.832 101.945 138.35 98.0929" fill="#0075C3"/>
<g opacity="0.3">
<path d="M121.582 96.5619C117.337 98.5792 115.414 104.394 117.624 108.544C118.498 110.202 119.923 111.623 120.111 113.469C120.399 116.299 117.724 118.509 116.895 121.207C116.474 122.823 116.695 124.54 117.511 125.997C118.327 127.455 119.674 128.54 121.272 129.027C122.726 129.409 124.467 129.342 125.439 130.486C126.683 131.945 125.782 134.355 126.849 135.963C127.805 137.406 130.043 137.478 131.486 136.516C132.928 135.554 133.724 133.891 134.294 132.255C134.863 130.619 135.288 128.9 136.272 127.474C137.378 125.91 139.008 124.838 140.323 123.462C143.485 120.145 144.452 115.171 143.739 110.634C143.026 106.096 140.832 101.945 138.35 98.0929" fill="white"/>
</g>
<path d="M125.312 98.9501C121.714 100.536 120.139 105.527 122.173 108.899C123.416 110.955 125.826 112.812 125.24 115.139C124.842 116.719 123.151 117.686 122.665 119.239C122.018 121.307 123.975 123.501 126.13 123.761C128.286 124.02 130.364 122.871 131.994 121.439C137.637 116.465 139.013 106.738 135.493 100.1" fill="#0075C3"/>
<path d="M143.861 67.3136C143.861 67.3136 162.343 79.5392 160.325 100.691L143.336 93.0636L143.861 67.3136Z" fill="#0075C3"/>
<path d="M113.153 92.6379L117.354 99.5963H139.135L143.336 93.0358L113.153 92.6379Z" fill="#263238"/>
<path d="M127.114 22.4294C122.969 22.7072 119.091 24.5714 116.285 27.6346C113.479 30.6978 111.962 34.7244 112.048 38.8776L113.153 93.0416H143.336L144.342 38.85C144.384 36.6127 143.961 34.3909 143.1 32.3257C142.238 30.2604 140.957 28.3968 139.337 26.8529C137.717 25.309 135.795 24.1185 133.69 23.357C131.586 22.5956 129.347 22.2797 127.114 22.4294Z" fill="#0075C3"/>
<g opacity="0.8">
<path d="M127.114 22.4294C122.969 22.7072 119.091 24.5714 116.285 27.6346C113.479 30.6978 111.962 34.7244 112.048 38.8776L113.153 93.0416H143.336L144.342 38.85C144.384 36.6127 143.961 34.3909 143.1 32.3257C142.238 30.2604 140.957 28.3968 139.337 26.8529C137.717 25.309 135.795 24.1185 133.69 23.357C131.586 22.5956 129.347 22.2797 127.114 22.4294Z" fill="white"/>
</g>
<path d="M112.6 67.3136C112.6 67.3136 94.1401 79.5392 96.163 100.691L113.153 93.0526L112.6 67.3136Z" fill="#0075C3"/>
<path d="M112.213 37.0812C118.597 31.4935 138.632 31.6151 144.01 36.1637C142.628 16.0567 127.274 8.52903 127.274 8.52903C111.567 19.4061 112.213 37.0812 112.213 37.0812Z" fill="#0075C3"/>
<path d="M127.274 8.53465L127.457 8.70046C127.573 8.811 127.75 8.97128 127.971 9.18683L128.811 9.98271L129.364 10.4912L129.916 11.1102C130.314 11.5468 130.767 12.0277 131.248 12.5693L132.718 14.4043C132.967 14.7414 133.216 15.1062 133.476 15.471C133.735 15.8357 134.028 16.2116 134.26 16.6261C134.752 17.4441 135.3 18.2842 135.769 19.2514C136.847 21.3071 137.684 23.4808 138.262 25.729C138.588 26.9789 138.83 28.2493 138.986 29.5315C139.08 30.1947 139.13 30.869 139.224 31.5378C139.284 32.2325 139.308 32.9298 139.296 33.627C139.296 39.2368 139.224 45.4049 139.152 51.8659C138.997 64.821 138.815 76.5437 138.676 85.0276C138.605 89.2667 138.544 92.699 138.5 95.0755C138.5 96.2583 138.455 97.1813 138.444 97.839C138.444 98.1485 138.444 98.3917 138.444 98.5465C138.444 98.7012 138.444 98.7896 138.444 98.7896C138.444 98.7896 138.444 98.7067 138.444 98.5465C138.444 98.3862 138.444 98.1485 138.444 97.839C138.444 97.2089 138.444 96.2859 138.472 95.0755C138.5 92.699 138.544 89.2667 138.594 85.0276C138.704 76.5326 138.853 64.81 139.025 51.8659C139.097 45.3883 139.179 39.2202 139.179 33.627C139.195 32.9371 139.171 32.247 139.108 31.5599C139.019 30.8801 138.969 30.2113 138.881 29.5536C138.727 28.2751 138.487 27.0085 138.162 25.7621C137.592 23.5235 136.767 21.3575 135.703 19.3067C135.206 18.3394 134.658 17.4994 134.155 16.6814C133.912 16.2668 133.603 15.9021 133.376 15.5262C133.15 15.1504 132.879 14.7967 132.63 14.4595L131.171 12.6191C130.696 12.0664 130.248 11.5966 129.85 11.1544L129.297 10.5299L128.772 10.0159L127.943 9.20894L127.44 8.71151L127.274 8.53465Z" fill="#263238"/>
<path d="M134.333 50.7779C135.282 46.4798 132.813 42.2806 128.819 41.3988C124.825 40.517 120.818 43.2865 119.869 47.5846C118.92 51.8827 121.389 56.0819 125.383 56.9637C129.377 57.8455 133.384 55.0761 134.333 50.7779Z" fill="#FAFAFA"/>
<path d="M128.816 41.398C128.774 41.4041 128.731 41.4041 128.689 41.398L128.33 41.3483L128.065 41.304H127.738H127.363C127.224 41.304 127.081 41.304 126.931 41.304C126.595 41.325 126.261 41.3693 125.931 41.4367C125.539 41.5199 125.154 41.6364 124.782 41.7849C123.872 42.148 123.039 42.6807 122.328 43.3545C121.466 44.168 120.792 45.1602 120.354 46.2617C120.232 46.5622 120.131 46.8706 120.05 47.1847C120.012 47.345 119.962 47.5053 119.923 47.6656L119.84 48.163L119.796 48.4172V48.6715C119.796 48.8428 119.769 49.0197 119.758 49.191C119.746 49.3623 119.758 49.5392 119.758 49.716V49.9813L119.785 50.2522C119.931 51.7538 120.507 53.1815 121.443 54.3642C122.43 55.6496 123.838 56.546 125.42 56.8957C127.002 57.2455 128.657 57.0262 130.093 56.2765C131.434 55.5893 132.55 54.5325 133.31 53.2312L133.448 53.0046L133.564 52.7614L133.796 52.2916L133.978 51.8052L134.067 51.562L134.139 51.3133L134.271 50.827C134.31 50.6667 134.327 50.5009 134.36 50.3406C134.415 50.0206 134.452 49.6977 134.47 49.3734C134.544 48.1898 134.355 47.0046 133.918 45.9025C133.412 44.6125 132.561 43.4863 131.458 42.6471C131.186 42.4448 130.902 42.2602 130.607 42.0944C130.469 42.0281 130.347 41.9507 130.226 41.8954L129.877 41.7517L129.573 41.6301L129.319 41.5528L128.965 41.4477C128.925 41.4374 128.886 41.4226 128.849 41.4035H128.971L129.325 41.492L129.59 41.5638L129.894 41.6799L130.248 41.818L130.635 42.0115C130.937 42.1766 131.229 42.3612 131.508 42.5642C131.831 42.8087 132.136 43.0765 132.42 43.3656C133.107 44.0789 133.651 44.9176 134.023 45.8361C134.479 46.951 134.681 48.1539 134.614 49.3568C134.601 49.6867 134.565 50.0153 134.509 50.3406C134.476 50.5064 134.459 50.6722 134.421 50.838C134.382 51.0038 134.332 51.1696 134.282 51.3354L134.216 51.5842L134.128 51.8273L133.94 52.3248L133.708 52.8056L133.591 53.0543L133.448 53.2865C132.681 54.6165 131.544 55.6955 130.176 56.3926C128.708 57.1627 127.016 57.3892 125.398 57.0322C123.78 56.6752 122.34 55.7576 121.333 54.4416C120.387 53.2304 119.811 51.7718 119.675 50.2411V49.9703V49.6995C119.675 49.5226 119.675 49.3402 119.675 49.1468C119.675 48.9533 119.675 48.793 119.719 48.5941V48.3343L119.758 48.0745C119.791 47.9087 119.818 47.7374 119.846 47.5716C119.874 47.4058 119.934 47.2455 119.979 47.0797C120.06 46.761 120.166 46.4487 120.294 46.1456C120.739 45.026 121.428 44.0196 122.311 43.1998C123.036 42.5232 123.884 41.9922 124.809 41.6357C125.188 41.4887 125.578 41.3741 125.975 41.293C126.309 41.2291 126.647 41.1885 126.987 41.1714C127.142 41.1714 127.285 41.1714 127.423 41.1714H127.805H128.131L128.396 41.2211L128.755 41.2875L128.816 41.398Z" fill="#263238"/>
<path d="M119.465 47.9862C119.465 48.0801 117.763 48.0359 115.712 48.4062C113.662 48.7765 112.081 49.3956 112.048 49.3071C112.352 49.0859 112.692 48.9194 113.054 48.8152C114.746 48.1801 116.541 47.8617 118.348 47.8757C118.724 47.8516 119.101 47.8889 119.465 47.9862Z" fill="#263238"/>
<path d="M143.866 47.975C143.41 47.978 142.954 47.9354 142.507 47.8479C141.677 47.7484 140.528 47.6158 139.257 47.5218C137.985 47.4279 136.83 47.4057 135.99 47.3892C135.536 47.4134 135.081 47.3931 134.631 47.3284C135.073 47.2136 135.528 47.1615 135.985 47.1736C137.09 47.1235 138.197 47.1382 139.301 47.2178C140.395 47.2939 141.484 47.4323 142.562 47.6323C143.009 47.6921 143.447 47.8072 143.866 47.975Z" fill="#263238"/>
<path d="M144.032 78.97C143.926 78.9845 143.818 78.9845 143.711 78.97L142.799 78.8981L139.445 78.6439C136.615 78.4449 132.696 78.2515 128.391 78.257C124.085 78.2625 120.145 78.4615 117.309 78.666L113.96 78.9313L113.048 78.9976C112.942 79.0132 112.834 79.0132 112.727 78.9976C112.829 78.9617 112.935 78.9394 113.042 78.9313L113.949 78.8042C114.734 78.6992 115.878 78.572 117.265 78.4449C120.095 78.1796 124.024 77.9475 128.363 77.942C132.702 77.9364 136.654 78.1631 139.456 78.4228C140.876 78.5499 142.015 78.6715 142.805 78.7765L143.711 78.8981C143.821 78.9075 143.929 78.9317 144.032 78.97Z" fill="#263238"/>
<path d="M120.266 55.7513C120.266 55.7955 120.078 55.8121 119.951 56.0276C119.914 56.0831 119.89 56.1459 119.879 56.2117C119.869 56.2775 119.872 56.3448 119.89 56.409C119.918 56.477 119.966 56.5352 120.027 56.5765C120.088 56.6177 120.159 56.6402 120.233 56.6411C120.307 56.6523 120.382 56.6414 120.45 56.61C120.518 56.5785 120.575 56.5279 120.614 56.4643C120.642 56.4035 120.656 56.3375 120.656 56.2708C120.656 56.2041 120.642 56.1382 120.614 56.0774C120.52 55.8452 120.338 55.801 120.349 55.7568C120.36 55.7126 120.603 55.6739 120.808 55.9724C120.865 56.0615 120.901 56.1629 120.913 56.2685C120.925 56.374 120.911 56.4808 120.874 56.5803C120.818 56.7042 120.724 56.807 120.606 56.8737C120.488 56.9403 120.351 56.9673 120.216 56.9506C120.1 56.9445 119.988 56.9057 119.893 56.8387C119.798 56.7717 119.723 56.6792 119.678 56.5719C119.633 56.4645 119.619 56.3467 119.638 56.2319C119.657 56.117 119.708 56.0098 119.785 55.9226C120.028 55.6297 120.288 55.7126 120.266 55.7513Z" fill="#263238"/>
<path d="M126.843 59.2941C126.843 59.3438 126.655 59.3604 126.528 59.576C126.492 59.6309 126.468 59.6927 126.458 59.7574C126.447 59.8222 126.451 59.8884 126.467 59.9518C126.494 60.0212 126.541 60.081 126.602 60.1234C126.663 60.1658 126.736 60.1888 126.81 60.1894C126.884 60.1993 126.96 60.1873 127.028 60.1549C127.095 60.1226 127.152 60.0712 127.191 60.0071C127.217 59.9468 127.231 59.882 127.231 59.8164C127.231 59.7508 127.217 59.6859 127.191 59.6257C127.092 59.3936 126.909 59.3493 126.921 59.3051C126.932 59.2609 127.175 59.2222 127.379 59.5207C127.437 59.6088 127.473 59.7093 127.485 59.814C127.496 59.9186 127.483 60.0246 127.446 60.1231C127.39 60.2475 127.296 60.351 127.178 60.4186C127.06 60.4861 126.923 60.5143 126.788 60.499C126.666 60.4974 126.548 60.4601 126.447 60.3917C126.347 60.3232 126.268 60.2266 126.222 60.114C126.176 60.0014 126.165 59.8777 126.189 59.7584C126.212 59.6391 126.271 59.5295 126.357 59.4433C126.605 59.178 126.865 59.2388 126.843 59.2941Z" fill="#263238"/>
<path d="M134.1 56.2706C134.1 56.3204 133.918 56.337 133.785 56.5525C133.749 56.6074 133.725 56.6693 133.715 56.734C133.704 56.7987 133.708 56.8649 133.724 56.9283C133.753 56.9974 133.801 57.0566 133.863 57.0988C133.925 57.1409 133.998 57.1643 134.072 57.166C134.146 57.177 134.222 57.1654 134.289 57.1329C134.356 57.1003 134.411 57.0483 134.448 56.9836C134.474 56.9234 134.488 56.8585 134.488 56.7929C134.488 56.7274 134.474 56.6625 134.448 56.6023C134.354 56.3701 134.166 56.3259 134.177 56.2762C134.189 56.2264 134.432 56.1988 134.636 56.4972C134.696 56.5843 134.734 56.6847 134.746 56.7896C134.759 56.8945 134.746 57.001 134.708 57.0997C134.65 57.2234 134.555 57.3261 134.436 57.3935C134.318 57.4608 134.181 57.4895 134.045 57.4755C133.909 57.4699 133.779 57.4214 133.673 57.3369C133.566 57.2525 133.49 57.1365 133.453 57.0057C133.432 56.9024 133.435 56.7953 133.463 56.6934C133.49 56.5915 133.542 56.4977 133.614 56.4199C133.862 56.1546 134.122 56.2375 134.1 56.2706Z" fill="#263238"/>
<path d="M136.46 50.8489C136.46 50.8931 136.272 50.9097 136.14 51.1253C136.105 51.1816 136.082 51.2445 136.072 51.3102C136.063 51.3758 136.067 51.4427 136.084 51.5066C136.111 51.5761 136.158 51.6359 136.219 51.6783C136.28 51.7207 136.353 51.7437 136.427 51.7443C136.501 51.7538 136.575 51.7415 136.642 51.7091C136.709 51.6767 136.765 51.6256 136.803 51.5619C136.829 51.5017 136.842 51.4368 136.842 51.3712C136.842 51.3056 136.829 51.2408 136.803 51.1805C136.709 50.9484 136.526 50.8987 136.532 50.8545C136.537 50.8102 136.786 50.7771 136.996 51.0755C137.054 51.1635 137.091 51.264 137.102 51.3687C137.114 51.4735 137.1 51.5795 137.063 51.678C137.006 51.8013 136.912 51.9036 136.794 51.9702C136.676 52.0367 136.54 52.0641 136.405 52.0483C136.269 52.043 136.137 51.9946 136.03 51.9103C135.923 51.8259 135.845 51.7098 135.808 51.5785C135.787 51.4751 135.79 51.3681 135.818 51.2663C135.846 51.1645 135.897 51.0707 135.968 50.9926C136.217 50.7329 136.477 50.8158 136.46 50.8489Z" fill="#263238"/>
<path d="M117.867 50.3236C117.867 50.3678 117.679 50.3844 117.552 50.6C117.517 50.656 117.493 50.7188 117.482 50.7844C117.472 50.8499 117.475 50.917 117.492 50.9813C117.519 51.0504 117.566 51.1098 117.627 51.1521C117.688 51.1943 117.76 51.2176 117.834 51.219C117.908 51.2275 117.984 51.2149 118.051 51.1826C118.119 51.1504 118.176 51.0998 118.216 51.0366C118.243 50.9768 118.257 50.9117 118.257 50.8459C118.257 50.7801 118.243 50.7151 118.216 50.6552C118.122 50.4231 117.939 50.3734 117.95 50.3292C117.961 50.2849 118.204 50.2518 118.409 50.5502C118.467 50.6382 118.503 50.7387 118.515 50.8434C118.527 50.9482 118.513 51.0542 118.475 51.1527C118.42 51.2766 118.326 51.3794 118.207 51.446C118.089 51.5127 117.952 51.5396 117.818 51.523C117.681 51.5177 117.55 51.4693 117.443 51.385C117.336 51.3006 117.258 51.1845 117.221 51.0532C117.199 50.9494 117.203 50.8419 117.232 50.7399C117.261 50.6379 117.314 50.5444 117.387 50.4673C117.63 50.2076 117.889 50.2905 117.867 50.3236Z" fill="#263238"/>
<path d="M134.089 42.8847C134.089 42.8405 134.277 42.8239 134.404 42.6084C134.441 42.5529 134.466 42.4901 134.476 42.4243C134.487 42.3585 134.483 42.2912 134.465 42.227C134.436 42.1588 134.389 42.1002 134.328 42.0581C134.268 42.0159 134.196 41.9921 134.122 41.9893C134.049 41.9799 133.974 41.9921 133.907 42.0245C133.84 42.0569 133.785 42.1081 133.746 42.1717C133.718 42.2312 133.703 42.2964 133.703 42.3624C133.703 42.4285 133.718 42.4937 133.746 42.5531C133.84 42.7852 134.023 42.835 134.012 42.8792C134.001 42.9234 133.757 42.9566 133.553 42.6581C133.495 42.5702 133.459 42.4697 133.447 42.3649C133.435 42.2601 133.449 42.1541 133.487 42.0557C133.542 41.9318 133.636 41.829 133.755 41.7623C133.873 41.6957 134.01 41.6687 134.144 41.6854C134.266 41.6869 134.385 41.7242 134.485 41.7926C134.586 41.8611 134.664 41.9577 134.71 42.0703C134.756 42.1829 134.768 42.3066 134.744 42.4259C134.72 42.5452 134.661 42.6548 134.575 42.741C134.327 43.0063 134.067 42.9179 134.089 42.8847Z" fill="#263238"/>
<path d="M126.832 39.6679C126.832 39.6237 127.02 39.6071 127.147 39.3915C127.183 39.3355 127.206 39.2727 127.217 39.2071C127.227 39.1416 127.224 39.0745 127.208 39.0102C127.178 38.9415 127.13 38.8827 127.068 38.8406C127.007 38.7985 126.934 38.7749 126.86 38.7725C126.786 38.7631 126.711 38.7753 126.645 38.8077C126.578 38.8401 126.522 38.8912 126.484 38.9549C126.458 39.0151 126.444 39.08 126.444 39.1456C126.444 39.2112 126.458 39.2761 126.484 39.3363C126.578 39.5739 126.766 39.6181 126.755 39.6623C126.744 39.7066 126.5 39.7453 126.296 39.4413C126.223 39.3432 126.18 39.2255 126.174 39.1032C126.169 38.9809 126.199 38.8597 126.263 38.7551C126.327 38.6505 126.42 38.5673 126.531 38.5162C126.643 38.4652 126.767 38.4485 126.887 38.4685C127.023 38.4742 127.153 38.5227 127.26 38.6071C127.366 38.6915 127.443 38.8075 127.479 38.9383C127.5 39.0417 127.497 39.1487 127.469 39.2505C127.441 39.3523 127.389 39.4461 127.318 39.5242C127.07 39.7895 126.81 39.7066 126.832 39.6679Z" fill="#263238"/>
<path d="M119.658 42.8845C119.658 42.8403 119.846 42.8237 119.973 42.6081C120.009 42.5521 120.033 42.4893 120.043 42.4237C120.054 42.3581 120.05 42.2911 120.034 42.2268C120.005 42.1581 119.956 42.0993 119.895 42.0572C119.833 42.0151 119.76 41.9915 119.686 41.9891C119.612 41.9796 119.537 41.9919 119.471 42.0243C119.404 42.0567 119.348 42.1078 119.31 42.1715C119.284 42.2317 119.271 42.2966 119.271 42.3622C119.271 42.4278 119.284 42.4926 119.31 42.5529C119.404 42.785 119.592 42.8347 119.581 42.8789C119.57 42.9232 119.327 42.9563 119.122 42.6579C119.049 42.5598 119.006 42.4421 119.001 42.3198C118.995 42.1975 119.026 42.0763 119.089 41.9717C119.153 41.8671 119.246 41.7839 119.357 41.7328C119.469 41.6818 119.593 41.6651 119.713 41.6851C119.849 41.6907 119.979 41.7393 120.086 41.8237C120.192 41.9081 120.269 42.0241 120.305 42.1549C120.326 42.2583 120.323 42.3653 120.295 42.4671C120.267 42.5689 120.216 42.6627 120.145 42.7408C119.896 43.0061 119.636 42.9176 119.658 42.8845Z" fill="#263238"/>
<path d="M125.915 69.5354L126.561 101.874C126.571 102.323 126.759 102.749 127.084 103.06C127.408 103.371 127.842 103.541 128.291 103.532C128.728 103.522 129.144 103.344 129.453 103.035C129.762 102.726 129.939 102.31 129.949 101.874C130.016 96.0482 130.231 76.4496 130.264 69.5023C130.266 69.1888 130.199 68.8788 130.069 68.5935C129.939 68.3082 129.749 68.0545 129.511 67.8497C129.274 67.6449 128.995 67.4939 128.694 67.4071C128.393 67.3203 128.076 67.2997 127.766 67.3468C127.245 67.4256 126.77 67.6909 126.429 68.0934C126.089 68.4959 125.906 69.0083 125.915 69.5354Z" fill="#0075C3"/>
<g opacity="0.3">
<path d="M125.915 69.5354L126.561 101.874C126.571 102.323 126.759 102.749 127.084 103.06C127.408 103.371 127.842 103.541 128.291 103.532C128.728 103.522 129.144 103.344 129.453 103.035C129.762 102.726 129.939 102.31 129.949 101.874C130.016 96.0482 130.231 76.4496 130.264 69.5023C130.266 69.1888 130.199 68.8788 130.069 68.5935C129.939 68.3082 129.749 68.0545 129.511 67.8497C129.274 67.6449 128.995 67.4939 128.694 67.4071C128.393 67.3203 128.076 67.2997 127.766 67.3468C127.245 67.4256 126.77 67.6909 126.429 68.0934C126.089 68.4959 125.906 69.0083 125.915 69.5354Z" fill="black"/>
</g>
<path d="M126.915 10.3808C127.009 10.4913 125.937 11.5304 124.373 13.3543C123.588 14.2607 122.715 15.3882 121.792 16.6704C120.81 18.0775 119.906 19.5369 119.084 21.0423C118.282 22.5566 117.564 24.1138 116.934 25.707C116.381 27.1827 115.911 28.5368 115.585 29.6919C114.927 32.0022 114.651 33.4723 114.48 33.4502C114.308 33.4281 114.419 31.9248 114.927 29.5316C115.232 28.1331 115.627 26.7558 116.11 25.4085C116.709 23.7581 117.421 22.1514 118.243 20.6001C119.088 19.0653 120.033 17.5882 121.073 16.1785C121.932 15.0323 122.864 13.943 123.864 12.9176C125.605 11.1545 126.843 10.2979 126.915 10.3808Z" fill="white"/>
<path d="M111.92 70.5305C112.009 70.6687 110.478 71.6359 108.344 73.6367L107.521 74.4215C107.234 74.6978 106.968 75.0129 106.67 75.3169C106.067 75.9248 105.504 76.6433 104.89 77.3784C103.609 79.0128 102.472 80.7547 101.491 82.5848C100.535 84.4301 99.736 86.353 99.1034 88.3328C98.8437 89.2503 98.5508 90.1235 98.407 90.9581C98.3186 91.3782 98.2136 91.7761 98.1473 92.1685C98.081 92.5609 98.0202 92.9312 97.9649 93.2739C97.5338 96.1534 97.5725 97.9718 97.4122 97.9773C97.3459 97.9773 97.2851 97.5297 97.2298 96.7006C97.2298 96.4906 97.2022 96.2585 97.1911 96.0097C97.1801 95.761 97.1911 95.4847 97.1911 95.1918C97.1954 94.5251 97.2341 93.8592 97.3072 93.1965C97.3459 92.8262 97.3901 92.4393 97.4343 92.0359C97.4785 91.6324 97.5725 91.2179 97.6443 90.7923C97.7825 89.9246 98.0312 89.0237 98.2799 88.0731C99.4531 83.9501 101.477 80.1187 104.221 76.8257C104.817 76.1093 105.448 75.423 106.112 74.7697C106.421 74.4657 106.714 74.1562 107.018 73.8909L107.902 73.1337C108.409 72.6987 108.938 72.2909 109.489 71.9123C109.726 71.7409 109.947 71.5751 110.157 71.437L110.749 71.0832C111.495 70.6798 111.882 70.4753 111.92 70.5305Z" fill="white"/>
<path d="M88.1325 175.973C87.389 175.552 86.7927 174.912 86.424 174.141C86.0553 173.37 85.9319 172.505 86.0704 171.661C86.209 170.818 86.6028 170.037 87.1988 169.425C87.7949 168.812 88.5644 168.397 89.4037 168.236C90.9181 167.937 92.8138 168.368 93.7644 167.13C94.6322 166.025 93.98 164.566 94.3613 162.797C94.7427 161.029 96.2626 160.194 97.9373 160.216C98.7768 160.265 99.5903 160.526 100.302 160.974C101.013 161.423 101.599 162.044 102.005 162.781C102.902 164.418 103.307 166.28 103.171 168.142C102.724 171.961 100.684 173.917 98.1473 175.537C95.6104 177.156 90.8075 177.527 88.1325 175.94" fill="#0075C3"/>
<g opacity="0.8">
<path d="M88.1325 175.973C87.389 175.552 86.7927 174.912 86.424 174.141C86.0553 173.37 85.9319 172.505 86.0704 171.661C86.209 170.818 86.6028 170.037 87.1988 169.425C87.7949 168.812 88.5644 168.397 89.4037 168.236C90.9181 167.937 92.8138 168.368 93.7644 167.13C94.6322 166.025 93.98 164.566 94.3613 162.797C94.7427 161.029 96.2626 160.194 97.9373 160.216C98.7768 160.265 99.5903 160.526 100.302 160.974C101.013 161.423 101.599 162.044 102.005 162.781C102.902 164.418 103.307 166.28 103.171 168.142C102.724 171.961 100.684 173.917 98.1473 175.537C95.6104 177.156 90.8075 177.527 88.1325 175.94" fill="white"/>
</g>
<path d="M150.139 145.36C150.755 144.182 151.717 143.22 152.894 142.603C154.072 141.987 155.411 141.745 156.73 141.91C158.049 142.076 159.286 142.64 160.276 143.528C161.265 144.417 161.959 145.586 162.265 146.88C162.818 149.229 162.265 152.202 164.216 153.623C165.99 154.91 168.234 153.799 171.02 154.286C173.806 154.772 175.198 157.094 175.259 159.713C175.32 162.333 173.717 164.82 171.501 166.213C169.001 167.709 166.122 168.454 163.21 168.357C157.225 167.888 154.047 164.82 151.366 160.962C148.686 157.105 147.823 149.627 150.139 145.36Z" fill="#0075C3"/>
<g opacity="0.8">
<path d="M150.139 145.359C150.755 144.181 151.717 143.219 152.894 142.603C154.072 141.986 155.411 141.744 156.73 141.91C158.049 142.075 159.286 142.64 160.276 143.528C161.265 144.416 161.959 145.585 162.265 146.879C162.818 149.228 162.265 152.202 164.216 153.622C165.99 154.91 168.234 153.799 171.02 154.285C173.806 154.772 175.198 157.093 175.259 159.713C175.32 162.333 173.717 164.82 171.501 166.213C169.001 167.709 166.122 168.453 163.21 168.357C157.225 167.887 154.047 164.82 151.366 160.962C148.686 157.104 147.823 149.626 150.139 145.359Z" fill="white"/>
</g>
<path d="M105.476 137.522C104.81 137.865 104.251 138.384 103.861 139.024C103.471 139.664 103.265 140.399 103.265 141.148C103.293 141.98 103.589 142.781 104.108 143.432C104.627 144.083 105.343 144.549 106.148 144.76C106.953 144.972 107.806 144.918 108.578 144.607C109.35 144.296 110.002 143.744 110.435 143.033C110.869 142.322 111.061 141.49 110.984 140.661C110.907 139.832 110.565 139.05 110.008 138.431C109.451 137.812 108.709 137.389 107.892 137.225C107.076 137.062 106.229 137.166 105.476 137.522Z" fill="#0075C3"/>
<g opacity="0.8">
<path d="M105.476 137.522C104.81 137.865 104.251 138.384 103.861 139.024C103.471 139.664 103.265 140.399 103.265 141.148C103.293 141.98 103.589 142.781 104.108 143.432C104.627 144.083 105.343 144.549 106.148 144.76C106.953 144.972 107.806 144.918 108.578 144.607C109.35 144.296 110.002 143.744 110.435 143.033C110.869 142.322 111.061 141.49 110.984 140.661C110.907 139.832 110.565 139.05 110.008 138.431C109.451 137.812 108.709 137.389 107.892 137.225C107.076 137.062 106.229 137.166 105.476 137.522Z" fill="white"/>
</g>
<path d="M164.238 183.871C163.906 184.044 163.628 184.304 163.433 184.623C163.238 184.943 163.134 185.31 163.133 185.684C163.146 186.102 163.294 186.504 163.554 186.831C163.814 187.158 164.173 187.392 164.577 187.499C164.981 187.605 165.409 187.579 165.796 187.423C166.184 187.267 166.511 186.99 166.728 186.633C166.946 186.276 167.042 185.859 167.004 185.443C166.965 185.027 166.793 184.634 166.513 184.324C166.233 184.014 165.86 183.802 165.451 183.72C165.041 183.639 164.616 183.692 164.238 183.871Z" fill="#0075C3"/>
<g opacity="0.8">
<path d="M164.238 183.871C163.906 184.044 163.628 184.304 163.433 184.623C163.238 184.943 163.134 185.31 163.133 185.684C163.146 186.102 163.294 186.504 163.554 186.831C163.814 187.158 164.173 187.392 164.577 187.499C164.981 187.605 165.409 187.579 165.796 187.423C166.184 187.267 166.511 186.99 166.728 186.633C166.946 186.276 167.042 185.859 167.004 185.443C166.965 185.027 166.793 184.634 166.513 184.324C166.233 184.014 165.86 183.802 165.451 183.72C165.041 183.639 164.616 183.692 164.238 183.871Z" fill="white"/>
</g>
<path d="M148.846 168.744H114.491C108.465 168.744 103.58 173.629 103.58 179.654V181.185C103.58 187.211 108.465 192.095 114.491 192.095H148.846C154.872 192.095 159.756 187.211 159.756 181.185V179.654C159.756 173.629 154.872 168.744 148.846 168.744Z" fill="#0075C3"/>
<path d="M120.377 181.964L120.758 181.119C121.227 181.445 121.784 181.622 122.355 181.627C123.019 181.627 123.289 181.406 123.289 181.108C123.289 180.201 120.471 180.82 120.471 179.024C120.471 178.201 121.139 177.515 122.516 177.515C123.096 177.507 123.669 177.653 124.174 177.941L123.831 178.792C123.423 178.554 122.961 178.424 122.488 178.416C121.819 178.416 121.565 178.665 121.565 178.969C121.565 179.859 124.384 179.245 124.384 181.025C124.384 181.832 123.71 182.528 122.328 182.528C121.636 182.54 120.956 182.344 120.377 181.964Z" fill="white"/>
<path d="M126.108 178.51H124.555V177.598H128.778V178.51H127.23V182.445H126.125L126.108 178.51Z" fill="white"/>
<path d="M132.326 181.384H130.077L129.651 182.423H128.502L130.657 177.576H131.763L133.929 182.423H132.752L132.326 181.384ZM131.973 180.533L131.204 178.676L130.436 180.533H131.973Z" fill="white"/>
<path d="M137.527 182.445L136.587 181.091H135.559V182.445H134.454V177.598H136.554C137.848 177.598 138.654 178.267 138.654 179.356C138.667 179.682 138.579 180.005 138.4 180.279C138.222 180.554 137.963 180.766 137.66 180.887L138.765 182.445H137.527ZM136.471 178.51H135.559V180.201H136.471C137.157 180.201 137.505 179.881 137.505 179.356C137.505 178.831 137.157 178.51 136.471 178.51Z" fill="white"/>
<path d="M140.456 178.51H138.909V177.598H143.131V178.51H141.578V182.445H140.473L140.456 178.51Z" fill="white"/>
<path d="M216.606 235.963L223.139 238.256L223.067 244.535C219.939 245.419 219.502 247 219.502 247L226.041 246.851L231.728 235.283L227.229 232.343L218.817 228.662" fill="#0075C3"/>
<g opacity="0.6">
<path d="M231.728 235.283L226.041 246.851L219.503 247L220.216 246L225.527 245.585L230.772 234.658L231.728 235.283Z" fill="white"/>
</g>
<path d="M223.045 241.661C223.095 241.728 223.465 241.501 223.974 241.507C224.482 241.512 224.853 241.711 224.902 241.645C224.952 241.578 224.587 241.208 223.974 241.219C223.36 241.23 222.984 241.628 223.045 241.661Z" fill="#263238"/>
<path d="M223.139 240.103C223.205 240.147 223.487 239.754 224.007 239.638C224.526 239.522 224.946 239.754 224.985 239.688C225.024 239.622 224.93 239.55 224.747 239.45C224.497 239.331 224.214 239.3 223.943 239.361C223.672 239.422 223.43 239.572 223.255 239.788C223.106 239.97 223.084 240.08 223.139 240.103Z" fill="#263238"/>
<path d="M223.029 238.102C223.101 238.135 223.316 237.754 223.769 237.588C224.223 237.422 224.632 237.56 224.665 237.483C224.698 237.405 224.593 237.361 224.41 237.3C224.168 237.218 223.903 237.222 223.663 237.313C223.423 237.404 223.222 237.575 223.095 237.798C223.001 237.964 222.996 238.091 223.029 238.102Z" fill="#263238"/>
<path d="M222.548 238.096C222.631 238.096 222.581 237.665 222.775 237.223C222.968 236.781 223.289 236.527 223.25 236.455C223.211 236.383 222.741 236.565 222.509 237.113C222.277 237.66 222.476 238.135 222.548 238.096Z" fill="#263238"/>
<path d="M221.774 237.361C221.871 237.077 221.923 236.781 221.929 236.482C221.956 236.167 221.984 235.852 222.017 235.526C222.045 235.324 222.045 235.119 222.017 234.918C221.983 234.784 221.9 234.668 221.785 234.592C221.718 234.548 221.641 234.525 221.561 234.525C221.482 234.525 221.404 234.548 221.337 234.592C221.161 234.745 221.032 234.947 220.967 235.172C220.9 235.363 220.861 235.562 220.851 235.763C220.831 236.102 220.89 236.44 221.022 236.753C221.254 237.305 221.575 237.477 221.575 237.455C221.431 237.204 221.302 236.946 221.188 236.681C221.096 236.392 221.062 236.088 221.089 235.785C221.108 235.61 221.149 235.437 221.21 235.271C221.259 235.104 221.351 234.951 221.476 234.829C221.495 234.815 221.52 234.807 221.545 234.807C221.569 234.807 221.594 234.815 221.614 234.829C221.668 234.864 221.707 234.917 221.724 234.979C221.744 235.151 221.744 235.325 221.724 235.498C221.724 235.824 221.724 236.145 221.697 236.46C221.674 236.762 221.7 237.066 221.774 237.361Z" fill="#263238"/>
<path d="M221.669 237.649C221.697 237.649 221.503 237.345 221 237.179C220.661 237.076 220.297 237.085 219.963 237.204C219.628 237.324 219.341 237.547 219.143 237.842C219.129 237.884 219.124 237.928 219.129 237.972C219.133 238.016 219.148 238.059 219.171 238.096C219.212 238.159 219.272 238.208 219.342 238.234C219.442 238.27 219.546 238.291 219.652 238.295C219.836 238.313 220.021 238.313 220.205 238.295C220.502 238.269 220.793 238.194 221.067 238.074C221.537 237.87 221.752 237.632 221.73 237.61C221.708 237.588 221.454 237.743 221 237.886C220.736 237.971 220.46 238.019 220.182 238.03C220.022 238.044 219.862 238.044 219.702 238.03C219.626 238.024 219.552 238.01 219.48 237.986C219.425 237.953 219.442 237.958 219.442 237.941C219.472 237.881 219.516 237.828 219.569 237.787C219.628 237.729 219.693 237.677 219.762 237.632C219.891 237.542 220.032 237.473 220.182 237.427C220.439 237.35 220.71 237.336 220.973 237.389C221.211 237.458 221.444 237.545 221.669 237.649Z" fill="#263238"/>
<g opacity="0.6">
<path d="M226.511 235.205C226.513 235.307 226.535 235.407 226.576 235.5C226.617 235.593 226.676 235.677 226.749 235.748C226.822 235.818 226.909 235.873 227.004 235.91C227.098 235.947 227.199 235.965 227.301 235.963C227.403 235.961 227.503 235.938 227.596 235.897C227.689 235.857 227.773 235.798 227.843 235.724C227.914 235.651 227.969 235.564 228.006 235.47C228.043 235.375 228.06 235.274 228.058 235.172C228.056 235.071 228.034 234.971 227.993 234.877C227.952 234.784 227.893 234.7 227.82 234.63C227.746 234.56 227.66 234.505 227.565 234.468C227.471 234.431 227.369 234.413 227.268 234.415C227.166 234.417 227.066 234.439 226.973 234.48C226.88 234.521 226.796 234.58 226.726 234.653C226.655 234.727 226.6 234.813 226.563 234.908C226.526 235.003 226.508 235.104 226.511 235.205Z" fill="white"/>
</g>
<path d="M183.091 233.337L183.179 241.893C183.179 241.893 174.508 244.861 174.369 246.442L190.95 246.867L191.359 233.525L183.091 233.337Z" fill="#0075C3"/>
<g opacity="0.6">
<path d="M188.319 241.308C188.477 241.361 188.61 241.47 188.693 241.615C188.775 241.76 188.802 241.93 188.767 242.093C188.719 242.252 188.613 242.387 188.469 242.471C188.326 242.556 188.156 242.582 187.993 242.546C187.826 242.489 187.685 242.372 187.597 242.219C187.51 242.065 187.482 241.884 187.518 241.711C187.585 241.548 187.712 241.418 187.872 241.347C188.033 241.276 188.215 241.27 188.38 241.33" fill="white"/>
</g>
<g opacity="0.6">
<path d="M190.972 246.867V245.519L175.06 245.618C175.06 245.618 174.309 245.917 174.381 246.442L190.972 246.867Z" fill="white"/>
</g>
<path d="M182.908 241.805C182.908 241.882 183.317 241.932 183.71 242.203C184.102 242.473 184.301 242.822 184.379 242.788C184.456 242.755 184.345 242.285 183.865 241.97C183.384 241.655 182.897 241.727 182.908 241.805Z" fill="#263238"/>
<path d="M181.134 242.479C181.134 242.556 181.46 242.706 181.726 243.032C181.991 243.358 182.063 243.745 182.146 243.745C182.229 243.745 182.289 243.286 181.952 242.855C181.615 242.424 181.134 242.402 181.134 242.479Z" fill="#263238"/>
<path d="M180.107 244.535C180.184 244.535 180.306 244.154 180.107 243.706C179.908 243.258 179.554 243.07 179.499 243.153C179.443 243.236 179.692 243.463 179.852 243.833C180.013 244.203 180.029 244.529 180.107 244.535Z" fill="#263238"/>
<path d="M183.108 239.848C183.141 239.926 183.511 239.848 183.97 239.848C184.429 239.848 184.782 240.047 184.827 239.975C184.871 239.904 184.534 239.611 183.992 239.566C183.45 239.522 183.069 239.787 183.108 239.848Z" fill="#263238"/>
<g opacity="0.3">
<path d="M183.108 235.029L183.124 236.554L191.282 236.692L191.326 235.316L183.108 235.029Z" fill="black"/>
</g>
<path d="M183.119 238.123C183.392 238.2 183.68 238.2 183.953 238.123C184.253 238.079 184.547 237.997 184.827 237.88C184.994 237.81 185.157 237.729 185.313 237.637C185.408 237.59 185.494 237.526 185.567 237.449C185.622 237.393 185.657 237.32 185.666 237.242C185.675 237.164 185.658 237.085 185.617 237.018C185.577 236.961 185.526 236.915 185.465 236.881C185.405 236.848 185.338 236.828 185.269 236.825C185.163 236.823 185.057 236.834 184.954 236.858C184.776 236.896 184.602 236.952 184.434 237.024C184.151 237.142 183.888 237.305 183.655 237.504C183.257 237.853 183.102 238.151 183.146 238.168C183.191 238.184 183.378 237.947 183.776 237.665C184.008 237.499 184.261 237.365 184.528 237.267C184.684 237.208 184.845 237.161 185.009 237.129C185.186 237.09 185.335 237.09 185.379 237.173C185.423 237.256 185.379 237.212 185.379 237.261C185.325 237.318 185.262 237.365 185.191 237.399C185.042 237.493 184.893 237.571 184.749 237.643C184.487 237.761 184.215 237.857 183.937 237.93C183.659 237.972 183.386 238.037 183.119 238.123Z" fill="#263238"/>
<path d="M183.224 238.246C183.384 238.01 183.467 237.73 183.461 237.444C183.486 237.138 183.456 236.829 183.373 236.532C183.326 236.356 183.259 236.185 183.174 236.024C183.132 235.913 183.062 235.814 182.971 235.737C182.88 235.661 182.771 235.609 182.654 235.587C182.58 235.587 182.507 235.608 182.444 235.648C182.381 235.689 182.331 235.746 182.301 235.814C182.257 235.909 182.225 236.009 182.207 236.112C182.18 236.296 182.18 236.482 182.207 236.665C182.241 236.978 182.355 237.277 182.538 237.533C182.853 237.969 183.185 238.085 183.196 238.047C183.207 238.008 182.942 237.842 182.704 237.422C182.568 237.181 182.486 236.913 182.461 236.637C182.448 236.477 182.458 236.315 182.488 236.157C182.522 235.98 182.588 235.842 182.654 235.858C182.721 235.875 182.875 235.996 182.942 236.14C183.018 236.286 183.082 236.437 183.135 236.593C183.219 236.864 183.266 237.145 183.273 237.428C183.273 237.931 183.179 238.229 183.224 238.246Z" fill="#263238"/>
<path d="M221.68 228.977L202.562 221.869L222.658 219.045L223.67 209.256L186.092 212.534L180.786 220.178L182.179 229.761L218.795 239.069L221.68 228.977Z" fill="#263238"/>
<path d="M181.134 235.825L179.305 200.839C179.355 199.164 179.832 197.529 180.691 196.09C181.55 194.65 182.762 193.454 184.213 192.615C185.419 191.916 186.759 191.481 188.145 191.339C189.532 191.197 190.932 191.351 192.255 191.792L216.634 199.922L230.015 203.365C230.015 203.365 232.297 208.986 230.954 213.352C229.644 217.63 224.958 220.476 220.834 219.255C215.711 217.735 192.199 207.648 192.199 207.648V236.101L181.134 235.825Z" fill="#263238"/>
<path d="M220.492 219.343L220.348 219.299L219.928 219.138L218.331 218.497L212.467 216.104L193.15 208.134L192.166 207.725L192.326 207.62C192.326 215.54 192.299 222.653 192.288 227.81C192.288 230.369 192.288 232.442 192.255 233.89C192.255 234.592 192.255 235.144 192.255 235.548C192.255 235.725 192.255 235.868 192.255 235.973C192.263 236.023 192.263 236.073 192.255 236.123C192.25 236.073 192.25 236.023 192.255 235.973V235.548C192.255 235.155 192.255 234.603 192.255 233.89C192.255 232.442 192.255 230.369 192.221 227.81C192.221 222.653 192.221 215.54 192.188 207.62V207.454L192.343 207.515L193.327 207.924L212.616 215.955L218.364 218.414L219.945 219.094L220.353 219.277L220.492 219.343Z" fill="#455A64"/>
<path d="M197.975 219.387C199.743 219.697 201.356 220.59 202.557 221.924C202.507 221.974 201.639 221.167 200.346 220.465C199.053 219.763 197.953 219.454 197.975 219.387Z" fill="#455A64"/>
<path d="M190.088 202.889C190.613 203.623 191.047 204.417 191.381 205.255C191.781 206.063 192.085 206.914 192.288 207.792C192.227 207.792 191.779 206.686 191.182 205.349C190.586 204.011 190.033 202.939 190.088 202.889Z" fill="#455A64"/>
<path d="M190.143 187.475L185.832 186.668L181.306 191.288L182.14 194.234L187.419 192.289L190.143 187.475Z" fill="#FFBE9D"/>
<path d="M150.311 176.93L155.213 175.824L163.106 177.057L162.802 182.092C162.802 182.092 160.353 182.446 159.486 182.158C158.963 181.987 158.401 181.975 157.872 182.125C157.872 182.125 158.353 183.114 157.523 183.275C156.694 183.435 155.34 183.783 155.086 182.611C154.878 182.624 154.672 182.564 154.503 182.441C154.334 182.318 154.214 182.139 154.163 181.937C154.163 181.937 153.522 182.169 153.235 181.047C152.947 179.925 153.113 178.24 155.329 177.703C155.445 177.676 155.501 177.41 155.28 177.422L151.775 178.079C151.775 178.079 149.421 178.184 150.311 176.93Z" fill="#FFBE9D"/>
<path d="M154.484 180.439C154.755 180.356 155.035 180.305 155.318 180.29C155.626 180.244 155.936 180.216 156.247 180.207C156.352 180.209 156.455 180.233 156.551 180.278C156.646 180.323 156.731 180.387 156.799 180.467C156.868 180.565 156.907 180.68 156.913 180.799C156.919 180.918 156.891 181.037 156.832 181.141C156.717 181.307 156.569 181.447 156.396 181.552C156.224 181.658 156.032 181.727 155.832 181.755C155.534 181.839 155.232 181.906 154.926 181.954C154.645 182.009 154.356 182.009 154.075 181.954C154.345 181.88 154.62 181.823 154.898 181.782C155.152 181.727 155.451 181.65 155.777 181.545C155.943 181.503 156.105 181.45 156.263 181.384C156.422 181.308 156.554 181.187 156.645 181.036C156.686 180.969 156.707 180.891 156.707 180.812C156.707 180.733 156.686 180.656 156.645 180.588C156.541 180.473 156.396 180.404 156.241 180.395C155.926 180.395 155.6 180.428 155.34 180.434C155.056 180.471 154.768 180.473 154.484 180.439Z" fill="#EB996E"/>
<path d="M155.324 179.356C155.324 179.417 155.081 179.544 154.893 179.837C154.705 180.13 154.677 180.417 154.616 180.423C154.556 180.428 154.478 180.069 154.716 179.715C154.954 179.361 155.324 179.301 155.324 179.356Z" fill="#EB996E"/>
<path d="M156.672 181.152C156.672 181.152 156.722 181.152 156.799 181.152C156.877 181.152 156.965 181.312 157.031 181.417C157.084 181.498 157.118 181.589 157.132 181.684C157.147 181.78 157.141 181.877 157.114 181.97C157.075 182.08 157.008 182.178 156.918 182.254C156.829 182.329 156.721 182.38 156.606 182.401C156.254 182.51 155.893 182.592 155.528 182.644C155.246 182.672 155.069 182.644 155.069 182.616C155.069 182.589 155.241 182.561 155.506 182.495C155.771 182.428 156.136 182.312 156.545 182.202C156.629 182.189 156.708 182.155 156.775 182.104C156.843 182.053 156.897 181.986 156.932 181.909C156.986 181.776 156.986 181.627 156.932 181.494C156.866 181.356 156.844 181.268 156.788 181.223C156.733 181.179 156.661 181.163 156.672 181.152Z" fill="#EB996E"/>
<path d="M156.998 182.009C156.998 182.009 157.053 181.909 157.208 181.887C157.403 181.874 157.597 181.925 157.761 182.031C157.845 182.09 157.914 182.168 157.963 182.258C158.012 182.348 158.039 182.448 158.043 182.551C158.043 182.694 158.043 182.783 157.993 182.783C157.943 182.783 157.938 182.7 157.894 182.578C157.855 182.433 157.769 182.305 157.65 182.213C157.518 182.127 157.369 182.067 157.214 182.037C157.092 182.014 157.015 182.037 156.998 182.009Z" fill="#EB996E"/>
<path d="M159.441 178.096L157.23 178.974L155.158 180.445C155.158 180.445 155.158 180.953 156.335 180.765C157.076 180.641 157.783 180.366 158.413 179.958C158.413 179.958 159.955 180.931 161.32 180.704" fill="#FFBE9D"/>
<path d="M161.298 180.704C161.298 180.704 161.226 180.732 161.083 180.76C160.873 180.783 160.662 180.783 160.452 180.76C159.705 180.667 158.986 180.419 158.341 180.03H158.441C157.668 180.552 156.768 180.854 155.837 180.903C155.68 180.908 155.523 180.886 155.373 180.837C155.284 180.81 155.204 180.759 155.144 180.688C155.083 180.618 155.044 180.531 155.031 180.439V180.389L155.075 180.356L157.175 178.897C157.855 178.637 158.413 178.427 158.805 178.289C159.005 178.204 159.212 178.139 159.424 178.096C159.239 178.209 159.042 178.306 158.839 178.383C158.457 178.549 157.91 178.781 157.236 179.057L155.158 180.544L155.202 180.456C155.202 180.522 155.296 180.616 155.406 180.655C155.533 180.696 155.666 180.715 155.799 180.71C156.689 180.66 157.55 180.378 158.297 179.892L158.352 179.859H158.402C159.02 180.245 159.707 180.509 160.425 180.638C160.714 180.681 161.006 180.703 161.298 180.704Z" fill="#EB996E"/>
<path d="M156.225 177.985C156.225 178.046 155.965 178.04 155.711 177.886C155.456 177.731 155.329 177.504 155.373 177.471C155.418 177.438 155.595 177.571 155.816 177.703C156.037 177.836 156.263 177.93 156.225 177.985Z" fill="#EB996E"/>
<path d="M162.68 183.423L181.394 186.142C183.253 186.73 185.269 186.561 187.004 185.673L203.673 177.122L198.699 166.118C198.055 166.339 197.428 166.603 196.82 166.909L183.108 176.791L163.211 176.094L162.68 183.423Z" fill="#0075C3"/>
<path d="M229.656 203.282L228.462 201.187L215.706 197.993L217.209 200.59L229.656 203.282Z" fill="#FFBE9D"/>
<path d="M198.683 166.118C198.683 166.561 196.809 180.411 196.809 183.252C196.809 186.093 202.225 189.149 202.225 189.149L208.156 201.745H229.285L222.061 188.182L218.795 177.316C217.557 173.204 217.69 171.076 214.622 168.064L208.714 164.084L198.683 166.118Z" fill="#0075C3"/>
<path d="M204.818 177.051L208.366 191.941L190.47 186.911L187.419 192.306L210.704 202.906C212.096 203.54 213.666 203.665 215.141 203.261C216.616 202.857 217.903 201.95 218.779 200.696C219.32 199.922 219.687 199.04 219.856 198.111C220.025 197.182 219.991 196.227 219.757 195.312L214.545 174.946C214.376 174.281 214.072 173.659 213.651 173.118C213.231 172.577 212.703 172.129 212.101 171.802C211.499 171.474 210.836 171.275 210.153 171.216C209.47 171.156 208.783 171.239 208.134 171.458C207.002 171.837 206.044 172.611 205.435 173.638C204.826 174.665 204.607 175.876 204.818 177.051Z" fill="#0075C3"/>
<path d="M202.557 189.84C202.402 189.557 202.217 189.292 202.004 189.05C201.871 188.984 201.684 188.884 201.451 188.746C200.767 188.361 200.111 187.927 199.489 187.447C198.536 186.752 197.747 185.856 197.179 184.822C196.626 183.584 196.626 182.058 196.853 180.566C197.08 179.074 197.406 177.659 197.56 176.36C197.715 175.061 197.898 173.895 197.969 172.911C198.041 171.928 198.058 171.126 198.058 170.573C198.058 170.021 198.058 169.711 198.058 169.711C198.08 169.783 198.093 169.857 198.097 169.932C198.097 170.076 198.13 170.292 198.146 170.568C198.187 171.352 198.187 172.138 198.146 172.922C198.097 173.912 197.975 175.095 197.787 176.393C197.599 177.692 197.312 179.107 197.096 180.599C196.881 182.092 196.853 183.556 197.384 184.733C197.928 185.743 198.682 186.625 199.594 187.32C200.204 187.807 200.841 188.259 201.501 188.674C201.918 188.999 202.275 189.393 202.557 189.84Z" fill="#263238"/>
<path d="M209.676 165.069C209.583 165.204 209.474 165.327 209.349 165.434C209.134 165.655 208.797 165.986 208.404 166.346C207.592 167.103 206.437 168.12 205.088 169.181C203.74 170.242 202.524 171.148 201.606 171.779C201.147 172.094 200.772 172.331 200.501 172.503C200.369 172.599 200.226 172.678 200.075 172.74C200.19 172.625 200.316 172.521 200.451 172.431L201.507 171.646C202.397 170.988 203.624 170.065 204.944 169.004C206.265 167.943 207.432 166.954 208.261 166.241L209.255 165.378C209.383 165.259 209.524 165.155 209.676 165.069Z" fill="#263238"/>
<path d="M204.818 177.051C204.856 177.143 204.886 177.24 204.906 177.338C204.961 177.544 205.033 177.821 205.121 178.167C205.309 178.913 205.569 179.963 205.895 181.273C206.542 183.937 207.443 187.651 208.471 191.913L208.515 192.095L208.338 192.045L203.795 190.78L190.47 186.994L190.564 186.955L188.303 190.879L187.673 191.94L187.507 192.211C187.468 192.277 187.446 192.305 187.441 192.305C187.451 192.268 187.466 192.233 187.485 192.2L187.634 191.918L188.22 190.813L190.431 186.85L190.464 186.795H190.525L203.867 190.52L208.432 191.813L208.294 191.94C207.294 187.673 206.42 183.954 205.79 181.284C205.492 179.969 205.238 178.908 205.083 178.162C205.005 177.808 204.945 177.531 204.9 177.321C204.866 177.233 204.838 177.143 204.818 177.051Z" fill="#263238"/>
<path d="M214.622 176.122C214.663 176.205 214.693 176.292 214.711 176.382C214.766 176.575 214.832 176.819 214.921 177.123L215.639 179.886C216.231 182.229 217.043 185.413 217.933 188.956C218.37 190.73 218.801 192.416 219.165 193.963C219.528 195.332 219.642 196.755 219.503 198.164C219.39 199.117 219.048 200.029 218.508 200.822C218.313 201.114 218.07 201.37 217.789 201.579C218.02 201.325 218.235 201.055 218.43 200.772C218.937 199.979 219.252 199.078 219.348 198.142C219.459 196.752 219.328 195.353 218.961 194.007C218.574 192.471 218.154 190.785 217.712 189.033L215.501 179.947L214.849 177.183L214.683 176.432C214.654 176.33 214.634 176.227 214.622 176.122Z" fill="#263238"/>
<g opacity="0.3">
<path d="M217.872 201.734C220.492 201.972 222.012 200.48 222.294 198.418C222.355 197.283 222.155 196.148 221.708 195.102C220.1 190.393 218.475 185.646 215.927 181.368C216.888 185.646 218.137 189.752 219.083 194.03C219.388 195.219 219.524 196.445 219.486 197.672C219.426 199.169 218.857 200.6 217.872 201.729" fill="black"/>
</g>
<path d="M196.389 180.279C195.986 179.938 195.63 179.546 195.328 179.113C194.556 178.105 193.898 177.015 193.366 175.863C192.832 174.709 192.43 173.498 192.166 172.254C192.034 171.743 191.967 171.217 191.967 170.69C192.127 171.187 192.26 171.693 192.365 172.204C192.682 173.418 193.104 174.601 193.625 175.741C194.151 176.878 194.776 177.965 195.494 178.991C196.057 179.804 196.422 180.279 196.389 180.279Z" fill="#FAFAFA"/>
<path d="M191.26 183.335C190.939 182.966 190.657 182.564 190.42 182.136C189.933 181.373 189.314 180.301 188.64 179.09C187.966 177.88 187.424 176.764 187.048 175.946C186.817 175.515 186.632 175.061 186.496 174.592C186.775 174.99 187.015 175.414 187.214 175.857L188.872 178.952C189.508 180.113 190.088 181.163 190.569 182.031C190.837 182.444 191.068 182.881 191.26 183.335Z" fill="#FAFAFA"/>
<path d="M184.202 186.088C183.822 184.634 183.534 183.157 183.34 181.666C183.052 180.19 182.858 178.696 182.759 177.195C183.139 178.649 183.427 180.126 183.621 181.617C183.912 183.093 184.106 184.586 184.202 186.088Z" fill="#FAFAFA"/>
<path d="M177.923 185.662C177.823 185.249 177.775 184.826 177.78 184.402C177.73 183.617 177.702 182.534 177.73 181.334C177.757 180.135 177.84 179.057 177.923 178.278C177.939 177.853 178.008 177.431 178.128 177.023C178.173 177.444 178.173 177.868 178.128 178.289C178.095 179.074 178.05 180.151 178.017 181.34C177.984 182.528 177.984 183.611 177.984 184.396C178.012 184.819 177.992 185.244 177.923 185.662Z" fill="#FAFAFA"/>
<path d="M171.639 176.52C171.737 176.903 171.789 177.297 171.794 177.692C171.849 178.422 171.882 179.433 171.866 180.55C171.849 181.666 171.772 182.677 171.689 183.401C171.675 183.799 171.608 184.193 171.49 184.573C171.407 184.573 171.54 182.766 171.573 180.544C171.606 178.322 171.551 176.526 171.639 176.52Z" fill="#FAFAFA"/>
<path d="M166.477 177.184C166.517 178.31 166.464 179.438 166.317 180.556C166.266 181.681 166.116 182.8 165.869 183.899C165.88 181.648 166.083 179.401 166.477 177.184Z" fill="#FAFAFA"/>
<path d="M197.588 172.071C197.505 172.071 197.174 171.176 196.61 170.126C196.046 169.076 195.505 168.28 195.549 168.23C196.607 169.271 197.319 170.612 197.588 172.071Z" fill="#FAFAFA"/>
<path d="M207.316 187.11C207.176 187.154 207.03 187.17 206.885 187.16C206.488 187.176 206.091 187.167 205.696 187.132C204.389 187.032 203.103 186.745 201.877 186.281C200.648 185.824 199.489 185.197 198.434 184.418C198.115 184.183 197.81 183.928 197.522 183.656C197.317 183.462 197.212 183.352 197.229 183.335C197.246 183.318 197.732 183.7 198.55 184.252C200.7 185.699 203.162 186.618 205.735 186.933C206.697 187.055 207.316 187.06 207.316 187.11Z" fill="#FAFAFA"/>
<path d="M205.298 180.052C204.911 180.069 204.523 180.026 204.149 179.925C203.232 179.751 202.328 179.511 201.446 179.206C200.562 178.905 199.703 178.535 198.876 178.101C198.519 177.946 198.186 177.741 197.887 177.493C197.931 177.415 199.49 178.228 201.54 178.93C203.591 179.632 205.315 179.969 205.298 180.052Z" fill="#FAFAFA"/>
<path d="M204.127 174.979C203.128 175.041 202.127 174.881 201.198 174.509C200.269 174.137 199.434 173.563 198.754 172.829C200.336 173.985 202.184 174.725 204.127 174.979Z" fill="#FAFAFA"/>
<path d="M212.4 171.364C212.373 171.408 211.942 171.115 211.157 170.894C210.134 170.61 209.049 170.651 208.051 171.01C207.059 171.389 206.211 172.072 205.63 172.961C205.177 173.641 205.044 174.144 204.994 174.127C205.042 173.671 205.2 173.233 205.453 172.851C206.015 171.879 206.898 171.133 207.949 170.741C209.001 170.348 210.157 170.334 211.218 170.701C211.659 170.825 212.064 171.052 212.4 171.364Z" fill="#FAFAFA"/>
<path d="M213.379 178.151C213.097 178.385 212.78 178.572 212.439 178.704C210.843 179.397 209.116 179.74 207.376 179.71C207.016 179.731 206.655 179.69 206.31 179.588C206.31 179.5 207.968 179.588 209.902 179.196C211.836 178.803 213.34 178.068 213.379 178.151Z" fill="#FAFAFA"/>
<path d="M216.208 186.668C214.933 186.937 213.64 187.112 212.34 187.193C211.043 187.366 209.735 187.446 208.427 187.431C209.701 187.159 210.994 186.983 212.295 186.905C213.592 186.732 214.9 186.652 216.208 186.668Z" fill="#FAFAFA"/>
<path d="M218.717 198.468C218.566 198.463 218.417 198.433 218.275 198.38C217.883 198.271 217.497 198.14 217.12 197.987C215.87 197.484 214.675 196.853 213.555 196.103C212.441 195.354 211.368 194.548 210.339 193.687C209.893 193.358 209.478 192.988 209.101 192.582C209.569 192.865 210.013 193.186 210.427 193.544C211.251 194.157 212.384 195.014 213.682 195.876C214.791 196.613 215.955 197.261 217.164 197.816C218.109 198.219 218.717 198.424 218.717 198.468Z" fill="#FAFAFA"/>
<path d="M205.304 200.264C205.211 199.853 205.182 199.43 205.215 199.01C205.259 196.975 205.745 194.973 206.641 193.146C206.802 192.757 207.022 192.395 207.293 192.073C206.738 193.373 206.269 194.708 205.89 196.069C205.605 197.454 205.409 198.855 205.304 200.264Z" fill="#FAFAFA"/>
<path d="M198.566 196.655C198.352 194.336 199.061 192.026 200.54 190.227C200.021 191.233 199.57 192.273 199.191 193.339C198.906 194.428 198.697 195.536 198.566 196.655Z" fill="#FAFAFA"/>
<path d="M194.808 187.834C194.031 188.758 193.342 189.754 192.752 190.807C192.248 191.905 191.85 193.049 191.564 194.223C191.526 193.853 191.554 193.478 191.647 193.118C191.812 192.259 192.097 191.427 192.492 190.647C192.888 189.867 193.392 189.147 193.99 188.508C194.223 188.239 194.5 188.011 194.808 187.834Z" fill="#FAFAFA"/>
<path d="M219.635 180.113C219.222 180.63 218.68 181.03 218.065 181.274C217.45 181.519 216.781 181.598 216.126 181.506C216.126 181.417 216.988 181.395 217.955 181.003C218.922 180.611 219.574 180.052 219.635 180.113Z" fill="#FAFAFA"/>
<path d="M217.104 172.358C216.914 172.914 216.552 173.394 216.07 173.729C215.647 174.138 215.102 174.398 214.517 174.47C214.517 174.392 215.18 174.088 215.888 173.503C216.595 172.917 217.06 172.309 217.104 172.358Z" fill="#FAFAFA"/>
<path d="M208.078 167.196C208.568 167.487 208.955 167.923 209.184 168.445C209.496 168.925 209.656 169.487 209.642 170.059C209.559 170.059 209.36 169.368 208.929 168.583C208.498 167.799 208.023 167.251 208.078 167.196Z" fill="#FAFAFA"/>
<path d="M221.481 187.414C221 187.845 220.409 188.136 219.773 188.254C219.162 188.46 218.506 188.493 217.877 188.348C217.877 188.265 218.718 188.232 219.701 187.972C220.685 187.712 221.448 187.342 221.481 187.414Z" fill="#FAFAFA"/>
<path d="M225.35 194.218C223.357 194.579 221.334 194.749 219.309 194.726C220.297 194.499 221.303 194.366 222.316 194.328C223.321 194.192 224.337 194.155 225.35 194.218Z" fill="#FAFAFA"/>
<path d="M228.036 199.689C225.07 199.807 222.1 199.733 219.143 199.468C222.109 199.35 225.08 199.424 228.036 199.689Z" fill="#FAFAFA"/>
<path d="M208.476 144.84C208.846 146.714 211.538 147.46 211.792 149.35C211.903 150.157 211.516 150.964 211.549 151.782C211.582 152.887 212.351 153.81 212.737 154.838C213.544 156.961 212.638 159.476 210.93 160.973C209.222 162.471 206.89 163.079 204.624 163.123" fill="#263238"/>
<path d="M193.233 146.774C193.471 147.775 192.946 148.78 192.393 149.648C191.84 150.516 191.216 151.422 191.227 152.445C191.227 154.269 193.25 155.645 193.172 157.463C193.128 158.436 192.476 159.315 192.487 160.293C192.534 160.764 192.681 161.219 192.918 161.627C193.156 162.036 193.478 162.39 193.863 162.664C194.582 163.272 195.278 163.057 195.941 163.731C196.706 164.483 197.619 165.069 198.622 165.45C200.739 166.207 202.839 164.289 203.74 163.863" fill="#263238"/>
<path d="M209.029 145.863C208.907 144.94 207.924 144.365 207.039 144.166C206.155 143.967 205.166 143.989 204.32 143.613C203.618 143.188 202.959 142.696 202.352 142.143C201.536 141.539 200.573 141.164 199.563 141.056C198.554 140.947 197.533 141.11 196.607 141.526C195.681 141.942 194.882 142.598 194.293 143.425C193.704 144.252 193.346 145.221 193.255 146.233C193.133 147.592 193.603 149.101 194.769 149.809C196.123 150.627 197.864 150.124 199.346 149.566C200.827 149.007 202.513 148.427 203.933 149.123C204.746 149.631 205.441 150.305 205.973 151.102C206.569 151.843 207.293 152.583 208.233 152.76C209.173 152.937 210.3 152.207 210.19 151.257" fill="#263238"/>
<path d="M209.349 165.433L207.139 147.531C207.085 147.146 206.89 146.794 206.59 146.545C206.29 146.297 205.908 146.169 205.519 146.188L197.052 145.398C194.399 145.531 193.183 149.013 193.404 151.66C193.675 154.595 194.117 158.176 194.803 160.293C196.173 164.549 199.605 164.582 199.605 164.582C199.605 164.582 200.225 170.883 200.479 172.43" fill="#FFBE9D"/>
<path d="M194.543 154.926C194.552 155 194.575 155.071 194.612 155.135C194.648 155.199 194.698 155.255 194.756 155.3C194.815 155.345 194.882 155.377 194.954 155.396C195.025 155.414 195.1 155.418 195.173 155.407C195.318 155.393 195.451 155.323 195.544 155.211C195.637 155.099 195.683 154.955 195.67 154.81C195.661 154.737 195.638 154.666 195.601 154.602C195.565 154.538 195.516 154.482 195.457 154.437C195.398 154.392 195.331 154.359 195.259 154.341C195.188 154.323 195.113 154.319 195.04 154.329C194.895 154.344 194.762 154.414 194.669 154.526C194.576 154.638 194.53 154.781 194.543 154.926Z" fill="#263238"/>
<path d="M194.399 153.821C194.482 153.888 194.858 153.506 195.46 153.412C196.063 153.318 196.566 153.556 196.604 153.468C196.643 153.379 196.538 153.313 196.328 153.202C196.039 153.061 195.712 153.013 195.394 153.064C195.08 153.112 194.789 153.259 194.565 153.484C194.399 153.656 194.344 153.794 194.399 153.821Z" fill="#263238"/>
<path d="M200.617 154.037C200.626 154.11 200.649 154.18 200.685 154.244C200.722 154.308 200.77 154.364 200.828 154.408C200.887 154.453 200.953 154.486 201.024 154.505C201.095 154.524 201.169 154.528 201.242 154.518C201.385 154.504 201.518 154.434 201.611 154.324C201.704 154.213 201.75 154.071 201.739 153.927C201.73 153.854 201.707 153.783 201.671 153.72C201.634 153.656 201.586 153.6 201.527 153.555C201.469 153.511 201.403 153.478 201.332 153.459C201.261 153.44 201.187 153.436 201.114 153.446C200.971 153.46 200.838 153.53 200.745 153.64C200.652 153.751 200.606 153.893 200.617 154.037Z" fill="#263238"/>
<path d="M200.324 153.014C200.407 153.075 200.783 152.694 201.385 152.605C201.987 152.517 202.49 152.744 202.529 152.661C202.568 152.578 202.463 152.5 202.247 152.39C201.959 152.25 201.634 152.204 201.319 152.257C201.006 152.306 200.716 152.451 200.49 152.672C200.329 152.843 200.285 152.987 200.324 153.014Z" fill="#263238"/>
<path d="M198.821 157.823C198.486 157.782 198.149 157.782 197.815 157.823C197.66 157.823 197.511 157.823 197.466 157.718C197.427 157.561 197.438 157.397 197.5 157.248C197.582 156.855 197.676 156.441 197.77 156.004C198.04 154.946 198.224 153.869 198.323 152.782C197.97 153.816 197.7 154.877 197.516 155.955C197.428 156.393 197.345 156.807 197.267 157.198C197.196 157.398 197.196 157.617 197.267 157.817C197.298 157.868 197.34 157.912 197.389 157.944C197.439 157.977 197.496 157.998 197.555 158.005C197.645 158.014 197.736 158.014 197.826 158.005C198.164 157.988 198.498 157.927 198.821 157.823Z" fill="#263238"/>
<path d="M199.583 164.582C201.63 164.337 203.561 163.504 205.143 162.183C204.679 163.241 203.919 164.141 202.953 164.774C201.988 165.408 200.86 165.748 199.705 165.754L199.583 164.582Z" fill="#EB996E"/>
<path d="M199.313 159.238C199.406 159.076 199.538 158.941 199.698 158.844C199.857 158.748 200.038 158.693 200.225 158.685C200.359 158.677 200.494 158.696 200.621 158.74C200.748 158.785 200.865 158.855 200.965 158.945C201.061 159.033 201.128 159.149 201.157 159.276C201.185 159.404 201.175 159.537 201.125 159.658C201.046 159.781 200.931 159.878 200.796 159.935C200.661 159.992 200.512 160.007 200.368 159.979C200.067 159.924 199.779 159.809 199.523 159.641C199.45 159.601 199.383 159.551 199.324 159.492C199.297 159.461 199.28 159.424 199.274 159.384C199.269 159.344 199.274 159.303 199.29 159.266" fill="#EB996E"/>
<path d="M200.672 157.967C200.573 157.967 200.672 158.63 200.186 159.177C199.699 159.724 198.992 159.768 198.997 159.857C199.003 159.945 199.174 159.962 199.473 159.923C199.859 159.862 200.212 159.666 200.468 159.371C200.713 159.092 200.843 158.73 200.832 158.359C200.816 158.105 200.716 157.956 200.672 157.967Z" fill="#263238"/>
<path d="M199.782 151.373C199.871 151.528 200.462 151.373 201.181 151.329C201.899 151.285 202.502 151.406 202.573 151.246C202.645 151.086 202.48 151.03 202.225 150.909C201.888 150.762 201.521 150.694 201.153 150.71C200.785 150.726 200.426 150.826 200.103 151.003C199.86 151.146 199.749 151.296 199.782 151.373Z" fill="#263238"/>
<path d="M194.333 152.047C194.46 152.164 194.852 151.959 195.35 151.876C195.847 151.793 196.289 151.821 196.361 151.666C196.433 151.511 196.306 151.462 196.101 151.362C195.831 151.241 195.529 151.208 195.239 151.268C194.946 151.317 194.676 151.456 194.465 151.666C194.311 151.837 194.278 151.987 194.333 152.047Z" fill="#263238"/>
<path d="M209.593 160.934C208.432 161.366 208.227 160.774 207.199 160.078C206.687 159.726 206.264 159.26 205.963 158.716C205.663 158.172 205.494 157.565 205.47 156.944C205.436 155.839 205.84 154.667 205.309 153.711C204.602 152.451 202.656 152.335 201.949 151.074C201.534 150.339 201.65 149.389 201.203 148.681C200.958 148.371 200.653 148.113 200.307 147.923C199.96 147.733 199.579 147.615 199.185 147.576C198.397 147.499 197.625 147.299 196.897 146.984C196.206 146.603 195.681 145.757 195.974 145.022C199.296 144.9 202.621 145.173 205.879 145.835C206.649 145.919 207.373 146.242 207.951 146.758C208.436 147.419 208.701 148.215 208.708 149.035C209.147 152.981 209.582 156.929 210.013 160.879" fill="#263238"/>
<path d="M210.93 151.594C210.887 150.858 211.084 150.128 211.493 149.514C211.901 148.9 212.498 148.436 213.194 148.192C213.89 147.948 214.646 147.937 215.348 148.161C216.051 148.385 216.661 148.831 217.087 149.433C217.451 150.028 217.68 150.696 217.759 151.389C217.838 152.082 217.766 152.784 217.546 153.446C217.109 155.043 215.949 156.618 214.302 156.8C212.76 156.972 211.312 155.822 210.637 154.418C209.963 153.014 209.891 151.412 209.83 149.859" fill="#263238"/>
<path d="M212.732 157.442C212.814 157.357 212.877 157.258 212.92 157.149C213.048 156.858 213.112 156.543 213.108 156.226C213.099 155.756 213.011 155.29 212.848 154.849C212.682 154.352 212.422 153.844 212.207 153.291C211.984 152.785 211.864 152.24 211.853 151.688C211.853 151.191 212.03 150.743 212.074 150.339C212.122 150.023 212.08 149.699 211.953 149.405C211.848 149.201 211.737 149.123 211.732 149.135C211.726 149.146 211.803 149.234 211.881 149.433C211.975 149.72 211.994 150.026 211.936 150.323C211.821 150.77 211.735 151.224 211.676 151.682C211.677 152.253 211.796 152.818 212.025 153.341C212.246 153.893 212.511 154.407 212.682 154.888C212.844 155.31 212.941 155.753 212.97 156.204C212.985 156.629 212.904 157.052 212.732 157.442Z" fill="#455A64"/>
<path d="M211.969 152.185C212.178 152.428 212.441 152.617 212.738 152.738C213.436 153.084 214.223 153.212 214.996 153.103C215.768 152.995 216.489 152.656 217.065 152.13C217.316 151.931 217.518 151.678 217.657 151.389C217.629 151.389 217.425 151.666 216.977 152.025C216.399 152.493 215.706 152.798 214.971 152.909C214.233 153.007 213.482 152.904 212.798 152.611C212.268 152.39 211.986 152.157 211.969 152.185Z" fill="#455A64"/>
<path d="M212.29 152.838C212.409 153.075 212.572 153.287 212.771 153.462C213.223 153.919 213.765 154.276 214.362 154.512C214.955 154.755 215.59 154.876 216.23 154.866C216.495 154.881 216.761 154.842 217.01 154.75C216.752 154.734 216.494 154.734 216.236 154.75C214.989 154.695 213.799 154.213 212.864 153.385C212.684 153.191 212.492 153.008 212.29 152.838Z" fill="#455A64"/>
<path d="M212.14 159.028C212.14 159.028 212.14 159.028 212.185 158.967C212.218 158.904 212.248 158.84 212.273 158.774C212.379 158.517 212.437 158.244 212.444 157.967C212.457 157.525 212.362 157.087 212.168 156.69C211.914 156.153 211.477 155.724 210.936 155.48C210.285 155.269 209.674 154.951 209.128 154.54C208.997 154.412 208.894 154.257 208.826 154.087C208.757 153.917 208.725 153.734 208.73 153.551C208.753 153.147 208.819 152.746 208.929 152.357C209.035 151.915 209.048 151.456 208.967 151.009C208.886 150.562 208.713 150.136 208.46 149.759C208.192 149.357 207.829 149.027 207.404 148.797C206.956 148.585 206.468 148.468 205.972 148.455C205.486 148.422 205.005 148.455 204.546 148.372C204.096 148.328 203.663 148.174 203.286 147.924C202.945 147.656 202.706 147.28 202.606 146.857C202.499 146.436 202.362 146.022 202.197 145.619C201.88 144.866 201.359 144.216 200.694 143.74C200.107 143.332 199.409 143.114 198.693 143.116C198.099 143.106 197.518 143.288 197.035 143.635C196.676 143.893 196.387 144.237 196.195 144.636C196.073 144.886 195.997 145.155 195.969 145.432C195.955 145.527 195.955 145.624 195.969 145.719C195.993 145.353 196.09 144.996 196.256 144.669C196.488 144.231 196.838 143.866 197.265 143.616C197.693 143.365 198.181 143.238 198.677 143.248C199.361 143.258 200.026 143.475 200.584 143.873C201.22 144.336 201.718 144.965 202.021 145.691C202.174 146.091 202.305 146.499 202.413 146.913C202.524 147.373 202.787 147.782 203.159 148.073C203.559 148.347 204.021 148.516 204.502 148.565C204.983 148.632 205.464 148.615 205.945 148.648C206.412 148.661 206.872 148.772 207.293 148.974C207.694 149.183 208.036 149.489 208.288 149.864C208.528 150.221 208.691 150.624 208.768 151.047C208.845 151.47 208.834 151.905 208.736 152.324C208.627 152.724 208.562 153.136 208.542 153.551C208.536 153.756 208.574 153.961 208.652 154.151C208.73 154.342 208.847 154.514 208.996 154.656C209.558 155.081 210.19 155.404 210.864 155.612C211.378 155.829 211.798 156.221 212.052 156.718C212.247 157.099 212.349 157.521 212.351 157.95C212.352 158.32 212.281 158.686 212.14 159.028Z" fill="#455A64"/>
<path d="M209.924 146.891C209.941 146.822 209.941 146.75 209.924 146.681C209.908 146.476 209.827 146.282 209.692 146.128C209.477 145.879 209.185 145.709 208.863 145.642C208.437 145.573 208 145.627 207.603 145.796C207.161 145.957 206.713 146.211 206.21 146.393C205.957 146.509 205.682 146.57 205.403 146.57C205.125 146.57 204.85 146.509 204.596 146.393C204.081 146.032 203.671 145.539 203.408 144.967C203.072 144.348 202.637 143.788 202.12 143.309C201.119 142.381 199.838 141.811 198.478 141.69C197.881 141.649 197.284 141.762 196.743 142.016C196.27 142.241 195.872 142.596 195.593 143.038C195.366 143.409 195.262 143.843 195.295 144.276C195.316 144.6 195.416 144.913 195.587 145.188C195.692 145.362 195.829 145.514 195.991 145.636C196.049 145.676 196.11 145.711 196.173 145.741C195.967 145.574 195.789 145.375 195.648 145.15C195.499 144.878 195.414 144.575 195.4 144.265C195.382 143.858 195.49 143.455 195.709 143.11C195.981 142.695 196.364 142.366 196.814 142.16C197.333 141.923 197.904 141.824 198.473 141.872C199.788 141.997 201.026 142.552 201.993 143.453C202.495 143.913 202.921 144.45 203.253 145.045C203.531 145.644 203.966 146.156 204.513 146.526C204.793 146.674 205.11 146.739 205.425 146.714C205.715 146.691 206 146.626 206.271 146.52C206.796 146.321 207.233 146.062 207.658 145.896C208.03 145.728 208.442 145.667 208.847 145.719C209.15 145.774 209.427 145.925 209.637 146.15C209.774 146.29 209.863 146.47 209.891 146.664C209.93 146.813 209.913 146.891 209.924 146.891Z" fill="#455A64"/>
</svg>
