<svg width="210" height="47" viewBox="0 0 210 47" fill="none" xmlns="http://www.w3.org/2000/svg">
<mask id="mask0_1_1426" style="mask-type:luminance" maskUnits="userSpaceOnUse" x="167" y="10" width="25" height="5">
<path d="M167.177 10.2738H191.456V14.2289H167.177V10.2738Z" fill="white"/>
</mask>
<g mask="url(#mask0_1_1426)">
<path d="M190.684 12.6255C186.499 11.6615 182.838 12.8418 178.789 13.7503C174.804 14.6432 170.913 14.1272 167.177 12.4494C171.358 13.4135 175.022 12.2362 179.068 11.3247C183.053 10.4317 186.944 10.9477 190.684 12.6255Z" fill="#0069C9"/>
</g>
<path d="M172.963 10.2711C176.724 5.92983 182.732 3.30342 188.204 5.27168C190.862 6.22646 193.348 7.78067 196.155 8.25652C199.19 8.76944 201.975 7.61382 204.525 5.99472L204.649 6.14921C202.842 8.23489 200.452 9.81382 197.724 10.1506C194.735 10.5183 191.904 9.37197 189.164 8.30287C186.699 7.33882 184.473 6.73629 181.824 7.24303C178.78 7.82393 175.895 9.14332 173.081 10.4318L172.963 10.2711Z" fill="#0069C9"/>
<mask id="mask1_1_1426" style="mask-type:luminance" maskUnits="userSpaceOnUse" x="177" y="-1" width="34" height="16">
<path d="M177.503 -0.00882421H210.061V14.8103H177.503V-0.00882421Z" fill="white"/>
</mask>
<g mask="url(#mask1_1_1426)">
<path d="M177.881 10.1997C180.425 8.19748 184.589 8.66097 187.45 9.25114C189.515 9.67754 191.447 10.4562 193.461 11.0773C196.556 12.032 200.065 11.8652 202.948 10.2677C204.283 9.52614 205.437 8.45704 206.009 6.96771C206.869 4.72754 206.224 2.37613 205.834 0.114326L205.994 0C208.744 1.80759 210.212 5.45984 209.201 8.72277C208.062 12.409 204.392 14.402 200.84 14.5596C195.559 14.7975 191.42 11.4759 186.554 10.0761C184.037 9.35001 180.373 8.72895 178.002 10.3573L177.881 10.1997Z" fill="#0069C9"/>
</g>
<path d="M0 38.5169H5.71099V22.6966L16.8786 38.5169H21.7569V12.7039H16.0459V28.4129L4.88129 12.7039H0V38.5169Z" fill="#0069C9"/>
<path d="M26.0885 38.5156H31.5815V19.1574H26.0885V38.5156ZM25.2921 12.888C25.2921 14.952 26.7396 16.3919 28.835 16.3919C30.9305 16.3919 32.3749 14.952 32.3749 12.888C32.3749 10.8239 30.9305 9.38406 28.835 9.38406C26.7396 9.38406 25.2921 10.8239 25.2921 12.888Z" fill="#0069C9"/>
<path d="M35.6273 38.5161H41.1202V11.2293H35.6273V38.5161Z" fill="#0069C9"/>
<path d="M54.1295 39.0318C58.7897 39.0318 62.4749 36.597 64.1373 32.506H58.5717C57.6693 33.7945 56.0432 34.5329 54.2354 34.5329C51.7433 34.5329 49.7932 33.0961 49.2845 30.4388H64.5007C64.8247 23.3599 60.7065 18.6416 54.1991 18.6416C48.0581 18.6416 43.8279 22.8068 43.8279 28.8166C43.8279 34.8667 48.0218 39.0318 54.1295 39.0318ZM49.3208 26.9009C49.9356 24.5402 51.816 23.1034 54.2354 23.1034C56.7669 23.1034 58.5717 24.5402 59.1864 26.9009H49.3208Z" fill="#0069C9"/>
<path d="M68.9009 38.5169H80.7922C85.9218 38.5169 89.392 35.6402 89.392 31.2896C89.392 28.5242 87.9839 26.3118 85.5978 25.2427C87.5116 24.0994 88.632 22.0694 88.632 19.6376C88.632 15.3952 85.3434 12.7039 80.2139 12.7039H68.9009V38.5169ZM74.5755 33.8697V27.6744H79.9232C82.2003 27.6744 83.5024 28.8177 83.5024 30.7736C83.5024 32.7264 82.2003 33.8697 79.9232 33.8697H74.5755ZM74.5755 23.2126V17.3511H79.3448C81.5492 17.3511 82.7787 18.3831 82.7787 20.2649C82.7787 22.1435 81.5492 23.2126 79.3448 23.2126H74.5755Z" fill="#00BF63"/>
<path d="M101.386 39.0318C107.672 39.0318 112.009 34.8667 112.009 28.8166C112.009 22.8068 107.672 18.6416 101.386 18.6416C95.0604 18.6416 90.7241 22.8068 90.7241 28.8166C90.7241 34.8667 95.0604 39.0318 101.386 39.0318ZM96.1475 28.8166C96.1475 25.6464 98.3156 23.4341 101.386 23.4341C104.457 23.4341 106.588 25.6464 106.588 28.8166C106.588 31.99 104.457 34.2023 101.386 34.2023C98.3156 34.2023 96.1475 31.99 96.1475 28.8166Z" fill="#00BF63"/>
<path d="M124.041 39.0318C130.327 39.0318 134.663 34.8667 134.663 28.8166C134.663 22.8068 130.327 18.6416 124.041 18.6416C117.715 18.6416 113.379 22.8068 113.379 28.8166C113.379 34.8667 117.715 39.0318 124.041 39.0318ZM118.802 28.8166C118.802 25.6464 120.97 23.4341 124.041 23.4341C127.111 23.4341 129.243 25.6464 129.243 28.8166C129.243 31.99 127.111 34.2023 124.041 34.2023C120.97 34.2023 118.802 31.99 118.802 28.8166Z" fill="#00BF63"/>
<path d="M137.372 38.5161H142.865V31.1406H145.83L150.021 38.5161H156.416L150.959 29.2619C151.971 28.338 152.767 27.0495 153.382 25.3161L155.586 19.158H149.657L148.322 23.3602C147.598 25.5355 146.587 26.1257 144.273 26.1257H142.865V11.2293H137.372V38.5161Z" fill="#00BF63"/>
<path d="M158.654 38.5156H164.147V19.1574H158.654V38.5156ZM157.857 12.888C157.857 14.952 159.305 16.3919 161.4 16.3919C163.496 16.3919 164.94 14.952 164.94 12.888C164.94 10.8239 163.496 9.38406 161.4 9.38406C159.305 9.38406 157.857 10.8239 157.857 12.888Z" fill="#00BF63"/>
<path d="M168.192 38.5158H173.685V28.3748C173.685 25.3158 175.348 23.4341 177.876 23.4341C180.226 23.4341 181.634 25.1304 181.634 27.97V38.5158H187.127V27.3798C187.127 22.0343 184.129 18.6416 179.178 18.6416C176.65 18.6416 174.373 19.5253 172.853 21.3329L172.277 19.1576H168.192V38.5158Z" fill="#00BF63"/>
<path d="M200.062 46.7009C206.133 46.7009 210 43.2372 210 37.4467V19.1576H205.915L205.337 21.2958C203.674 19.5995 201.364 18.6416 198.654 18.6416C193.303 18.6416 189.472 22.6585 189.472 28.3006C189.472 33.9799 193.303 37.9998 198.654 37.9998C200.928 37.9998 202.954 37.2984 204.507 36.081V37.4467C204.507 40.5799 202.954 42.165 199.953 42.165C197.676 42.165 196.158 41.2071 195.762 39.5108H190.414C190.884 43.9726 194.569 46.7009 200.062 46.7009ZM194.896 28.3006C194.896 25.3529 196.919 23.2857 199.81 23.2857C202.699 23.2857 204.758 25.3529 204.758 28.3006C204.758 31.2886 202.699 33.3526 199.81 33.3526C196.919 33.3526 194.896 31.2886 194.896 28.3006Z" fill="#00BF63"/>
</svg>
