<svg width="105" height="13" viewBox="0 0 105 13" fill="none" xmlns="http://www.w3.org/2000/svg">
<path d="M6.03472 0.43413L4.38453 3.66098L0.692437 4.1801C0.0303372 4.27272 -0.235008 5.05993 0.245141 5.51082L2.91628 8.02113L2.28451 11.5673C2.17079 12.2082 2.8708 12.6884 3.45708 12.3886L6.76 10.7142L10.0629 12.3886C10.6492 12.6859 11.3492 12.2082 11.2355 11.5673L10.6037 8.02113L13.2749 5.51082C13.755 5.05993 13.4897 4.27272 12.8276 4.1801L9.13547 3.66098L7.48528 0.43413C7.18961 -0.141049 6.33292 -0.14836 6.03472 0.43413Z" fill="#FBBC04"/>
<path d="M23.7147 0.43413L22.0645 3.66098L18.3724 4.1801C17.7103 4.27272 17.4449 5.05993 17.9251 5.51082L20.5962 8.02113L19.9644 11.5673C19.8507 12.2082 20.5507 12.6884 21.137 12.3886L24.4399 10.7142L27.7429 12.3886C28.3291 12.6859 29.0291 12.2082 28.9154 11.5673L28.2836 8.02113L30.9548 5.51082C31.4349 5.05993 31.1696 4.27272 30.5075 4.1801L26.8154 3.66098L25.1652 0.43413C24.8695 -0.141049 24.0129 -0.14836 23.7147 0.43413Z" fill="#FBBC04"/>
<path d="M41.3948 0.43413L39.7446 3.66098L36.0525 4.1801C35.3904 4.27272 35.1251 5.05993 35.6052 5.51082L38.2764 8.02113L37.6446 11.5673C37.5309 12.2082 38.2309 12.6884 38.8172 12.3886L42.1201 10.7142L45.423 12.3886C46.0093 12.6859 46.7093 12.2082 46.5956 11.5673L45.9638 8.02113L48.635 5.51082C49.1151 5.05993 48.8498 4.27272 48.1877 4.1801L44.4956 3.66098L42.8454 0.43413C42.5497 -0.141049 41.693 -0.14836 41.3948 0.43413Z" fill="#FBBC04"/>
<path d="M59.0748 0.43413L57.4246 3.66098L53.7325 4.1801C53.0704 4.27272 52.805 5.05993 53.2852 5.51082L55.9563 8.02113L55.3245 11.5673C55.2108 12.2082 55.9108 12.6884 56.4971 12.3886L59.8 10.7142L63.103 12.3886C63.6892 12.6859 64.3893 12.2082 64.2755 11.5673L63.6438 8.02113L66.3149 5.51082C66.795 5.05993 66.5297 4.27272 65.8676 4.1801L62.1755 3.66098L60.5253 0.43413C60.2296 -0.141049 59.373 -0.14836 59.0748 0.43413Z" fill="#FBBC04"/>
<path d="M76.7547 0.43413L75.1045 3.66098L71.4124 4.1801C70.7503 4.27272 70.485 5.05993 70.9651 5.51082L73.6363 8.02113L73.0045 11.5673C72.8908 12.2082 73.5908 12.6884 74.1771 12.3886L77.48 10.7142L80.7829 12.3886C81.3692 12.6859 82.0692 12.2082 81.9555 11.5673L81.3237 8.02113L83.9948 5.51082C84.475 5.05993 84.2096 4.27272 83.5475 4.1801L79.8554 3.66098L78.2052 0.43413C77.9096 -0.141049 77.0529 -0.14836 76.7547 0.43413Z" fill="#DEDEDE"/>
</svg>
