<svg width="24" height="24" viewBox="0 0 24 24" fill="none" xmlns="http://www.w3.org/2000/svg">
<path fill-rule="evenodd" clip-rule="evenodd" d="M4.44852 2.75137C3.9799 2.28275 3.2201 2.28275 2.75147 2.75137C2.28284 3.22 2.28284 3.9798 2.75147 4.44843L19.5515 21.2484C20.0201 21.7171 20.7799 21.7171 21.2485 21.2484C21.7172 20.7798 21.7172 20.02 21.2485 19.5514L19.4807 17.7836C21.3258 16.3108 22.7268 14.3052 23.4509 11.9999C21.9217 7.13136 17.3734 3.5999 12.0003 3.5999C10.052 3.5999 8.21213 4.0642 6.58534 4.88819L4.44852 2.75137ZM9.56175 7.8646L11.3784 9.68126C11.5768 9.62819 11.7852 9.5999 12.0003 9.5999C13.3258 9.5999 14.4003 10.6744 14.4003 11.9999C14.4003 12.215 14.372 12.4234 14.3189 12.6218L16.1356 14.4385C16.5579 13.7238 16.8003 12.8902 16.8003 11.9999C16.8003 9.34894 14.6513 7.1999 12.0003 7.1999C11.1101 7.1999 10.2764 7.44226 9.56175 7.8646Z" fill="#0075C3"/>
<path d="M14.9449 20.0359L11.6996 16.7906C9.28815 16.6416 7.35863 14.712 7.20957 12.3006L2.8019 7.89296C1.80075 9.08658 1.02764 10.4779 0.549606 11.9999C2.07874 16.8685 6.62708 20.3999 12.0002 20.3999C13.0162 20.3999 14.0027 20.2736 14.9449 20.0359Z" fill="#0075C3"/>
</svg>
