<svg width="20" height="20" viewBox="0 0 20 20" fill="none" xmlns="http://www.w3.org/2000/svg">
<g clip-path="url(#clip0_147_2486)">
<path d="M10.7251 12.5581L8.60845 10.4664L8.63345 10.4414C10.0834 8.82476 11.1168 6.96643 11.7251 4.99976H14.1668V3.3331H8.33345V1.66644H6.66679V3.3331H0.833468V4.99143H10.1418C9.58345 6.59976 8.70012 8.12476 7.50012 9.45809C6.72512 8.59976 6.08346 7.65809 5.57512 6.66643H3.90846C4.51679 8.02476 5.35012 9.30809 6.39179 10.4664L2.15013 14.6497L3.33346 15.8331L7.50012 11.6664L10.0918 14.2581L10.7251 12.5581ZM15.4168 8.33309H13.7501L10.0001 18.3331H11.6668L12.6001 15.8331H16.5584L17.5001 18.3331H19.1668L15.4168 8.33309ZM13.2334 14.1664L14.5834 10.5581L15.9334 14.1664H13.2334Z" fill="#0075C3"/>
</g>
<defs>
<clipPath id="clip0_147_2486">
<rect width="19.6491" height="19.6491" fill="white" transform="scale(1.01785)"/>
</clipPath>
</defs>
</svg>
