<svg width="141" height="88" viewBox="0 0 141 88" fill="none" xmlns="http://www.w3.org/2000/svg">
<path d="M0 65.9893C1.77918 74.9879 52.8507 91.9108 69.8203 87.1443C82.2969 83.6393 94.7058 79.7166 106.293 74.1117C117.88 68.5056 128.675 61.141 136.854 51.5681C137.47 50.8468 138.078 50.1011 138.438 49.2395C139.573 46.5265 137.893 43.3595 135.409 41.6263C132.927 39.8931 129.818 39.2281 126.84 38.4637C121.674 37.137 116.631 35.3873 111.783 33.241C110.395 32.6268 108.921 31.8833 108.29 30.5633C107.045 27.9574 109.818 25.2246 112.515 23.931C119.635 20.5155 128.046 20.3829 135.415 17.4766C138.477 16.2681 141.772 13.6214 140.839 10.6112C140.227 8.63279 138.04 7.55024 136.063 6.6842C130.969 4.45613 125.874 2.22807 120.778 0C122.616 1.61278 124.25 3.43213 125.639 5.40613C126.268 6.29979 126.867 7.29949 126.806 8.3721C126.693 10.366 124.462 11.5778 122.462 12.2185C116.09 14.261 109.239 14.3571 102.549 15.0419C94.9932 15.8163 87.5282 17.365 80.325 19.6549C77.1345 20.6701 73.582 22.2453 72.7479 25.3284C71.8507 28.6357 74.6626 31.8646 77.7817 33.5867C82.2899 36.0744 87.7514 36.8134 92.0329 39.6357C93.5131 40.6111 94.9278 42.4305 93.9745 43.8787C93.6264 44.4056 93.0318 44.737 92.457 45.0397C87.3413 47.7372 81.9301 49.9332 76.3378 51.5803C70.4651 53.3123 64.4137 54.4347 58.3764 55.5548C39.8051 58.9991 48.8185 57.5459 30.2461 60.9901L0 65.9893Z" fill="#0075C3"/>
</svg>
