<svg width="31" height="38" viewBox="0 0 31 38" fill="none" xmlns="http://www.w3.org/2000/svg">
<g clip-path="url(#clip0_53_558)">
<path d="M29.9478 12.9542C29.7274 13.1252 25.8362 15.3178 25.8362 20.1932C25.8362 25.8324 30.7876 27.8274 30.9358 27.8768C30.913 27.9984 30.1492 30.609 28.3252 33.269C26.6988 35.6098 25.0002 37.9468 22.4162 37.9468C19.8322 37.9468 19.1672 36.4458 16.1842 36.4458C13.2772 36.4458 12.2436 37.9962 9.88 37.9962C7.5164 37.9962 5.8672 35.8302 3.971 33.1702C1.7746 30.0466 0 25.194 0 20.5884C0 13.2012 4.8032 9.2834 9.5304 9.2834C12.0422 9.2834 14.136 10.9326 15.713 10.9326C17.214 10.9326 19.5548 9.1846 22.4124 9.1846C23.4954 9.1846 27.3866 9.2834 29.9478 12.9542ZM21.0558 6.0572C22.2376 4.655 23.0736 2.7094 23.0736 0.7638C23.0736 0.494 23.0508 0.2204 23.0014 0C21.0786 0.0722 18.791 1.2806 17.4116 2.8804C16.3286 4.1116 15.3178 6.0572 15.3178 8.0294C15.3178 8.3258 15.3672 8.6222 15.39 8.7172C15.5116 8.74 15.7092 8.7666 15.9068 8.7666C17.632 8.7666 19.8018 7.6114 21.0558 6.0572Z" fill="black"/>
</g>
<defs>
<clipPath id="clip0_53_558">
<rect width="30.932" height="38" fill="white"/>
</clipPath>
</defs>
</svg>
