<svg width="20" height="20" viewBox="0 0 20 20" fill="none" xmlns="http://www.w3.org/2000/svg">
<g clip-path="url(#clip0_147_2557)">
<path d="M18.2223 3.26979L10.7224 0.144799C10.4939 0.0500257 10.249 0.0012425 10.0017 0.0012425C9.75432 0.0012425 9.50942 0.0500257 9.28096 0.144799L1.78098 3.26979C1.08176 3.55885 0.624728 4.24245 0.624728 5.00026C0.624728 12.7541 5.09737 18.1135 9.27705 19.8557C9.73799 20.0471 10.2575 20.0471 10.7185 19.8557C14.0661 18.4612 19.3747 13.6448 19.3747 5.00026C19.3747 4.24245 18.9177 3.55885 18.2223 3.26979ZM10.0036 17.4338L9.99971 2.55104L16.8708 5.41432C16.7419 11.3284 13.6638 15.6135 10.0036 17.4338Z" fill="#0075C3"/>
</g>
<defs>
<clipPath id="clip0_147_2557">
<rect width="19.6491" height="19.6491" fill="white" transform="scale(1.01785)"/>
</clipPath>
</defs>
</svg>
