<svg width="24" height="24" viewBox="0 0 24 24" fill="none" xmlns="http://www.w3.org/2000/svg">
<g clip-path="url(#clip0_71_745)">
<path d="M11.5 20.5H10.5V23.5H11.5V20.5Z" fill="white"/>
<path d="M13.5 20.5H12.5V23.5H13.5V20.5Z" fill="white"/>
<path d="M14.5 15.5H13.5V16.5H14.5V15.5Z" fill="white"/>
<path d="M14.5 11.5H13.5V12.5H14.5V11.5Z" fill="white"/>
<path d="M10.5 11.5H9.5V12.5H10.5V11.5Z" fill="white"/>
<path d="M10.5 15.5H9.5V16.5H10.5V15.5Z" fill="white"/>
<path d="M6.5 23.5H9.5V20C9.5 19.8674 9.55268 19.7402 9.64645 19.6464C9.74021 19.5527 9.86739 19.5 10 19.5H14C14.1326 19.5 14.2598 19.5527 14.3536 19.6464C14.4473 19.7402 14.5 19.8674 14.5 20V23.5H17.5V8.5H6.5V23.5ZM12.5 11C12.5 10.8674 12.5527 10.7402 12.6464 10.6464C12.7402 10.5527 12.8674 10.5 13 10.5H15C15.1326 10.5 15.2598 10.5527 15.3536 10.6464C15.4473 10.7402 15.5 10.8674 15.5 11V13C15.5 13.1326 15.4473 13.2598 15.3536 13.3536C15.2598 13.4473 15.1326 13.5 15 13.5H13C12.8674 13.5 12.7402 13.4473 12.6464 13.3536C12.5527 13.2598 12.5 13.1326 12.5 13V11ZM12.5 15C12.5 14.8674 12.5527 14.7402 12.6464 14.6464C12.7402 14.5527 12.8674 14.5 13 14.5H15C15.1326 14.5 15.2598 14.5527 15.3536 14.6464C15.4473 14.7402 15.5 14.8674 15.5 15V17C15.5 17.1326 15.4473 17.2598 15.3536 17.3536C15.2598 17.4473 15.1326 17.5 15 17.5H13C12.8674 17.5 12.7402 17.4473 12.6464 17.3536C12.5527 17.2598 12.5 17.1326 12.5 17V15ZM8.5 11C8.5 10.8674 8.55268 10.7402 8.64645 10.6464C8.74021 10.5527 8.86739 10.5 9 10.5H11C11.1326 10.5 11.2598 10.5527 11.3536 10.6464C11.4473 10.7402 11.5 10.8674 11.5 11V13C11.5 13.1326 11.4473 13.2598 11.3536 13.3536C11.2598 13.4473 11.1326 13.5 11 13.5H9C8.86739 13.5 8.74021 13.4473 8.64645 13.3536C8.55268 13.2598 8.5 13.1326 8.5 13V11ZM8.5 15C8.5 14.8674 8.55268 14.7402 8.64645 14.6464C8.74021 14.5527 8.86739 14.5 9 14.5H11C11.1326 14.5 11.2598 14.5527 11.3536 14.6464C11.4473 14.7402 11.5 14.8674 11.5 15V17C11.5 17.1326 11.4473 17.2598 11.3536 17.3536C11.2598 17.4473 11.1326 17.5 11 17.5H9C8.86739 17.5 8.74021 17.4473 8.64645 17.3536C8.55268 17.2598 8.5 17.1326 8.5 17V15Z" fill="white"/>
<path d="M18 6.5H6V7.5H18V6.5Z" fill="white"/>
<path d="M3.5 14.5H2.5V15.5H3.5V14.5Z" fill="white"/>
<path d="M3.5 18.5H2.5V19.5H3.5V18.5Z" fill="white"/>
<path d="M0.5 23.5H5.5V11.5H0.5V23.5ZM1.5 14C1.5 13.8674 1.55268 13.7402 1.64645 13.6464C1.74021 13.5527 1.86739 13.5 2 13.5H4C4.13261 13.5 4.25979 13.5527 4.35355 13.6464C4.44732 13.7402 4.5 13.8674 4.5 14V16C4.5 16.1326 4.44732 16.2598 4.35355 16.3536C4.25979 16.4473 4.13261 16.5 4 16.5H2C1.86739 16.5 1.74021 16.4473 1.64645 16.3536C1.55268 16.2598 1.5 16.1326 1.5 16V14ZM1.5 18C1.5 17.8674 1.55268 17.7402 1.64645 17.6464C1.74021 17.5527 1.86739 17.5 2 17.5H4C4.13261 17.5 4.25979 17.5527 4.35355 17.6464C4.44732 17.7402 4.5 17.8674 4.5 18V20C4.5 20.1326 4.44732 20.2598 4.35355 20.3536C4.25979 20.4473 4.13261 20.5 4 20.5H2C1.86739 20.5 1.74021 20.4473 1.64645 20.3536C1.55268 20.2598 1.5 20.1326 1.5 20V18Z" fill="white"/>
<path d="M21.5 16H20.5V17H21.5V16Z" fill="white"/>
<path d="M21.5 20H20.5V21H21.5V20Z" fill="white"/>
<path d="M18.5 23.5H23.5V13.5H18.5V23.5ZM19.5 15.5C19.5 15.3674 19.5527 15.2402 19.6464 15.1464C19.7402 15.0527 19.8674 15 20 15H22C22.1326 15 22.2598 15.0527 22.3536 15.1464C22.4473 15.2402 22.5 15.3674 22.5 15.5V17.5C22.5 17.6326 22.4473 17.7598 22.3536 17.8536C22.2598 17.9473 22.1326 18 22 18H20C19.8674 18 19.7402 17.9473 19.6464 17.8536C19.5527 17.7598 19.5 17.6326 19.5 17.5V15.5ZM19.5 19.5C19.5 19.3674 19.5527 19.2402 19.6464 19.1464C19.7402 19.0527 19.8674 19 20 19H22C22.1326 19 22.2598 19.0527 22.3536 19.1464C22.4473 19.2402 22.5 19.3674 22.5 19.5V21.5C22.5 21.6326 22.4473 21.7598 22.3536 21.8536C22.2598 21.9473 22.1326 22 22 22H20C19.8674 22 19.7402 21.9473 19.6464 21.8536C19.5527 21.7598 19.5 21.6326 19.5 21.5V19.5Z" fill="white"/>
<path d="M7 4.83997C7.72 5.41497 7.775 5.49997 8 5.49997C8.10157 5.50068 8.20095 5.47045 8.28492 5.41328C8.36888 5.35612 8.43344 5.27473 8.47 5.17997C8.555 4.95497 8.47 4.87497 8.175 3.90997L8.825 3.40997C8.91573 3.34744 8.98327 3.2567 9.01711 3.15183C9.05096 3.04697 9.04921 2.93386 9.01215 2.83009C8.97509 2.72632 8.90479 2.6377 8.81217 2.578C8.71956 2.5183 8.60981 2.49087 8.5 2.49997H7.695L7.5 1.83997C7.46712 1.73993 7.4035 1.65283 7.31821 1.59109C7.23291 1.52934 7.1303 1.49609 7.025 1.49609C6.9197 1.49609 6.81709 1.52934 6.7318 1.59109C6.6465 1.65283 6.58288 1.73993 6.55 1.83997L6.305 2.49997H5.5C5.3967 2.50056 5.29612 2.53314 5.21208 2.59322C5.12805 2.6533 5.06468 2.73794 5.0307 2.83549C4.99672 2.93305 4.99379 3.03874 5.02232 3.13802C5.05084 3.23731 5.10942 3.32533 5.19 3.38997L5.835 3.88997C5.575 4.67997 5.385 5.00997 5.61 5.29497C5.6797 5.35768 5.75697 5.41143 5.84 5.45497C5.87163 5.45717 5.90337 5.45717 5.935 5.45497L6 5.49997C6.24 5.49997 6.395 5.32497 7 4.83997Z" fill="white"/>
<path d="M10.835 2.90997C10.625 3.54997 10.19 4.40997 10.935 4.48497C11.24 4.52497 11.35 4.35997 12 3.83997C12.525 4.25997 12.735 4.49997 13 4.49997C13.1516 4.48983 13.2941 4.42393 13.4 4.31497C13.64 4.00997 13.4 3.60497 13.175 2.90997L13.825 2.40997C13.9157 2.34744 13.9833 2.2567 14.0171 2.15183C14.051 2.04697 14.0492 1.93386 14.0122 1.83009C13.9751 1.72632 13.9048 1.6377 13.8122 1.578C13.7196 1.5183 13.6098 1.49087 13.5 1.49997H12.695L12.5 0.839969C12.4671 0.739935 12.4035 0.652834 12.3182 0.591086C12.2329 0.529338 12.1303 0.496094 12.025 0.496094C11.9197 0.496094 11.8171 0.529338 11.7318 0.591086C11.6465 0.652834 11.5829 0.739935 11.55 0.839969L11.305 1.49997H10.5C10.3967 1.50056 10.2961 1.53314 10.2121 1.59322C10.128 1.6533 10.0647 1.73794 10.0307 1.83549C9.99672 1.93305 9.99379 2.03874 10.0223 2.13802C10.0508 2.23731 10.1094 2.32533 10.19 2.38997L10.835 2.90997Z" fill="white"/>
<path d="M1.335 5.90997C1.125 6.54997 0.690001 7.40997 1.435 7.48497C1.705 7.51997 1.745 7.44497 2.5 6.83997L3.19 7.38997C3.28155 7.45388 3.38865 7.49188 3.5 7.49997C3.59384 7.50223 3.68562 7.47223 3.76 7.41497C4.18 7.15497 3.955 6.77997 3.665 5.91497L4.315 5.41497C4.40718 5.35373 4.47643 5.26365 4.51192 5.15883C4.5474 5.05401 4.54711 4.94038 4.51109 4.83574C4.47507 4.73111 4.40535 4.64138 4.31286 4.58061C4.22037 4.51985 4.11034 4.49149 4 4.49997H3.195L3 3.83997C2.96712 3.73993 2.9035 3.65283 2.81821 3.59109C2.73291 3.52934 2.6303 3.49609 2.525 3.49609C2.4197 3.49609 2.31709 3.52934 2.2318 3.59109C2.1465 3.65283 2.08288 3.73993 2.05 3.83997L1.805 4.49997H1C0.896699 4.50056 0.796117 4.53314 0.712081 4.59322C0.628046 4.6533 0.564683 4.73794 0.530703 4.83549C0.496723 4.93305 0.493794 5.03874 0.522319 5.13802C0.550844 5.23731 0.609422 5.32533 0.690001 5.38997L1.335 5.90997Z" fill="white"/>
<path d="M18.5 4.83997L18.19 3.90997L18.84 3.40997C18.9326 3.34701 19.0014 3.25479 19.0353 3.14809C19.0693 3.04139 19.0664 2.92638 19.0272 2.82149C18.9881 2.7166 18.9148 2.6279 18.8192 2.56961C18.7236 2.51131 18.6112 2.48679 18.5 2.49997H17.695L17.5 1.83997C17.4671 1.73993 17.4035 1.65283 17.3182 1.59109C17.2329 1.52934 17.1303 1.49609 17.025 1.49609C16.9197 1.49609 16.8171 1.52934 16.7318 1.59109C16.6465 1.65283 16.5829 1.73993 16.55 1.83997L16.305 2.49997H15.5C15.3967 2.50056 15.2961 2.53314 15.2121 2.59322C15.128 2.6533 15.0647 2.73794 15.0307 2.83549C14.9967 2.93305 14.9938 3.03874 15.0223 3.13802C15.0508 3.23731 15.1094 3.32533 15.19 3.38997L15.835 3.88997C15.575 4.67997 15.385 5.00997 15.61 5.29497C15.6797 5.35768 15.757 5.41143 15.84 5.45497C15.8716 5.45717 15.9034 5.45717 15.935 5.45497L16 5.49997C16.0918 5.49429 16.1809 5.46687 16.26 5.41997C17.34 4.74997 16.62 4.58997 17.7 5.41997C17.784 5.50465 17.8956 5.55649 18.0145 5.56614C18.1334 5.57579 18.2518 5.54261 18.3484 5.47259C18.445 5.40256 18.5133 5.30032 18.5411 5.1843C18.5689 5.06829 18.5544 4.94616 18.5 4.83997Z" fill="white"/>
<path d="M20.335 5.90997C20.125 6.54997 19.69 7.40997 20.435 7.48497C20.74 7.52497 20.84 7.36997 21.5 6.83997C22 7.25997 22.235 7.49497 22.5 7.49997C22.6516 7.48983 22.7941 7.42393 22.9 7.31497C23.14 7.00997 22.9 6.60497 22.675 5.90997L23.325 5.40997C23.4157 5.34744 23.4833 5.2567 23.5171 5.15183C23.551 5.04697 23.5492 4.93386 23.5121 4.83009C23.4751 4.72632 23.4048 4.6377 23.3122 4.578C23.2196 4.5183 23.1098 4.49087 23 4.49997H22.195L22 3.83997C21.9671 3.73993 21.9035 3.65283 21.8182 3.59109C21.7329 3.52934 21.6303 3.49609 21.525 3.49609C21.4197 3.49609 21.3171 3.52934 21.2318 3.59109C21.1465 3.65283 21.0829 3.73993 21.05 3.83997L20.805 4.49997H20C19.8967 4.50056 19.7961 4.53314 19.7121 4.59322C19.628 4.6533 19.5647 4.73794 19.5307 4.83549C19.4967 4.93305 19.4938 5.03874 19.5223 5.13802C19.5508 5.23731 19.6094 5.32533 19.69 5.38997L20.335 5.90997Z" fill="white"/>
<path d="M23.5 11.5H18.5V12.5H23.5V11.5Z" fill="white"/>
<path d="M5.5 9.5H0.5V10.5H5.5V9.5Z" fill="white"/>
</g>
<defs>
<clipPath id="clip0_71_745">
<rect width="24" height="24" fill="white"/>
</clipPath>
</defs>
</svg>
