<svg width="21" height="21" viewBox="0 0 21 21" fill="none" xmlns="http://www.w3.org/2000/svg">
<path d="M7.44245 17.187C7.75592 17.187 8.01845 17.0809 8.23005 16.8689C8.44163 16.6569 8.54742 16.3941 8.54742 16.0806C8.54742 15.7671 8.4414 15.5046 8.22936 15.293C8.0173 15.0814 7.75454 14.9756 7.44107 14.9756C7.1276 14.9756 6.86506 15.0817 6.65347 15.2937C6.44189 15.5058 6.3361 15.7685 6.3361 16.082C6.3361 16.3955 6.44212 16.658 6.65415 16.8696C6.86621 17.0812 7.12897 17.187 7.44245 17.187ZM10.5517 17.187C10.8651 17.187 11.1277 17.0809 11.3393 16.8689C11.5509 16.6569 11.6566 16.3941 11.6566 16.0806C11.6566 15.7671 11.5506 15.5046 11.3386 15.293C11.1265 15.0814 10.8638 14.9756 10.5503 14.9756C10.2368 14.9756 9.97429 15.0817 9.76269 15.2937C9.55111 15.5058 9.44532 15.7685 9.44532 16.082C9.44532 16.3955 9.55134 16.658 9.76338 16.8696C9.97544 17.0812 10.2382 17.187 10.5517 17.187ZM13.6609 17.187C13.9744 17.187 14.2369 17.0809 14.4485 16.8689C14.6601 16.6569 14.7659 16.3941 14.7659 16.0806C14.7659 15.7671 14.6599 15.5046 14.4478 15.293C14.2358 15.0814 13.973 14.9756 13.6595 14.9756C13.3461 14.9756 13.0835 15.0817 12.8719 15.2937C12.6603 15.5058 12.5546 15.7685 12.5546 16.082C12.5546 16.3955 12.6606 16.658 12.8726 16.8696C13.0847 17.0812 13.3474 17.187 13.6609 17.187ZM7.44245 13.9758C7.75592 13.9758 8.01845 13.8698 8.23005 13.6577C8.44163 13.4457 8.54742 13.1829 8.54742 12.8694C8.54742 12.556 8.4414 12.2934 8.22936 12.0818C8.0173 11.8703 7.75454 11.7645 7.44107 11.7645C7.1276 11.7645 6.86506 11.8705 6.65347 12.0825C6.44189 12.2946 6.3361 12.5574 6.3361 12.8708C6.3361 13.1843 6.44212 13.4468 6.65415 13.6584C6.86621 13.87 7.12897 13.9758 7.44245 13.9758ZM10.5517 13.9758C10.8651 13.9758 11.1277 13.8698 11.3393 13.6577C11.5509 13.4457 11.6566 13.1829 11.6566 12.8694C11.6566 12.556 11.5506 12.2934 11.3386 12.0818C11.1265 11.8703 10.8638 11.7645 10.5503 11.7645C10.2368 11.7645 9.97429 11.8705 9.76269 12.0825C9.55111 12.2946 9.44532 12.5574 9.44532 12.8708C9.44532 13.1843 9.55134 13.4468 9.76338 13.6584C9.97544 13.87 10.2382 13.9758 10.5517 13.9758ZM13.6609 13.9758C13.9744 13.9758 14.2369 13.8698 14.4485 13.6577C14.6601 13.4457 14.7659 13.1829 14.7659 12.8694C14.7659 12.556 14.6599 12.2934 14.4478 12.0818C14.2358 11.8703 13.973 11.7645 13.6595 11.7645C13.3461 11.7645 13.0835 11.8705 12.8719 12.0825C12.6603 12.2946 12.5546 12.5574 12.5546 12.8708C12.5546 13.1843 12.6606 13.4468 12.8726 13.6584C13.0847 13.87 13.3474 13.9758 13.6609 13.9758ZM5.25788 10.5686H15.8441V9.45508C15.8441 7.98347 15.3298 6.73338 14.3012 5.70482C13.2727 4.67626 12.0226 4.16198 10.551 4.16198C9.07937 4.16198 7.82928 4.67626 6.80072 5.70482C5.77216 6.73338 5.25788 7.98347 5.25788 9.45508V10.5686ZM6.93205 8.94537C7.06797 8.04489 7.47574 7.29307 8.15535 6.68991C8.83496 6.08675 9.63351 5.78518 10.551 5.78518C11.4685 5.78518 12.2658 6.08803 12.943 6.69373C13.6202 7.29944 14.0292 8.04998 14.1699 8.94537H6.93205ZM2.50545 21C1.80829 21 1.21643 20.7567 0.729878 20.2701C0.243293 19.7836 0 19.1917 0 18.4945V2.50543C0 1.80826 0.243284 1.2164 0.729853 0.729853C1.2164 0.243284 1.80826 0 2.50543 0H18.4946C19.1917 0 19.7836 0.243284 20.2701 0.729853C20.7567 1.2164 21 1.80826 21 2.50543V18.4945C21 19.1917 20.7567 19.7836 20.2701 20.2701C19.7836 20.7567 19.1917 21 18.4946 21L2.50545 21ZM2.50545 18.8083H18.4946C18.573 18.8083 18.6449 18.7756 18.7103 18.7102C18.7756 18.6449 18.8083 18.573 18.8083 18.4945V2.50543C18.8083 2.427 18.7756 2.3551 18.7103 2.28974C18.6449 2.2244 18.573 2.19173 18.4946 2.19173H2.50545C2.42702 2.19173 2.35513 2.2244 2.28977 2.28974C2.22442 2.3551 2.19175 2.427 2.19175 2.50543V18.4945C2.19175 18.573 2.22442 18.6449 2.28977 18.7102C2.35513 18.7756 2.42702 18.8083 2.50545 18.8083Z" fill="#00BF63"/>
</svg>
