<svg width="24" height="24" viewBox="0 0 24 24" fill="none" xmlns="http://www.w3.org/2000/svg">
<g clip-path="url(#clip0_147_908)">
<path d="M4.40323 16.7903V20.9032L8.51614 19.8871L11.6129 22.9839L14.7097 19.8871L18.8226 20.9032V16.7903L22.9839 15.7258L20.9032 11.6129L22.9839 7.50001L18.8226 6.43549V2.32259L14.7097 3.33872L11.6129 0.241943L8.51614 3.33872L4.40323 2.32259V6.43549L0.241943 7.50001L2.32259 11.6129L0.241943 15.7258L4.40323 16.7903ZM4.1613 10.6936L3.24194 8.80646L4.8871 8.41936C5.37098 8.32259 5.75001 8.08872 6.0242 7.71775C6.2984 7.34678 6.43549 6.91936 6.43549 6.43549V4.98388L7.98388 5.41936H8.51614C9.06452 5.41936 9.5484 5.20969 9.96775 4.79033L11.6129 3.14517L13.2581 4.79033C13.6774 5.20969 14.1613 5.41936 14.7097 5.41936C14.9032 5.41936 15.0807 5.3871 15.2419 5.32259L16.7903 4.98388V6.43549C16.7903 6.91936 16.9274 7.34678 17.2016 7.71775C17.4758 8.08872 17.8548 8.32259 18.3387 8.41936L19.9839 8.80646L19.0645 10.6936C18.7419 11.3065 18.7419 11.9194 19.0645 12.5323L19.9839 14.4194L18.3387 14.8065C17.8548 14.9032 17.4758 15.1371 17.2016 15.5081C16.9274 15.879 16.7903 16.3065 16.7903 16.7903V18.2419L15.2419 17.8065H14.7097C14.1613 17.8065 13.6774 18.0161 13.2581 18.4355L11.6129 20.0807L9.96775 18.4355C9.5484 18.0161 9.06452 17.8065 8.51614 17.8065C8.32259 17.8065 8.14517 17.8387 7.98388 17.9032L6.43549 18.2419V16.7903C6.43549 16.3065 6.2984 15.879 6.0242 15.5081C5.75001 15.1371 5.37098 14.9032 4.8871 14.8065L3.24194 14.4194L4.1613 12.5323C4.48388 11.9194 4.48388 11.3065 4.1613 10.6936ZM10.5968 15.1452L15.4355 10.2581C15.8871 9.80646 15.8871 9.32259 15.4355 8.80646C14.9516 8.3871 14.4678 8.3871 13.9839 8.80646L10.5968 12.2419L9.24194 10.8871C8.75807 10.4678 8.2742 10.4678 7.79033 10.8871C7.37098 11.371 7.37098 11.8548 7.79033 12.3387L10.5968 15.1452Z" fill="#0075C3"/>
</g>
<defs>
<clipPath id="clip0_147_908">
<rect width="23.2258" height="24" fill="white"/>
</clipPath>
</defs>
</svg>
