<svg width="13" height="12" viewBox="0 0 13 12" fill="none" xmlns="http://www.w3.org/2000/svg">
<path d="M5.26465 0.719313C5.57629 -0.239795 6.93317 -0.239794 7.2448 0.719314L8.00766 3.06716C8.14703 3.49609 8.54674 3.78649 8.99774 3.78649L11.4664 3.78649C12.4749 3.78649 12.8942 5.07696 12.0783 5.66972L10.0811 7.12077C9.71624 7.38586 9.56357 7.85575 9.70294 8.28467L10.4658 10.6325C10.7774 11.5916 9.67969 12.3892 8.86383 11.7964L6.86663 10.3454C6.50176 10.0803 6.0077 10.0803 5.64283 10.3454L3.64563 11.7964C2.82977 12.3892 1.73203 11.5916 2.04366 10.6325L2.80652 8.28467C2.94589 7.85575 2.79321 7.38586 2.42835 7.12077L0.431147 5.66972C-0.384718 5.07696 0.0345814 3.78649 1.04305 3.78649L3.51172 3.78649C3.96272 3.78649 4.36243 3.49609 4.50179 3.06716L5.26465 0.719313Z" fill="#FBBC04"/>
</svg>
