<svg width="39" height="24" viewBox="0 0 39 24" fill="none" xmlns="http://www.w3.org/2000/svg">
<path fill-rule="evenodd" clip-rule="evenodd" d="M27.1721 -0.000104481C33.7044 -0.000104481 38.9999 5.36215 38.9999 11.9768C38.9999 18.5915 33.7044 23.9538 27.1721 23.9538C24.2445 23.9538 21.5654 22.8767 19.5 21.0926C17.4346 22.8767 14.7554 23.9538 11.8278 23.9538C5.2955 23.9538 0 18.5915 0 11.9768C0 5.36214 5.2955 -0.000118025 11.8278 -0.000118025C14.7554 -0.000118025 17.4346 1.07692 19.5 2.86105C21.5654 1.07693 24.2445 -0.000104481 27.1721 -0.000104481Z" fill="#ED0006"/>
<path fill-rule="evenodd" clip-rule="evenodd" d="M19.4999 2.86095C22.0431 5.05774 23.6557 8.32659 23.6557 11.9768C23.6557 15.6271 22.0431 18.8959 19.4999 21.0927C21.5652 22.8768 24.2444 23.9538 27.1719 23.9538C33.7042 23.9538 38.9997 18.5915 38.9997 11.9768C38.9997 5.36215 33.7042 -0.000104481 27.1719 -0.000104481C24.2444 -0.000104481 21.5652 1.07689 19.4999 2.86095Z" fill="#F9A000"/>
<path fill-rule="evenodd" clip-rule="evenodd" d="M19.5002 2.86081C22.0434 5.0576 23.656 8.32645 23.656 11.9767C23.656 15.6269 22.0434 18.8958 19.5002 21.0926C16.957 18.8958 15.3444 15.6269 15.3444 11.9767C15.3444 8.32645 16.957 5.0576 19.5002 2.86081Z" fill="#FF5E00"/>
</svg>
