<svg width="20" height="20" viewBox="0 0 20 20" fill="none" xmlns="http://www.w3.org/2000/svg">
<path fill-rule="evenodd" clip-rule="evenodd" d="M9.99984 3.33341C6.31794 3.33341 3.33317 6.31818 3.33317 10.0001C3.33317 11.3998 3.76455 12.6988 4.50161 13.7713C6.1616 12.9571 8.02833 12.5001 9.99984 12.5001C11.9713 12.5001 13.8381 12.9571 15.4981 13.7713C16.2351 12.6988 16.6665 11.3998 16.6665 10.0001C16.6665 6.31818 13.6817 3.33341 9.99984 3.33341ZM16.3784 15.3631C17.5982 13.9137 18.3332 12.0427 18.3332 10.0001C18.3332 5.39771 14.6022 1.66675 9.99984 1.66675C5.39746 1.66675 1.6665 5.39771 1.6665 10.0001C1.6665 12.0427 2.40144 13.9138 3.62132 15.3631C3.62791 15.3712 3.63464 15.3792 3.64149 15.387C5.17008 17.1894 7.45136 18.3334 9.99984 18.3334C12.5483 18.3334 14.8296 17.1894 16.3582 15.387C16.365 15.3792 16.3718 15.3712 16.3784 15.3631ZM14.332 15.0674C13.006 14.4882 11.5413 14.1667 9.99984 14.1667C8.45841 14.1667 6.99367 14.4882 5.66764 15.0674C6.83284 16.0645 8.34601 16.6667 9.99984 16.6667C11.6537 16.6667 13.1668 16.0645 14.332 15.0674ZM9.99984 6.66675C9.07936 6.66675 8.33317 7.41294 8.33317 8.33342C8.33317 9.25389 9.07936 10.0001 9.99984 10.0001C10.9203 10.0001 11.6665 9.25389 11.6665 8.33342C11.6665 7.41294 10.9203 6.66675 9.99984 6.66675ZM6.6665 8.33342C6.6665 6.49247 8.15889 5.00008 9.99984 5.00008C11.8408 5.00008 13.3332 6.49247 13.3332 8.33342C13.3332 10.1744 11.8408 11.6667 9.99984 11.6667C8.15889 11.6667 6.6665 10.1744 6.6665 8.33342Z" fill="#9F9F9F"/>
</svg>
