<svg width="20" height="20" viewBox="0 0 20 20" fill="none" xmlns="http://www.w3.org/2000/svg">
<path fill-rule="evenodd" clip-rule="evenodd" d="M9.41058 1.91083C9.73602 1.58539 10.2637 1.58539 10.5891 1.91083L18.0891 9.41083C18.4145 9.73626 18.4145 10.2639 18.0891 10.5893C17.7637 10.9148 17.236 10.9148 16.9106 10.5893L16.6665 10.3453V16.6667C16.6665 17.5872 15.9203 18.3334 14.9998 18.3334H4.99984C4.07936 18.3334 3.33317 17.5872 3.33317 16.6667V10.3453L3.08909 10.5893C2.76366 10.9148 2.23602 10.9148 1.91058 10.5893C1.58514 10.2639 1.58514 9.73626 1.91058 9.41083L9.41058 1.91083ZM4.99984 8.67859V16.6667H7.49984V13.3334C7.49984 12.4129 8.24603 11.6667 9.1665 11.6667H10.8332C11.7536 11.6667 12.4998 12.4129 12.4998 13.3334V16.6667H14.9998V8.67859L9.99984 3.67859L4.99984 8.67859ZM10.8332 16.6667V13.3334H9.1665V16.6667H10.8332Z" fill="#9F9F9F"/>
</svg>
