<svg width="20" height="20" viewBox="0 0 20 20" fill="none" xmlns="http://www.w3.org/2000/svg">
<path d="M18.3535 7.47741L16.8051 5.92902L17.4068 5.35279C17.4722 5.28744 17.5048 5.21393 17.5048 5.13225C17.5048 5.05058 17.4722 4.97708 17.4068 4.91175L14.9313 2.43627C14.866 2.37094 14.7925 2.33827 14.7108 2.33827C14.6292 2.33827 14.5557 2.37094 14.4903 2.43627L13.9141 3.03798L12.3402 1.46412L13.2105 0.619348C13.6234 0.20645 14.1251 0 14.7157 0C15.3063 0 15.8081 0.20645 16.221 0.619348L19.2237 3.62209C19.6366 4.03215 19.8431 4.53321 19.8431 5.12525C19.8431 5.71727 19.6366 6.21974 19.2237 6.63263L18.3535 7.47741ZM6.47583 19.3806C6.06577 19.7935 5.56471 19.9999 4.97267 19.9999C4.38065 19.9999 3.87819 19.7935 3.46529 19.3806L0.756559 16.6463C0.252187 16.142 0 15.5507 0 14.8725C0 14.1944 0.252187 13.6031 0.756559 13.0987L1.3328 12.5225L2.88118 14.0709L2.28927 14.6471C2.22392 14.7125 2.19125 14.786 2.19125 14.8676C2.19125 14.9493 2.22392 15.0228 2.28927 15.0882L4.75494 17.5538C4.82028 17.6192 4.89378 17.6518 4.97545 17.6518C5.05712 17.6518 5.13063 17.6192 5.19598 17.5538L5.77222 16.9619L7.3206 18.5103L6.47583 19.3806ZM16.468 10.6899L17.2383 9.94509C17.3036 9.87974 17.3363 9.8046 17.3363 9.71967C17.3363 9.63473 17.3036 9.55959 17.2383 9.49424L10.3489 2.60482C10.2835 2.53947 10.2084 2.5068 10.1234 2.5068C10.0385 2.5068 9.96335 2.53947 9.898 2.60482L9.15322 3.37509C9.08787 3.44042 9.05519 3.51392 9.05519 3.59559C9.05519 3.67728 9.08787 3.75079 9.15322 3.81613L16.027 10.6899C16.0923 10.7552 16.1658 10.7879 16.2475 10.7879C16.3292 10.7879 16.4027 10.7552 16.468 10.6899ZM9.76281 17.3951L10.686 16.4817C10.7513 16.4164 10.784 16.3429 10.784 16.2612C10.784 16.1795 10.7513 16.106 10.686 16.0407L3.80239 9.15714C3.73706 9.09179 3.66356 9.05912 3.58189 9.05912C3.50021 9.05912 3.4267 9.09179 3.36135 9.15714L2.44801 10.0803C2.38267 10.1456 2.34999 10.2208 2.34999 10.3057C2.34999 10.3906 2.38267 10.4658 2.44801 10.5311L9.31196 17.3951C9.37731 17.4604 9.45245 17.4931 9.53738 17.4931C9.62232 17.4931 9.69746 17.4604 9.76281 17.3951ZM9.37665 11.6248L11.6111 9.38058L10.4625 8.232L8.21827 10.4664L9.37665 11.6248ZM11.3014 18.9533C10.814 19.4407 10.226 19.6844 9.53738 19.6844C8.84877 19.6844 8.26077 19.4407 7.77338 18.9533L0.889821 12.0697C0.385448 11.5653 0.133262 10.9773 0.133262 10.3057C0.133262 9.63409 0.385448 9.04609 0.889821 8.54172L1.81297 7.60876C2.31734 7.10438 2.90861 6.8522 3.58678 6.8522C4.26494 6.8522 4.85621 7.10438 5.36058 7.60876L6.66989 8.91806L8.90433 6.68362L7.59502 5.36451C7.09065 4.86014 6.83846 4.2705 6.83846 3.59559C6.83846 2.92071 7.09065 2.33108 7.59502 1.8267L8.3751 1.04663C8.87947 0.542253 9.47074 0.290066 10.1489 0.290066C10.8271 0.290066 11.4183 0.542253 11.9227 1.04663L18.7965 7.92038C19.3008 8.42475 19.553 9.01602 19.553 9.69419C19.553 10.3724 19.3008 10.9636 18.7965 11.468L18.0164 12.2481C17.512 12.7524 16.9224 13.0046 16.2475 13.0046C15.5726 13.0046 14.983 12.7524 14.4786 12.2481L13.1595 10.9388L10.925 13.1732L12.2343 14.4825C12.7217 14.9699 12.9654 15.5612 12.9654 16.2563C12.9654 16.9515 12.7217 17.5427 12.2343 18.0301L11.3014 18.9533Z" fill="#00BF63"/>
</svg>
