<svg width="13" height="12" viewBox="0 0 13 12" fill="none" xmlns="http://www.w3.org/2000/svg">
<path d="M5.26461 0.719552C5.57623 -0.239535 6.93309 -0.239535 7.24471 0.719552L8.00756 3.06735C8.14692 3.49627 8.54662 3.78666 8.99761 3.78666L11.4662 3.78667C12.4747 3.78667 12.894 5.07711 12.0781 5.66986L10.081 7.12088C9.7161 7.38596 9.56343 7.85584 9.70279 8.28475L10.4656 10.6325C10.7773 11.5916 9.67955 12.3892 8.8637 11.7964L6.86655 10.3454C6.50169 10.0803 6.00763 10.0803 5.64277 10.3454L3.64562 11.7964C2.82977 12.3892 1.73205 11.5916 2.04368 10.6325L2.80652 8.28475C2.94589 7.85584 2.79322 7.38596 2.42836 7.12088L0.431202 5.66986C-0.384646 5.07711 0.0346442 3.78667 1.04309 3.78667L3.51171 3.78666C3.9627 3.78666 4.3624 3.49627 4.50176 3.06735L5.26461 0.719552Z" fill="#FBBC04"/>
</svg>
