<svg width="13" height="12" viewBox="0 0 13 12" fill="none" xmlns="http://www.w3.org/2000/svg">
<path d="M5.26421 0.719313C5.57584 -0.239795 6.93272 -0.239794 7.24436 0.719314L8.00722 3.06716C8.14659 3.49609 8.54629 3.78649 8.99729 3.78649L11.466 3.78649C12.4744 3.78649 12.8937 5.07696 12.0779 5.66972L10.0807 7.12077C9.7158 7.38586 9.56313 7.85575 9.70249 8.28467L10.4654 10.6325C10.777 11.5916 9.67925 12.3892 8.86338 11.7964L6.86618 10.3454C6.50132 10.0803 6.00725 10.0803 5.64238 10.3454L3.64519 11.7964C2.82932 12.3892 1.73158 11.5916 2.04321 10.6325L2.80608 8.28467C2.94544 7.85575 2.79277 7.38586 2.4279 7.12077L0.430703 5.66972C-0.385163 5.07696 0.0341366 3.78649 1.0426 3.78649L3.51128 3.78649C3.96227 3.78649 4.36198 3.49609 4.50135 3.06716L5.26421 0.719313Z" fill="#0069C9"/>
</svg>
