<svg width="24" height="24" viewBox="0 0 24 24" fill="none" xmlns="http://www.w3.org/2000/svg">
<path d="M16.0606 21.5459C16.3418 21.2646 16.4998 20.8832 16.4998 20.4854C16.4998 20.0877 16.3418 19.7062 16.0606 19.4249L8.63557 11.9999L16.0606 4.57493C16.3338 4.29202 16.485 3.91312 16.4816 3.51982C16.4782 3.12653 16.3204 2.75031 16.0423 2.4722C15.7642 2.19409 15.388 2.03633 14.9947 2.03292C14.6014 2.0295 14.2225 2.18069 13.9396 2.45393L5.45407 10.9394C5.17287 11.2207 5.01489 11.6022 5.01489 11.9999C5.01489 12.3977 5.17287 12.7791 5.45407 13.0604L13.9396 21.5459C14.2209 21.8271 14.6023 21.9851 15.0001 21.9851C15.3978 21.9851 15.7793 21.8271 16.0606 21.5459Z" fill="black"/>
</svg>
