<svg width="25" height="22" viewBox="0 0 25 22" fill="none" xmlns="http://www.w3.org/2000/svg">
<path d="M12.5 17.7222C14.0625 17.7222 15.3906 17.1875 16.4844 16.1181C17.5781 15.0486 18.125 13.75 18.125 12.2222C18.125 10.6944 17.5781 9.39583 16.4844 8.32639C15.3906 7.25694 14.0625 6.72222 12.5 6.72222C10.9375 6.72222 9.60938 7.25694 8.51562 8.32639C7.42188 9.39583 6.875 10.6944 6.875 12.2222C6.875 13.75 7.42188 15.0486 8.51562 16.1181C9.60938 17.1875 10.9375 17.7222 12.5 17.7222ZM12.5 15.2778C11.625 15.2778 10.8854 14.9824 10.2813 14.3917C9.67708 13.8009 9.375 13.0778 9.375 12.2222C9.375 11.3667 9.67708 10.6435 10.2813 10.0528C10.8854 9.46204 11.625 9.16667 12.5 9.16667C13.375 9.16667 14.1146 9.46204 14.7188 10.0528C15.3229 10.6435 15.625 11.3667 15.625 12.2222C15.625 13.0778 15.3229 13.8009 14.7188 14.3917C14.1146 14.9824 13.375 15.2778 12.5 15.2778ZM2.5 22C1.8125 22 1.22396 21.7606 0.734375 21.2819C0.244792 20.8032 0 20.2278 0 19.5556V4.88889C0 4.21667 0.244792 3.6412 0.734375 3.1625C1.22396 2.6838 1.8125 2.44444 2.5 2.44444H4.75502C5.82901 2.44444 6.85567 2.00242 7.59375 1.22222C8.33183 0.442028 9.35849 0 10.4325 0H14.5675C15.6415 0 16.6682 0.442028 17.4062 1.22222C18.1443 2.00242 19.171 2.44444 20.245 2.44444H22.5C23.1875 2.44444 23.776 2.6838 24.2656 3.1625C24.7552 3.6412 25 4.21667 25 4.88889V19.5556C25 20.2278 24.7552 20.8032 24.2656 21.2819C23.776 21.7606 23.1875 22 22.5 22H2.5ZM2.5 15.5556C2.5 17.7647 4.29086 19.5556 6.5 19.5556H18.5C20.7091 19.5556 22.5 17.7647 22.5 15.5556V8.41779C22.5 6.46883 20.9201 4.88889 18.9711 4.88889C17.9929 4.88889 17.0586 4.48285 16.3912 3.76769L16.2969 3.66667C15.5693 2.88707 14.5508 2.44444 13.4845 2.44444H11.5155C10.4492 2.44444 9.43067 2.88707 8.70313 3.66667L8.60885 3.76769C7.94143 4.48285 7.00711 4.88889 6.0289 4.88889C4.07994 4.88889 2.5 6.46883 2.5 8.41779V15.5556Z" fill="white"/>
</svg>
