<svg width="24" height="24" viewBox="0 0 24 24" fill="none" xmlns="http://www.w3.org/2000/svg">
<path d="M5.30768 21.15C4.62379 21.15 4.04321 20.9114 3.56593 20.4341C3.08863 19.9568 2.84998 19.3762 2.84998 18.6923V5.3078C2.84998 4.62392 3.08863 4.04333 3.56593 3.56605C4.04321 3.08875 4.62379 2.8501 5.30768 2.8501H18.6922C19.3761 2.8501 19.9567 3.08875 20.434 3.56605C20.9113 4.04333 21.1499 4.62392 21.1499 5.3078V18.6923C21.1499 19.3762 20.9113 19.9568 20.434 20.4341C19.9567 20.9114 19.3761 21.15 18.6922 21.15H5.30768ZM5.30768 19.0001H18.6922C18.7692 19.0001 18.8397 18.968 18.9038 18.9039C18.9679 18.8398 19 18.7693 19 18.6923V5.3078C19 5.23087 18.9679 5.16034 18.9038 5.09622C18.8397 5.03212 18.7692 5.00007 18.6922 5.00007H5.30768C5.23074 5.00007 5.16022 5.03212 5.0961 5.09622C5.032 5.16034 4.99995 5.23087 4.99995 5.3078V18.6923C4.99995 18.7693 5.032 18.8398 5.0961 18.9039C5.16022 18.968 5.23074 19.0001 5.30768 19.0001Z" fill="#0075C3"/>
</svg>
