<svg width="16" height="21" viewBox="0 0 16 21" fill="none" xmlns="http://www.w3.org/2000/svg">
<path d="M3.15509 21V11.4443C2.23978 11.1964 1.48511 10.6997 0.891075 9.95425C0.297025 9.20877 0 8.34428 0 7.36078V0.0317236H2.19909V7.36078H3.15509V0.0317236H5.35415V7.36078H6.31015V0.0317236H8.50924V7.36078C8.50924 8.34428 8.21221 9.20877 7.61816 9.95425C7.02413 10.6997 6.26946 11.1964 5.35415 11.4443V21L3.15509 21ZM13.6549 21V12.6638H10.4527V5.29934C10.4527 3.81755 10.9779 2.56064 12.0282 1.5286C13.0786 0.496589 14.3539 -0.0128628 15.854 0.000246656V21H13.6549Z" fill="#00BF63"/>
</svg>
